%TF.GenerationSoftware,Altium Limited,Altium Designer,25.8.1 (18)*%
G04 Layer_Physical_Order=1*
G04 Layer_Color=255*
%FSLAX45Y45*%
%MOMM*%
%TF.SameCoordinates,C1BB3922-C825-4BE3-8BC7-E8AFE5BE402A*%
%TF.FilePolarity,Positive*%
%TF.FileFunction,Copper,L1,Top,Signal*%
%TF.Part,Single*%
G01*
G75*
%TA.AperFunction,Conductor*%
%ADD10C,0.67000*%
%TA.AperFunction,SMDPad,CuDef*%
%ADD11R,0.96000X0.93500*%
%ADD12R,1.05872X1.01213*%
%ADD13R,1.01213X1.05872*%
%ADD14R,1.05000X2.20000*%
%ADD15R,1.00000X1.05000*%
%ADD16R,2.20000X1.05000*%
%ADD17R,1.05000X1.00000*%
%ADD18R,1.07000X0.61000*%
%ADD19R,0.61000X1.07000*%
%TA.AperFunction,Conductor*%
%ADD20C,0.25400*%
%TA.AperFunction,ComponentPad*%
%ADD21C,1.52400*%
%TA.AperFunction,ViaPad*%
%ADD22C,3.20000*%
%TA.AperFunction,ComponentPad*%
%ADD23C,2.55000*%
%ADD24C,2.25000*%
%TA.AperFunction,ViaPad*%
%ADD25C,0.70000*%
G36*
X11109227Y12539833D02*
X11145950Y12531536D01*
X11181274Y12518517D01*
X11214597Y12500999D01*
X11245348Y12479280D01*
X11273002Y12453734D01*
X11297084Y12424796D01*
X11317183Y12392963D01*
X11332954Y12358778D01*
X11344129Y12322828D01*
X11349722Y12290334D01*
X11351259Y12266929D01*
X11351259Y12266917D01*
X11351259D01*
X11351260Y12266916D01*
Y12240260D01*
X11353517Y12234324D01*
X11352116Y12232922D01*
X11351358Y12231091D01*
X11351260Y12230100D01*
X11351259Y3491407D01*
X11351260Y3473333D01*
X11346543Y3437492D01*
X11337188Y3402575D01*
X11323355Y3369177D01*
X11305281Y3337871D01*
X11283275Y3309191D01*
X11257714Y3283630D01*
X11229036Y3261623D01*
X11197730Y3243548D01*
X11164333Y3229714D01*
X11129415Y3220358D01*
X11100522Y3216554D01*
X11075501Y3215640D01*
X11075501Y3215640D01*
X11075500Y3215640D01*
X2662537D01*
X2637482Y3215578D01*
X2588313Y3225249D01*
X2541980Y3244340D01*
X2500272Y3272117D01*
X2464794Y3307507D01*
X2436916Y3349148D01*
X2417711Y3395433D01*
X2407920Y3444579D01*
X2407920Y3469635D01*
Y12259515D01*
X2407945Y12278073D01*
X2412835Y12314866D01*
X2422481Y12350707D01*
X2436719Y12384983D01*
X2455306Y12417110D01*
X2477924Y12446538D01*
X2504186Y12472766D01*
X2533645Y12495344D01*
X2565797Y12513888D01*
X2600092Y12528080D01*
X2635946Y12537678D01*
X2672745Y12542519D01*
X2691303Y12542518D01*
X2691303Y12542519D01*
X11052928Y12542520D01*
X11071737Y12543265D01*
X11109227Y12539833D01*
D02*
G37*
%LPC*%
G36*
X5869254Y12130480D02*
X5845226D01*
X5823026Y12121285D01*
X5806035Y12104294D01*
X5796840Y12082094D01*
Y12058066D01*
X5806035Y12035866D01*
X5823026Y12018875D01*
X5845226Y12009680D01*
X5869254D01*
X5891454Y12018875D01*
X5908445Y12035866D01*
X5917640Y12058066D01*
Y12082094D01*
X5908445Y12104294D01*
X5891454Y12121285D01*
X5869254Y12130480D01*
D02*
G37*
G36*
X5777652Y11760237D02*
X5750900D01*
X5725060Y11753313D01*
X5701892Y11739937D01*
X5682976Y11721021D01*
X5669600Y11697853D01*
X5662676Y11672012D01*
Y11645261D01*
X5669600Y11619420D01*
X5682976Y11596253D01*
X5701892Y11577336D01*
X5725060Y11563960D01*
X5750900Y11557037D01*
X5777652D01*
X5803492Y11563960D01*
X5826660Y11577336D01*
X5845576Y11596253D01*
X5858952Y11619420D01*
X5865876Y11645261D01*
Y11672012D01*
X5858952Y11697853D01*
X5845576Y11721021D01*
X5826660Y11739937D01*
X5803492Y11753313D01*
X5777652Y11760237D01*
D02*
G37*
G36*
X5583596Y11587480D02*
X5556844D01*
X5531004Y11580556D01*
X5507836Y11567180D01*
X5488920Y11548264D01*
X5475544Y11525096D01*
X5468620Y11499256D01*
Y11472504D01*
X5475544Y11446664D01*
X5488920Y11423496D01*
X5507836Y11404580D01*
X5531004Y11391204D01*
X5556844Y11384280D01*
X5583596D01*
X5609436Y11391204D01*
X5632604Y11404580D01*
X5651520Y11423496D01*
X5664896Y11446664D01*
X5671820Y11472504D01*
Y11499256D01*
X5664896Y11525096D01*
X5651520Y11548264D01*
X5632604Y11567180D01*
X5609436Y11580556D01*
X5583596Y11587480D01*
D02*
G37*
G36*
X6948640Y11681895D02*
X6797840D01*
Y11526095D01*
X6813186D01*
Y9839960D01*
X6813658Y9837586D01*
X6809929Y9818840D01*
X6797966Y9800934D01*
X6780060Y9788971D01*
X6761314Y9785242D01*
X6758940Y9785714D01*
X6243320D01*
X6242376Y9785526D01*
X6200404Y9781392D01*
X6159138Y9768874D01*
X6121106Y9748546D01*
X6087771Y9721189D01*
X6060414Y9687854D01*
X6040086Y9649822D01*
X6027568Y9608556D01*
X6023434Y9566584D01*
X6023246Y9565640D01*
Y8470900D01*
X6023494Y8469652D01*
X6021316Y8458699D01*
X6014404Y8448356D01*
X6004061Y8441444D01*
X5993108Y8439266D01*
X5991860Y8439514D01*
X5816600D01*
X5813210Y8438840D01*
X5783643Y8435928D01*
X5751952Y8426314D01*
X5722745Y8410703D01*
X5697146Y8389694D01*
X5676137Y8364095D01*
X5660526Y8334888D01*
X5650912Y8303197D01*
X5648000Y8273630D01*
X5647326Y8270240D01*
Y8046720D01*
X5647975Y8043455D01*
X5650950Y8013253D01*
X5660712Y7981072D01*
X5676565Y7951414D01*
X5697898Y7925419D01*
X5723894Y7904085D01*
X5753552Y7888232D01*
X5785733Y7878470D01*
X5815934Y7875496D01*
X5819200Y7874846D01*
X5959580D01*
X5980465Y7879000D01*
X6038480D01*
Y7901261D01*
X6063880Y7911782D01*
X6068230Y7907432D01*
X6080833Y7899011D01*
X6085680Y7898047D01*
Y7879000D01*
X6243480D01*
Y7990800D01*
X6143638D01*
X6133117Y8016200D01*
X6170619Y8053702D01*
X6179040Y8066305D01*
X6181775Y8080053D01*
X6221486D01*
Y8232066D01*
X6064815D01*
Y8080054D01*
X6064815D01*
X6071341Y8064298D01*
X6053351Y8046308D01*
X6044930Y8033706D01*
X6041973Y8018840D01*
Y8014753D01*
X6038480Y7990800D01*
X6016573Y7990800D01*
X5980465D01*
X5959580Y7994954D01*
X5819200D01*
X5816948Y7994506D01*
X5799047Y7998067D01*
X5781962Y8009483D01*
X5770547Y8026567D01*
X5766986Y8044468D01*
X5767434Y8046720D01*
Y8270240D01*
X5767012Y8272363D01*
X5770396Y8289378D01*
X5781237Y8305603D01*
X5797462Y8316444D01*
X5814477Y8319828D01*
X5816600Y8319406D01*
X5991860D01*
X5996107Y8320251D01*
X6021332Y8322735D01*
X6049671Y8331332D01*
X6075789Y8345292D01*
X6098681Y8364079D01*
X6117468Y8386971D01*
X6131428Y8413089D01*
X6140025Y8441428D01*
X6142509Y8466653D01*
X6143354Y8470900D01*
Y9565640D01*
X6142905Y9567895D01*
X6146040Y9591706D01*
X6156101Y9615996D01*
X6172106Y9636854D01*
X6192964Y9652859D01*
X6217254Y9662920D01*
X6241065Y9666055D01*
X6243320Y9665606D01*
X6758940D01*
X6762087Y9666232D01*
X6792893Y9669266D01*
X6825541Y9679170D01*
X6855630Y9695253D01*
X6882004Y9716896D01*
X6903647Y9743270D01*
X6919730Y9773359D01*
X6929634Y9806007D01*
X6932668Y9836813D01*
X6933294Y9839960D01*
Y11526095D01*
X6948640D01*
Y11681895D01*
D02*
G37*
G36*
X9831654Y9471100D02*
X9807626D01*
X9785426Y9461905D01*
X9768435Y9444914D01*
X9759240Y9422714D01*
Y9398686D01*
X9768435Y9376486D01*
X9785426Y9359495D01*
X9807626Y9350300D01*
X9831654D01*
X9853854Y9359495D01*
X9870845Y9376486D01*
X9880040Y9398686D01*
Y9422714D01*
X9870845Y9444914D01*
X9853854Y9461905D01*
X9831654Y9471100D01*
D02*
G37*
G36*
X6464300Y9508854D02*
X6461277Y9508253D01*
X6429849Y9505157D01*
X6396722Y9495108D01*
X6366191Y9478790D01*
X6339432Y9456828D01*
X6317470Y9430069D01*
X6301152Y9399538D01*
X6291103Y9366411D01*
X6288007Y9334983D01*
X6287406Y9331960D01*
Y7821495D01*
X6282633Y7801727D01*
X6262865Y7796954D01*
X6164580D01*
X6143695Y7792800D01*
X6085680D01*
Y7681000D01*
X6143695D01*
X6164580Y7676846D01*
X6281480D01*
X6282617Y7677072D01*
X6314080Y7681214D01*
X6344459Y7693797D01*
X6370545Y7713815D01*
X6390563Y7739901D01*
X6403146Y7770280D01*
X6407288Y7801743D01*
X6407514Y7802880D01*
Y9331960D01*
X6407017Y9334459D01*
X6410918Y9354071D01*
X6423443Y9372817D01*
X6442189Y9385342D01*
X6461801Y9389243D01*
X6464300Y9388746D01*
X6467049Y9389293D01*
X6488393Y9385047D01*
X6508819Y9371399D01*
X6517765Y9358010D01*
X6512819Y9332610D01*
X6512820D01*
Y9188310D01*
X6659619D01*
Y9332610D01*
X6645430D01*
X6642503Y9362327D01*
X6632164Y9396412D01*
X6615374Y9427825D01*
X6592778Y9455358D01*
X6565244Y9477954D01*
X6533831Y9494745D01*
X6499747Y9505084D01*
X6467077Y9508302D01*
X6464300Y9508854D01*
D02*
G37*
G36*
X9717192Y9217697D02*
X9690440D01*
X9664600Y9210773D01*
X9641432Y9197397D01*
X9622516Y9178480D01*
X9609140Y9155313D01*
X9602216Y9129472D01*
Y9102721D01*
X9609140Y9076880D01*
X9622516Y9053713D01*
X9641432Y9034796D01*
X9664600Y9021420D01*
X9690440Y9014497D01*
X9717192D01*
X9743032Y9021420D01*
X9766200Y9034796D01*
X9785116Y9053713D01*
X9798492Y9076880D01*
X9805416Y9102721D01*
Y9129472D01*
X9798492Y9155313D01*
X9785116Y9178480D01*
X9766200Y9197397D01*
X9743032Y9210773D01*
X9717192Y9217697D01*
D02*
G37*
G36*
X9538376Y9050020D02*
X9511624D01*
X9485784Y9043096D01*
X9462616Y9029720D01*
X9443700Y9010804D01*
X9430324Y8987636D01*
X9423400Y8961796D01*
Y8935044D01*
X9430324Y8909204D01*
X9443700Y8886036D01*
X9462616Y8867120D01*
X9485784Y8853744D01*
X9511624Y8846820D01*
X9538376D01*
X9564216Y8853744D01*
X9587384Y8867120D01*
X9606300Y8886036D01*
X9619676Y8909204D01*
X9626600Y8935044D01*
Y8961796D01*
X9619676Y8987636D01*
X9606300Y9010804D01*
X9587384Y9029720D01*
X9564216Y9043096D01*
X9538376Y9050020D01*
D02*
G37*
G36*
X6659620Y8680210D02*
X6512820D01*
Y8535910D01*
X6659620D01*
Y8680210D01*
D02*
G37*
G36*
X7167620D02*
X7020820D01*
Y8535910D01*
X7036706D01*
Y8470900D01*
X7036904Y8469902D01*
X7035070Y8460681D01*
X7029282Y8452018D01*
X7020619Y8446230D01*
X7011398Y8444396D01*
X7010400Y8444594D01*
X6979920D01*
X6976161Y8443846D01*
X6948457Y8441118D01*
X6918202Y8431940D01*
X6890319Y8417037D01*
X6865880Y8396980D01*
X6845823Y8372541D01*
X6830920Y8344658D01*
X6821742Y8314403D01*
X6819014Y8286699D01*
X6818266Y8282940D01*
Y7970621D01*
X6793647Y7956408D01*
X6767972Y7930733D01*
X6749818Y7899287D01*
X6740420Y7864215D01*
Y7827905D01*
X6749818Y7792833D01*
X6767972Y7761387D01*
X6793647Y7735712D01*
X6825093Y7717558D01*
X6860165Y7708160D01*
X6896475D01*
X6931547Y7717558D01*
X6962993Y7735712D01*
X6988668Y7761387D01*
X7006822Y7792833D01*
X7016220Y7827905D01*
Y7864215D01*
X7006822Y7899287D01*
X6988668Y7930733D01*
X6962993Y7956408D01*
X6938374Y7970621D01*
Y8282940D01*
X6938026Y8284689D01*
X6940894Y8299105D01*
X6950051Y8312809D01*
X6963755Y8321966D01*
X6978171Y8324834D01*
X6979920Y8324486D01*
X7010400D01*
Y8324386D01*
X7048320Y8329379D01*
X7083657Y8344016D01*
X7114001Y8367299D01*
X7137284Y8397643D01*
X7151921Y8432980D01*
X7156914Y8470900D01*
X7156814D01*
Y8535910D01*
X7167620D01*
Y8680210D01*
D02*
G37*
G36*
X7211349Y9578380D02*
X7208339Y9577781D01*
X7176841Y9574679D01*
X7143660Y9564614D01*
X7113079Y9548268D01*
X7086275Y9526271D01*
X7064278Y9499467D01*
X7047932Y9468886D01*
X7037867Y9435705D01*
X7034764Y9404207D01*
X7034166Y9401197D01*
Y9332610D01*
X7020820D01*
Y9188310D01*
X7167620D01*
Y9332610D01*
X7154274D01*
Y9401197D01*
X7153774Y9403710D01*
X7157695Y9423421D01*
X7170284Y9442262D01*
X7189125Y9454851D01*
X7208836Y9458772D01*
X7211349Y9458272D01*
X7213834Y9458766D01*
X7233348Y9454885D01*
X7251997Y9442424D01*
X7264459Y9423774D01*
X7268340Y9404260D01*
X7267846Y9401775D01*
Y8658860D01*
X7267790D01*
X7272608Y8622266D01*
X7286733Y8588165D01*
X7309203Y8558883D01*
X7338485Y8536413D01*
X7372586Y8522288D01*
X7409180Y8517470D01*
Y8517526D01*
X7584440D01*
X7585685Y8517774D01*
X7596618Y8515599D01*
X7606941Y8508701D01*
X7613839Y8498377D01*
X7616014Y8487445D01*
X7615766Y8486200D01*
Y7984120D01*
X7619920Y7963235D01*
Y7905220D01*
X7731720D01*
Y7963235D01*
X7735874Y7984120D01*
Y8486200D01*
X7735029Y8490449D01*
X7732546Y8515660D01*
X7723953Y8543988D01*
X7709998Y8570095D01*
X7691218Y8592978D01*
X7668335Y8611758D01*
X7642228Y8625712D01*
X7613900Y8634306D01*
X7588689Y8636789D01*
X7584440Y8637634D01*
X7409180D01*
X7396983Y8646663D01*
X7387954Y8658860D01*
Y9401775D01*
X7387350Y9404813D01*
X7384261Y9436170D01*
X7374229Y9469242D01*
X7357937Y9499722D01*
X7336012Y9526438D01*
X7309296Y9548363D01*
X7278816Y9564655D01*
X7245744Y9574687D01*
X7214387Y9577776D01*
X7211349Y9578380D01*
D02*
G37*
G36*
X7497886Y8269836D02*
X7345874D01*
Y8113164D01*
X7405893D01*
Y8105140D01*
X7408851Y8090274D01*
X7412295Y8085120D01*
X7421920Y8063019D01*
X7421920Y8063020D01*
X7421920Y8063019D01*
Y7905220D01*
X7533720D01*
Y8063020D01*
X7516666D01*
Y8072060D01*
X7513709Y8086926D01*
X7509841Y8092716D01*
X7497886Y8113165D01*
Y8269836D01*
D02*
G37*
G36*
X8514045Y8267001D02*
X8476598Y8263313D01*
X8440590Y8252390D01*
X8407405Y8234652D01*
X8378318Y8210781D01*
X8354447Y8181694D01*
X8336709Y8148509D01*
X8325786Y8112501D01*
X8322098Y8075054D01*
X8322346Y8072540D01*
X8321946Y8070525D01*
X8321946Y8069494D01*
X8321947Y7612489D01*
X8322395Y7610234D01*
X8319260Y7586423D01*
X8309199Y7562134D01*
X8293194Y7541276D01*
X8272336Y7525271D01*
X8248046Y7515210D01*
X8224236Y7512075D01*
X8221981Y7512523D01*
X7825741D01*
X7823749Y7512127D01*
X7802311Y7514950D01*
X7780478Y7523993D01*
X7761730Y7538379D01*
X7747344Y7557127D01*
X7738301Y7578960D01*
X7735478Y7600398D01*
X7735875Y7602389D01*
Y7779120D01*
X7731720Y7800007D01*
Y7858020D01*
X7619920D01*
Y7800002D01*
X7615767Y7779120D01*
Y7602389D01*
X7616051Y7600960D01*
X7619942Y7561454D01*
X7631882Y7522091D01*
X7651273Y7485814D01*
X7677368Y7454017D01*
X7709165Y7427922D01*
X7745442Y7408531D01*
X7784805Y7396591D01*
X7824312Y7392700D01*
X7825741Y7392415D01*
X8221981D01*
X8222924Y7392603D01*
X8264896Y7396737D01*
X8306163Y7409255D01*
X8344194Y7429583D01*
X8377529Y7456941D01*
X8404887Y7490276D01*
X8425215Y7528307D01*
X8437733Y7569574D01*
X8441867Y7611546D01*
X8442054Y7612489D01*
X8442054Y8069509D01*
X8442053Y8069519D01*
X8442054Y8069524D01*
X8442053Y8070539D01*
X8442054Y8070540D01*
X8442053Y8070542D01*
Y8070555D01*
X8442049Y8070576D01*
X8441797Y8072584D01*
X8441797Y8072585D01*
X8441472Y8075054D01*
X8443945Y8093837D01*
X8451195Y8111341D01*
X8462728Y8126371D01*
X8477759Y8137904D01*
X8495262Y8145154D01*
X8514045Y8147627D01*
X8532828Y8145154D01*
X8550331Y8137904D01*
X8565362Y8126371D01*
X8576895Y8111341D01*
X8582590Y8097592D01*
X8586108Y8073810D01*
X8586108Y8073807D01*
X8586111Y8073789D01*
X8586125Y8073697D01*
X8586107Y8073540D01*
X8586106Y8073537D01*
X8586114Y8073500D01*
X8586106Y8073425D01*
X8586107Y8073289D01*
Y7676821D01*
X8586482Y7674935D01*
X8590134Y7637851D01*
X8601490Y7600414D01*
X8619932Y7565913D01*
X8644750Y7535672D01*
X8674990Y7510854D01*
X8709492Y7492413D01*
X8746928Y7481056D01*
X8785861Y7477222D01*
X8824793Y7481056D01*
X8862229Y7492413D01*
X8896731Y7510854D01*
X8926971Y7535672D01*
X8951789Y7565913D01*
X8970231Y7600414D01*
X8981587Y7637851D01*
X8985276Y7675305D01*
X8985614Y7677006D01*
X8985614Y8023456D01*
X8985326Y8024905D01*
X8987781Y8037244D01*
X8995591Y8048932D01*
X9007280Y8056743D01*
X9019618Y8059197D01*
X9021067Y8058909D01*
X9023116Y8059316D01*
X9039610Y8056035D01*
X9055330Y8045532D01*
X9065833Y8029812D01*
X9069114Y8013318D01*
X9068707Y8011269D01*
Y7965549D01*
X9069296Y7962587D01*
X9072422Y7930851D01*
X9082542Y7897487D01*
X9098978Y7866738D01*
X9121097Y7839786D01*
X9148049Y7817667D01*
X9178798Y7801231D01*
X9212162Y7791110D01*
X9243898Y7787985D01*
X9246861Y7787395D01*
X10334835D01*
Y7770660D01*
X10490635D01*
Y7921460D01*
X10334835D01*
Y7907503D01*
X9246861D01*
X9244300Y7906994D01*
X9224257Y7910981D01*
X9205095Y7923784D01*
X9192292Y7942946D01*
X9188305Y7962989D01*
X9188814Y7965549D01*
Y8011269D01*
X9188126Y8014733D01*
X9185250Y8043928D01*
X9175724Y8075331D01*
X9160255Y8104272D01*
X9139437Y8129639D01*
X9114069Y8150457D01*
X9085128Y8165927D01*
X9053725Y8175452D01*
X9024530Y8178328D01*
X9021067Y8179017D01*
X9017015Y8178211D01*
X8990798Y8175629D01*
X8961693Y8166799D01*
X8934868Y8152462D01*
X8911357Y8133166D01*
X8892061Y8109655D01*
X8877724Y8082831D01*
X8868895Y8053725D01*
X8866312Y8027508D01*
X8865507Y8023456D01*
X8865506Y7702303D01*
X8865506Y7677006D01*
X8865525Y7676910D01*
X8862068Y7652942D01*
X8855330Y7636675D01*
X8842582Y7620061D01*
X8825969Y7607314D01*
X8806622Y7599300D01*
X8785861Y7596567D01*
X8765099Y7599300D01*
X8745752Y7607314D01*
X8729139Y7620061D01*
X8716391Y7636675D01*
X8708378Y7656022D01*
X8705868Y7675081D01*
X8706214Y7676821D01*
Y8073401D01*
X8706203Y8073457D01*
X8706214Y8073513D01*
X8706214Y8073649D01*
X8706199Y8073725D01*
X8706216Y8073807D01*
X8705984Y8074973D01*
X8705992Y8075054D01*
X8702304Y8112501D01*
X8691381Y8148509D01*
X8673643Y8181694D01*
X8649772Y8210781D01*
X8620685Y8234652D01*
X8587500Y8252390D01*
X8551492Y8263313D01*
X8514045Y8267001D01*
D02*
G37*
G36*
X3969948Y8142408D02*
X3932671Y8137500D01*
X3897935Y8123112D01*
X3868107Y8100224D01*
X3845219Y8070395D01*
X3830831Y8035659D01*
X3825923Y7998383D01*
X3826291Y7995592D01*
X3826088Y7994573D01*
X3826395Y7993027D01*
X3826146Y7991774D01*
Y7767320D01*
X3826344Y7766322D01*
X3824510Y7757101D01*
X3818722Y7748438D01*
X3810059Y7742650D01*
X3801275Y7740902D01*
X3790317Y7748063D01*
X3787643Y7750043D01*
X3778614Y7762240D01*
Y7973060D01*
X3778724D01*
X3773688Y8011312D01*
X3758924Y8046957D01*
X3735437Y8077567D01*
X3704827Y8101054D01*
X3669182Y8115818D01*
X3630930Y8120854D01*
Y8120811D01*
X3594004Y8115949D01*
X3559595Y8101696D01*
X3530047Y8079023D01*
X3507374Y8049475D01*
X3493121Y8015066D01*
X3488259Y7978140D01*
X3488326D01*
Y7930726D01*
X3485303Y7909137D01*
X3463714Y7906114D01*
X3406565D01*
Y7921460D01*
X3250765D01*
Y7770660D01*
X3406565D01*
Y7786006D01*
X3484880D01*
X3486334Y7786295D01*
X3516833Y7790311D01*
X3546608Y7802644D01*
X3572177Y7822263D01*
X3591796Y7847832D01*
X3604129Y7877607D01*
X3608145Y7908106D01*
X3608434Y7909560D01*
Y7978140D01*
X3617541Y7991529D01*
X3625931Y7997235D01*
X3652325Y7990466D01*
X3656797Y7983774D01*
X3658717Y7974120D01*
X3658506Y7973060D01*
Y7762240D01*
X3658450D01*
X3663268Y7725646D01*
X3677393Y7691545D01*
X3699863Y7662263D01*
X3729145Y7639793D01*
X3763246Y7625668D01*
X3799840Y7620850D01*
Y7620806D01*
X3837760Y7625799D01*
X3873097Y7640436D01*
X3903441Y7663719D01*
X3926724Y7694063D01*
X3941361Y7729400D01*
X3946354Y7767320D01*
X3946254D01*
Y7991773D01*
X3946254Y7991774D01*
X3946254Y7991774D01*
X3952300Y8014671D01*
X3952845Y8015486D01*
X3960692Y8020729D01*
X3969948Y8022570D01*
X3979204Y8020729D01*
X3987050Y8015486D01*
X3992294Y8007639D01*
X3993960Y7999260D01*
X3993786Y7998383D01*
Y7781688D01*
X3994545Y7777874D01*
X3997170Y7751215D01*
X4005986Y7722154D01*
X4020301Y7695372D01*
X4039567Y7671897D01*
X4063042Y7652631D01*
X4089824Y7638316D01*
X4118885Y7629500D01*
X4149107Y7626523D01*
X4179329Y7629500D01*
X4208390Y7638316D01*
X4235173Y7652631D01*
X4258648Y7671897D01*
X4277913Y7695372D01*
X4292229Y7722154D01*
X4301044Y7751215D01*
X4302864Y7769696D01*
X4303783Y7774313D01*
X4303783Y7774313D01*
X4304328Y7777054D01*
X4304328Y7777056D01*
X4304394Y7780029D01*
X4304395Y7780035D01*
X4304394Y7780036D01*
X4304394Y7799461D01*
Y7978202D01*
X4304394Y7978203D01*
X4304394Y7978203D01*
X4310532Y8001061D01*
X4313186Y8005034D01*
X4323539Y8011951D01*
X4335751Y8014380D01*
X4347963Y8011951D01*
X4358316Y8005034D01*
X4358793Y8004320D01*
X4367192Y7982400D01*
X4367166Y7982270D01*
X4367173Y7982234D01*
X4367166Y7982172D01*
X4367166Y7982019D01*
X4367166Y7982015D01*
X4367166Y7957005D01*
Y7775986D01*
X4367837Y7772613D01*
X4370679Y7743759D01*
X4380003Y7713021D01*
X4395145Y7684692D01*
X4415523Y7659862D01*
X4440353Y7639484D01*
X4468681Y7624342D01*
X4499419Y7615018D01*
X4531386Y7611870D01*
X4563353Y7615018D01*
X4594091Y7624342D01*
X4622420Y7639484D01*
X4647250Y7659862D01*
X4667627Y7684692D01*
X4682769Y7713021D01*
X4692093Y7743759D01*
X4695242Y7775725D01*
X4695163Y7776526D01*
X4695568Y7778563D01*
X4695455Y7779132D01*
X4695554Y7779625D01*
X4695554Y7779927D01*
X4695549Y7779952D01*
X4695554Y7779978D01*
Y7913935D01*
X4712420Y7924822D01*
X4725306Y7917660D01*
Y7818120D01*
X4725251D01*
X4730066Y7781541D01*
X4744185Y7747455D01*
X4766645Y7718185D01*
X4795915Y7695725D01*
X4830001Y7681606D01*
X4866580Y7676791D01*
Y7676846D01*
X5959580D01*
X5980465Y7681000D01*
X6038480D01*
Y7792800D01*
X5980465D01*
X5959580Y7796954D01*
X4866580D01*
X4865835Y7796806D01*
X4858367Y7798291D01*
X4851404Y7802944D01*
X4846751Y7809907D01*
X4845266Y7817375D01*
X4845414Y7818120D01*
Y7934960D01*
X4845426D01*
X4840783Y7970228D01*
X4827170Y8003093D01*
X4805515Y8031315D01*
X4777293Y8052970D01*
X4744428Y8066583D01*
X4709160Y8071226D01*
Y8071214D01*
X4709009Y8071184D01*
X4674555Y8066648D01*
X4642308Y8053291D01*
X4614617Y8032043D01*
X4593369Y8004352D01*
X4580012Y7972105D01*
X4575476Y7937651D01*
X4575446Y7937500D01*
Y7804771D01*
X4575446Y7780028D01*
X4575446Y7780025D01*
X4575446Y7779726D01*
X4575446Y7779722D01*
X4575449Y7779693D01*
X4575446Y7779676D01*
X4575446Y7779673D01*
X4575485Y7779328D01*
X4571041Y7755882D01*
X4563106Y7744006D01*
X4548553Y7734281D01*
X4531386Y7730867D01*
X4514220Y7734281D01*
X4499666Y7744006D01*
X4489942Y7758559D01*
X4486875Y7773980D01*
X4487274Y7775986D01*
Y7982113D01*
X4487264Y7982161D01*
X4487274Y7982210D01*
X4487274Y7982367D01*
X4486456Y7986443D01*
X4483944Y8011946D01*
X4475346Y8040291D01*
X4461383Y8066413D01*
X4442592Y8089310D01*
X4419696Y8108101D01*
X4393573Y8122063D01*
X4365229Y8130662D01*
X4335751Y8133565D01*
X4306274Y8130662D01*
X4277929Y8122063D01*
X4251807Y8108101D01*
X4228910Y8089310D01*
X4210119Y8066413D01*
X4196157Y8040291D01*
X4187558Y8011946D01*
X4184655Y7982469D01*
X4184709Y7981926D01*
X4184269Y7979716D01*
X4184428Y7978917D01*
X4184286Y7978203D01*
Y7780035D01*
X4184450Y7779212D01*
X4182168Y7767743D01*
X4174411Y7756133D01*
X4162802Y7748376D01*
X4149107Y7745652D01*
X4135413Y7748376D01*
X4123804Y7756133D01*
X4116046Y7767743D01*
X4113583Y7780125D01*
X4113894Y7781688D01*
Y7998383D01*
X4113972D01*
X4109065Y8035659D01*
X4094677Y8070395D01*
X4071788Y8100224D01*
X4041960Y8123112D01*
X4007224Y8137500D01*
X3969948Y8142408D01*
D02*
G37*
G36*
X7533720Y7858020D02*
X7421920D01*
Y7800005D01*
X7417766Y7779120D01*
Y7409861D01*
X7418033Y7408517D01*
X7415978Y7392900D01*
X7409431Y7377095D01*
X7399017Y7363523D01*
X7385445Y7353109D01*
X7369640Y7346562D01*
X7354023Y7344507D01*
X7352679Y7344774D01*
X7024557D01*
X7023072Y7344479D01*
X6983845Y7340615D01*
X6944698Y7328740D01*
X6908619Y7309456D01*
X6876997Y7283503D01*
X6851044Y7251881D01*
X6831760Y7215802D01*
X6819885Y7176655D01*
X6816021Y7137428D01*
X6815726Y7135943D01*
Y6998534D01*
X6815978Y6997264D01*
X6819949Y6956948D01*
X6832079Y6916961D01*
X6851778Y6880108D01*
X6878287Y6847807D01*
X6910588Y6821298D01*
X6947441Y6801599D01*
X6987428Y6789469D01*
X7027744Y6785498D01*
X7029014Y6785246D01*
X7217669D01*
X7219390Y6785588D01*
X7238390Y6783087D01*
X7257699Y6775089D01*
X7274281Y6762365D01*
X7287004Y6745784D01*
X7295002Y6726475D01*
X7297504Y6707475D01*
X7297161Y6705753D01*
X7297518Y6703958D01*
X7294929Y6684289D01*
X7286644Y6664287D01*
X7273464Y6647111D01*
X7256288Y6633932D01*
X7236286Y6625646D01*
X7216617Y6623057D01*
X7214822Y6623414D01*
X7020961D01*
X7019304Y6623085D01*
X6980954Y6619307D01*
X6942484Y6607638D01*
X6907031Y6588687D01*
X6875956Y6563184D01*
X6850453Y6532109D01*
X6831502Y6496656D01*
X6819833Y6458186D01*
X6816055Y6419836D01*
X6815726Y6418179D01*
Y4219465D01*
X6800380D01*
Y4063665D01*
X6951180D01*
Y4219465D01*
X6935834D01*
Y6418179D01*
X6935462Y6420047D01*
X6938138Y6440371D01*
X6946704Y6461051D01*
X6960331Y6478809D01*
X6978089Y6492436D01*
X6998769Y6501002D01*
X7019093Y6503678D01*
X7020961Y6503306D01*
X7214822D01*
X7216613Y6503662D01*
X7254282Y6507372D01*
X7292226Y6518883D01*
X7327196Y6537574D01*
X7357847Y6562729D01*
X7383001Y6593379D01*
X7401693Y6628349D01*
X7413203Y6666293D01*
X7416913Y6703962D01*
X7417269Y6705753D01*
X7416885Y6707683D01*
X7413244Y6744656D01*
X7401896Y6782063D01*
X7383469Y6816538D01*
X7358670Y6846755D01*
X7328453Y6871554D01*
X7293978Y6889981D01*
X7256571Y6901329D01*
X7219598Y6904970D01*
X7217669Y6905354D01*
X7029014D01*
X7026936Y6904940D01*
X7004720Y6907865D01*
X6982081Y6917243D01*
X6962640Y6932160D01*
X6947723Y6951601D01*
X6938345Y6974240D01*
X6935420Y6996456D01*
X6935834Y6998534D01*
Y7135943D01*
X6935444Y7137905D01*
X6938231Y7159074D01*
X6947159Y7180629D01*
X6961362Y7199138D01*
X6979871Y7213341D01*
X7001426Y7222269D01*
X7022595Y7225056D01*
X7024557Y7224666D01*
X7352679D01*
X7355302Y7225188D01*
X7388757Y7228483D01*
X7423449Y7239007D01*
X7455421Y7256096D01*
X7483445Y7279095D01*
X7506444Y7307119D01*
X7523533Y7339091D01*
X7534057Y7373783D01*
X7537352Y7407238D01*
X7537874Y7409861D01*
Y7779120D01*
X7533720Y7800005D01*
Y7858020D01*
D02*
G37*
G36*
X4218600Y6847804D02*
X4191848D01*
X4166008Y6840880D01*
X4142840Y6827504D01*
X4123924Y6808588D01*
X4110548Y6785420D01*
X4103624Y6759580D01*
Y6732828D01*
X4110548Y6706987D01*
X4123924Y6683820D01*
X4142840Y6664903D01*
X4166008Y6651527D01*
X4191848Y6644604D01*
X4218600D01*
X4244440Y6651527D01*
X4267608Y6664903D01*
X4286524Y6683820D01*
X4299900Y6706987D01*
X4306824Y6732828D01*
Y6759580D01*
X4299900Y6785420D01*
X4286524Y6808588D01*
X4267608Y6827504D01*
X4244440Y6840880D01*
X4218600Y6847804D01*
D02*
G37*
G36*
X4035720Y6670004D02*
X4008968D01*
X3983128Y6663080D01*
X3959960Y6649704D01*
X3941044Y6630788D01*
X3927668Y6607620D01*
X3920744Y6581780D01*
Y6555028D01*
X3927668Y6529187D01*
X3941044Y6506020D01*
X3959960Y6487103D01*
X3983128Y6473727D01*
X4008968Y6466804D01*
X4035720D01*
X4061560Y6473727D01*
X4084728Y6487103D01*
X4103644Y6506020D01*
X4117020Y6529187D01*
X4123944Y6555028D01*
Y6581780D01*
X4117020Y6607620D01*
X4103644Y6630788D01*
X4084728Y6649704D01*
X4061560Y6663080D01*
X4035720Y6670004D01*
D02*
G37*
G36*
X4286834Y6517080D02*
X4262806D01*
X4240606Y6507885D01*
X4223615Y6490894D01*
X4214420Y6468694D01*
Y6444666D01*
X4223615Y6422466D01*
X4240606Y6405475D01*
X4262806Y6396280D01*
X4286834D01*
X4309034Y6405475D01*
X4326025Y6422466D01*
X4335220Y6444666D01*
Y6468694D01*
X4326025Y6490894D01*
X4309034Y6507885D01*
X4286834Y6517080D01*
D02*
G37*
G36*
X8141376Y4533900D02*
X8114624D01*
X8088784Y4526976D01*
X8065616Y4513600D01*
X8046700Y4494684D01*
X8033324Y4471516D01*
X8026400Y4445676D01*
Y4418924D01*
X8033324Y4393084D01*
X8046700Y4369916D01*
X8065616Y4351000D01*
X8088784Y4337624D01*
X8114624Y4330700D01*
X8141376D01*
X8167216Y4337624D01*
X8190384Y4351000D01*
X8209300Y4369916D01*
X8222676Y4393084D01*
X8229600Y4418924D01*
Y4445676D01*
X8222676Y4471516D01*
X8209300Y4494684D01*
X8190384Y4513600D01*
X8167216Y4526976D01*
X8141376Y4533900D01*
D02*
G37*
G36*
X7978816Y4371340D02*
X7952064D01*
X7926224Y4364416D01*
X7903056Y4351040D01*
X7884140Y4332124D01*
X7870764Y4308956D01*
X7863840Y4283116D01*
Y4256364D01*
X7870764Y4230524D01*
X7884140Y4207356D01*
X7903056Y4188440D01*
X7926224Y4175064D01*
X7952064Y4168140D01*
X7978816D01*
X8004656Y4175064D01*
X8027824Y4188440D01*
X8046740Y4207356D01*
X8060116Y4230524D01*
X8067040Y4256364D01*
Y4283116D01*
X8060116Y4308956D01*
X8046740Y4332124D01*
X8027824Y4351040D01*
X8004656Y4364416D01*
X7978816Y4371340D01*
D02*
G37*
G36*
X7903794Y3987240D02*
X7879766D01*
X7857566Y3978045D01*
X7840575Y3961054D01*
X7831380Y3938854D01*
Y3914826D01*
X7840575Y3892626D01*
X7857566Y3875635D01*
X7879766Y3866440D01*
X7903794D01*
X7925994Y3875635D01*
X7942985Y3892626D01*
X7952180Y3914826D01*
Y3938854D01*
X7942985Y3961054D01*
X7925994Y3978045D01*
X7903794Y3987240D01*
D02*
G37*
%LPD*%
D10*
X9128761Y7965549D02*
G03*
X9246861Y7847449I118100J0D01*
G01*
X9128761Y8011269D02*
G03*
X9021067Y8118963I-107693J0D01*
G01*
D02*
G03*
X8925561Y8023456I0J-95507D01*
G01*
X8646162Y8073807D02*
G03*
X8646161Y8073537I66999J-406D01*
G01*
X8646162Y8073807D02*
G03*
X8382000Y8070540I-132117J1247D01*
G01*
X4244340Y7978203D02*
G03*
X4244323Y7979716I-67000J0D01*
G01*
X4244274Y7777054D02*
G03*
X4244340Y7780035I-66934J2980D01*
G01*
X3886200Y7991774D02*
G03*
X3886142Y7994573I-67000J0D01*
G01*
X4635500Y7779676D02*
G03*
X4635514Y7778563I67000J302D01*
G01*
X4427220Y7775986D02*
G03*
X4635514Y7778563I104166J-261D01*
G01*
X4635500Y7779676D02*
G03*
X4635514Y7778563I67000J302D01*
G01*
X3484880Y7846060D02*
G03*
X3548380Y7909560I0J63500D01*
G01*
X3799840Y7680960D02*
G03*
X3886200Y7767320I0J86360D01*
G01*
X3886200Y7991774D02*
G03*
X3886142Y7994573I-67000J0D01*
G01*
X4709160Y8011160D02*
G03*
X4635500Y7937500I0J-73660D01*
G01*
X3718560Y7762240D02*
G03*
X3799840Y7680960I81280J0D01*
G01*
X4244274Y7777054D02*
G03*
X4244340Y7780035I-66934J2980D01*
G01*
X3630930Y8060690D02*
G03*
X3548380Y7978140I0J-82550D01*
G01*
X3718560Y7973060D02*
G03*
X3630930Y8060690I-87630J0D01*
G01*
X4427220Y7982270D02*
G03*
X4244324Y7979716I-91468J199D01*
G01*
X4053840Y7998383D02*
G03*
X3886142Y7994573I-83892J0D01*
G01*
X4053840Y7781688D02*
G03*
X4244274Y7777054I95267J-251D01*
G01*
X4244340Y7978203D02*
G03*
X4244323Y7979716I-67000J0D01*
G01*
X4785360Y7934960D02*
G03*
X4709160Y8011160I-76200J0D01*
G01*
X4785360Y7818120D02*
G03*
X4866580Y7736900I81220J0D01*
G01*
X8646162Y8073807D02*
G03*
X8646161Y8073537I66999J-406D01*
G01*
X8221981Y7452469D02*
G03*
X8382001Y7612489I0J160020D01*
G01*
X7675821Y7602389D02*
G03*
X7825741Y7452469I149920J0D01*
G01*
X8646161Y7676821D02*
G03*
X8925560Y7677006I139700J-38D01*
G01*
X7020961Y6563360D02*
G03*
X6875780Y6418179I0J-145181D01*
G01*
X7357215Y6705753D02*
G03*
X7217669Y6845300I-139547J0D01*
G01*
X7214822Y6563360D02*
G03*
X7357215Y6705753I0J142393D01*
G01*
X6875780Y6998534D02*
G03*
X7029014Y6845300I153234J0D01*
G01*
X7096760Y8605520D02*
G03*
X7094220Y8608060I-2540J0D01*
G01*
X7327900Y8658860D02*
G03*
X7409180Y8577580I81280J0D01*
G01*
X7675820Y8486200D02*
G03*
X7584440Y8577580I-91380J0D01*
G01*
X7211349Y9518326D02*
G03*
X7094220Y9401197I0J-117130D01*
G01*
X7327900Y9401775D02*
G03*
X7211349Y9518326I-116551J0D01*
G01*
X6758940Y9725660D02*
G03*
X6873240Y9839960I0J114300D01*
G01*
X7352679Y7284720D02*
G03*
X7477820Y7409861I0J125141D01*
G01*
X7024557Y7284720D02*
G03*
X6875780Y7135943I0J-148777D01*
G01*
X6243320Y9725660D02*
G03*
X6083300Y9565640I0J-160020D01*
G01*
X5991860Y8379460D02*
G03*
X6083300Y8470900I0J91440D01*
G01*
X5816600Y8379460D02*
G03*
X5707380Y8270240I0J-109220D01*
G01*
Y8046720D02*
G03*
X5819200Y7934900I111820J0D01*
G01*
X6281480Y7736900D02*
G03*
X6347460Y7802880I0J65980D01*
G01*
X6464300Y9448800D02*
G03*
X6347460Y9331960I0J-116840D01*
G01*
X6586219Y9326881D02*
G03*
X6464300Y9448800I-121919J0D01*
G01*
X7096760Y8605520D02*
G03*
X7094220Y8608060I-2540J0D01*
G01*
X6979920Y8384540D02*
G03*
X6878320Y8282940I0J-101600D01*
G01*
X7010400Y8384540D02*
G03*
X7096760Y8470900I0J86360D01*
G01*
X10393735Y7847449D02*
X10408930Y7846060D01*
X7675821Y7602389D02*
Y7779120D01*
X8381999Y8070540D02*
X8382000Y8069509D01*
X8646160Y8073537D02*
X8646161Y8073401D01*
X4427220Y7982270D02*
X4427220Y7982113D01*
X4244323Y7979716D02*
X4244324D01*
X4635500Y7779676D02*
X4635500Y7779978D01*
Y7937500D01*
X4427220Y7775986D02*
Y7982113D01*
X4635500Y7779676D02*
X4635500Y7779978D01*
X4244323Y7979716D02*
X4244324D01*
X3328665Y7846060D02*
X3484880D01*
X3886200Y7767320D02*
Y7991774D01*
X3718560Y7762240D02*
Y7973060D01*
X4053840Y7781688D02*
Y7998383D01*
X4866580Y7736900D02*
X5959580D01*
X4244340Y7780035D02*
Y7978203D01*
X3548380Y7909560D02*
Y7978140D01*
X4427220Y7982270D02*
X4427220Y7982113D01*
X4785360Y7818120D02*
Y7934960D01*
X8646160Y8073537D02*
X8646161Y8073401D01*
X8382000Y8069509D02*
X8382001Y7612489D01*
X8646161Y7676821D02*
Y8073401D01*
X8381999Y8070540D02*
X8382000Y8069509D01*
X9128761Y7965549D02*
Y8011269D01*
X10393735Y7847449D02*
X10408930Y7846060D01*
X8925560Y7677006D02*
X8925561Y8023456D01*
X7825741Y7452469D02*
X8221981D01*
X9246861Y7847449D02*
X10393735D01*
X6875780Y4142940D02*
Y6418179D01*
X7020961Y6563360D02*
X7214822D01*
X7029014Y6845300D02*
X7217669D01*
X6875780Y6998534D02*
Y7135943D01*
X6878320Y7846060D02*
Y8282940D01*
X7409180Y8577580D02*
X7584440D01*
X7675820Y7984120D02*
Y8486200D01*
X7094220Y9260460D02*
Y9401197D01*
X7327900Y8658860D02*
Y9401775D01*
X6164580Y7736900D02*
X6281480D01*
X7024557Y7284720D02*
X7352679D01*
X7477820Y7409861D02*
Y7779120D01*
X6873240Y9839960D02*
Y11602620D01*
X6243320Y9725660D02*
X6758940D01*
X6083300Y8470900D02*
Y9565640D01*
X5816600Y8379460D02*
X5991860D01*
X5707380Y8046720D02*
Y8270240D01*
X5819200Y7934900D02*
X5959580D01*
X6347460Y7802880D02*
Y9331960D01*
X6586219Y9260460D02*
Y9326881D01*
X7096760Y8470900D02*
Y8605520D01*
X6979920Y8384540D02*
X7010400D01*
D11*
X6840220Y9260461D02*
D03*
Y8608060D02*
D03*
X6586219Y9260460D02*
D03*
X7094220D02*
D03*
X7094220Y8608060D02*
D03*
X6586220D02*
D03*
D12*
X5967809Y8156060D02*
D03*
X6143151D02*
D03*
D13*
X7421880Y8366841D02*
D03*
Y8191500D02*
D03*
D14*
X7020740Y11756495D02*
D03*
X6725740D02*
D03*
X6728280Y3989065D02*
D03*
X7023280D02*
D03*
D15*
X6873240Y11908995D02*
D03*
X6875780Y3836565D02*
D03*
Y4141565D02*
D03*
X6873240Y11603995D02*
D03*
D16*
X3176165Y7993560D02*
D03*
Y7698560D02*
D03*
X10565235D02*
D03*
Y7993560D02*
D03*
D17*
X3023665Y7846060D02*
D03*
X10717735D02*
D03*
X10412735D02*
D03*
X3328665D02*
D03*
D18*
X6164580Y7835900D02*
D03*
X5959580D02*
D03*
Y7736900D02*
D03*
Y7934900D02*
D03*
X6164580D02*
D03*
Y7736900D02*
D03*
D19*
X7576820Y7984120D02*
D03*
Y7779120D02*
D03*
X7675820D02*
D03*
X7477820D02*
D03*
Y7984120D02*
D03*
X7675820D02*
D03*
D20*
X7421880Y8191500D02*
X7444740Y8168640D01*
Y8105140D02*
Y8168640D01*
Y8105140D02*
X7477820Y8072060D01*
Y7984120D02*
Y8072060D01*
X6143151Y8081171D02*
Y8156060D01*
X6080820Y8018840D02*
X6143151Y8081171D01*
X6080820Y7949779D02*
Y8018840D01*
Y7949779D02*
X6095699Y7934900D01*
X6164580D01*
D21*
X3314700Y7279640D02*
D03*
X4022344Y6568404D02*
D03*
X3497580Y7457440D02*
D03*
X6471920Y10947400D02*
D03*
X6277864Y10774643D02*
D03*
X10411460Y8404860D02*
D03*
X10232644Y8237183D02*
D03*
X7420356Y5143536D02*
D03*
X7257796Y4980977D02*
D03*
X4205224Y6746204D02*
D03*
X8128000Y4432300D02*
D03*
X7965440Y4269740D02*
D03*
X9525000Y8948420D02*
D03*
X9703816Y9116097D02*
D03*
X5570220Y11485880D02*
D03*
X5764276Y11658637D02*
D03*
D22*
X10875280Y3578860D02*
D03*
D23*
X7132320Y8100060D02*
D03*
X6624320D02*
D03*
Y7592060D02*
D03*
X7132320D02*
D03*
D24*
X6878320Y7846060D02*
D03*
D25*
X5481429Y7637183D02*
D03*
X5961429Y7637426D02*
D03*
X5474278Y7836617D02*
D03*
X3383993Y7730872D02*
D03*
X3978505Y8181788D02*
D03*
X4869693Y8005378D02*
D03*
X4445206Y8138638D02*
D03*
X4347714Y7688089D02*
D03*
X4517091Y8042552D02*
D03*
X4526937Y7802957D02*
D03*
X5361429Y7637183D02*
D03*
X3790139Y7581620D02*
D03*
X4881429Y7637183D02*
D03*
X3533244Y8131955D02*
D03*
X4787059Y8092394D02*
D03*
X5721430Y7637183D02*
D03*
X4330386Y8173516D02*
D03*
X4885077Y7886368D02*
D03*
X4994278Y7836617D02*
D03*
X3502771Y7747952D02*
D03*
X5121429Y7637183D02*
D03*
X5601429D02*
D03*
X5834278Y7836617D02*
D03*
X4135389Y7587238D02*
D03*
X3905497Y7614676D02*
D03*
X4217763Y8132090D02*
D03*
X5114278Y7836617D02*
D03*
X5841430Y7637183D02*
D03*
X4765560Y7668396D02*
D03*
X3459014Y8037669D02*
D03*
X3759468Y8109228D02*
D03*
X4428755Y7599588D02*
D03*
X5354278Y7836617D02*
D03*
X5594278D02*
D03*
X5234278D02*
D03*
X4657458Y7616301D02*
D03*
X4149906Y8033118D02*
D03*
X5241429Y7637183D02*
D03*
X4667789Y8105605D02*
D03*
X3366188Y7961621D02*
D03*
X4251944Y7615783D02*
D03*
X4089833Y8136999D02*
D03*
X3210604Y7839567D02*
D03*
X5001429Y7637183D02*
D03*
X4545687Y7572627D02*
D03*
X4526937Y7922957D02*
D03*
X3650197Y8158825D02*
D03*
X3621815Y7732831D02*
D03*
X4024189Y7632344D02*
D03*
X3679242Y7627464D02*
D03*
X11100001Y11400001D02*
D03*
X10800001Y10800001D02*
D03*
X11100001Y10200001D02*
D03*
X10800001Y9600001D02*
D03*
X11100001Y9000001D02*
D03*
X10800001Y8400001D02*
D03*
X11100001Y7800001D02*
D03*
X10800001Y7200001D02*
D03*
X11100001Y6600001D02*
D03*
X10800001Y6000001D02*
D03*
X11100001Y5400001D02*
D03*
X10800001Y4800001D02*
D03*
X11100001Y4200000D02*
D03*
X10200001Y12000001D02*
D03*
X10500001Y11400001D02*
D03*
X10200001Y10800001D02*
D03*
X10500001Y10200001D02*
D03*
X10200001Y9600001D02*
D03*
X10500001Y9000001D02*
D03*
X10200001Y7200001D02*
D03*
X10500001Y6600001D02*
D03*
X10200001Y6000001D02*
D03*
X10500001Y5400001D02*
D03*
X10200001Y4800001D02*
D03*
X10500001Y4200000D02*
D03*
X10200001Y3600000D02*
D03*
X9600001Y8400001D02*
D03*
Y7200001D02*
D03*
X9900001Y6600001D02*
D03*
X9600001Y6000001D02*
D03*
X9900001Y5400001D02*
D03*
X9600001Y4800001D02*
D03*
X9900001Y4200000D02*
D03*
X9600001Y3600000D02*
D03*
X9000001Y12000001D02*
D03*
X9300001Y11400001D02*
D03*
X9000001Y10800001D02*
D03*
X9300001Y10200001D02*
D03*
X9000001Y9600001D02*
D03*
Y7200001D02*
D03*
X9300001Y6600001D02*
D03*
X9000001Y6000001D02*
D03*
X9300001Y5400001D02*
D03*
X9000001Y4800001D02*
D03*
X9300001Y4200000D02*
D03*
X8400001Y12000001D02*
D03*
X8700001Y11400001D02*
D03*
X8400001Y10800001D02*
D03*
X8700001Y10200001D02*
D03*
X8400001Y9600001D02*
D03*
X8700001Y9000001D02*
D03*
Y6600001D02*
D03*
X8400001Y6000001D02*
D03*
X8700001Y5400001D02*
D03*
X8400001Y4800001D02*
D03*
X7800001Y12000001D02*
D03*
X8100001Y11400001D02*
D03*
X7800001Y10800001D02*
D03*
X8100001Y10200001D02*
D03*
X7800001Y9600001D02*
D03*
X8100001Y9000001D02*
D03*
Y6600001D02*
D03*
X7800001Y6000001D02*
D03*
X8100001Y5400001D02*
D03*
X7800001Y4800001D02*
D03*
X7500001Y11400001D02*
D03*
Y10200001D02*
D03*
Y4200000D02*
D03*
X6300001Y11400001D02*
D03*
Y10200001D02*
D03*
X6000001Y7200001D02*
D03*
X6300001Y6600001D02*
D03*
X6000001Y6000001D02*
D03*
X6300001Y5400001D02*
D03*
X6000001Y4800001D02*
D03*
X6300001Y4200000D02*
D03*
X5400001Y10800001D02*
D03*
X5700001Y10200001D02*
D03*
X5400001Y9600001D02*
D03*
X5700001Y9000001D02*
D03*
X5400001Y7200001D02*
D03*
X5700001Y6600001D02*
D03*
X5400001Y6000001D02*
D03*
X5700001Y5400001D02*
D03*
X5400001Y4800001D02*
D03*
X5700001Y4200000D02*
D03*
X4800001Y10800001D02*
D03*
X5100000Y10200001D02*
D03*
X4800001Y9600001D02*
D03*
X5100000Y9000001D02*
D03*
X4800001Y8400001D02*
D03*
Y7200001D02*
D03*
X5100000Y6600001D02*
D03*
X4800001Y6000001D02*
D03*
X5100000Y5400001D02*
D03*
X4800001Y4800001D02*
D03*
X5100000Y4200000D02*
D03*
X4500000Y11400001D02*
D03*
X4200000Y10800001D02*
D03*
X4500000Y10200001D02*
D03*
X4200000Y9600001D02*
D03*
X4500000Y9000001D02*
D03*
X4200000Y7200001D02*
D03*
Y3600000D02*
D03*
X3900000Y11400001D02*
D03*
X3600000Y10800001D02*
D03*
X3900000Y10200001D02*
D03*
X3600000Y9600001D02*
D03*
X3900000Y9000001D02*
D03*
X3600000Y6000001D02*
D03*
X3900000Y5400001D02*
D03*
X3600000Y4800001D02*
D03*
X3900000Y4200000D02*
D03*
X3600000Y3600000D02*
D03*
X3300000Y11400001D02*
D03*
X3000000Y10800001D02*
D03*
X3300000Y10200001D02*
D03*
X3000000Y9600001D02*
D03*
X3300000Y9000001D02*
D03*
X3000000Y8400001D02*
D03*
Y7200001D02*
D03*
X3300000Y6600001D02*
D03*
X3000000Y6000001D02*
D03*
X3300000Y5400001D02*
D03*
X3000000Y4800001D02*
D03*
X3300000Y4200000D02*
D03*
X8370937Y8256677D02*
D03*
X8298885Y8160715D02*
D03*
X8282283Y8041869D02*
D03*
Y7921869D02*
D03*
X8282283Y7801869D02*
D03*
X8282283Y7681869D02*
D03*
X8257447Y7564467D02*
D03*
X8138077Y7552187D02*
D03*
X8018077D02*
D03*
X7898077D02*
D03*
X7781343Y7579991D02*
D03*
X7775538Y7699850D02*
D03*
X7771881Y7819795D02*
D03*
X7692376Y7391370D02*
D03*
X7806443Y7354105D02*
D03*
X7926435Y7352752D02*
D03*
X8046435D02*
D03*
X8166435D02*
D03*
X8286137Y7361212D02*
D03*
X8392316Y7417122D02*
D03*
X8462345Y7514569D02*
D03*
X8525364Y8104776D02*
D03*
X8546443Y7986642D02*
D03*
Y7866642D02*
D03*
Y7746642D02*
D03*
X8551938Y7626768D02*
D03*
X8605969Y7519620D02*
D03*
X8704976Y7451814D02*
D03*
X8824458Y7440668D02*
D03*
X8934058Y7489534D02*
D03*
X9006655Y7585083D02*
D03*
X9025277Y7703629D02*
D03*
X9030820Y7943501D02*
D03*
X9075445Y7832107D02*
D03*
X9172284Y7761239D02*
D03*
X9291521Y7747732D02*
D03*
X9411521D02*
D03*
X9531521D02*
D03*
X9651521D02*
D03*
X9771521D02*
D03*
X9891521D02*
D03*
X10011522D02*
D03*
X10131522D02*
D03*
X10251522D02*
D03*
X10370278Y7730499D02*
D03*
X10530796Y7848932D02*
D03*
X10363092Y7961621D02*
D03*
X10243965Y7947166D02*
D03*
X10123965D02*
D03*
X10003965D02*
D03*
X9883965D02*
D03*
X9763965D02*
D03*
X9643965D02*
D03*
X9523965D02*
D03*
X9403965D02*
D03*
X9283965D02*
D03*
X9224335Y8051302D02*
D03*
X9168264Y8157397D02*
D03*
X9062633Y8214335D02*
D03*
X8943285Y8201836D02*
D03*
X8853067Y8122711D02*
D03*
X8746250Y7676035D02*
D03*
X8745878Y7796035D02*
D03*
Y7916035D02*
D03*
Y8036035D02*
D03*
X8731334Y8155150D02*
D03*
X8661742Y8252910D02*
D03*
X8552939Y8303525D02*
D03*
X6255456Y7637183D02*
D03*
X6135512Y7640839D02*
D03*
X6372297Y7664537D02*
D03*
X6441795Y7762364D02*
D03*
X5742887Y7850074D02*
D03*
X6972957Y11489776D02*
D03*
Y11369776D02*
D03*
Y11249776D02*
D03*
Y11129776D02*
D03*
Y11009776D02*
D03*
Y10889776D02*
D03*
Y10769776D02*
D03*
Y10649775D02*
D03*
Y10529775D02*
D03*
Y10409775D02*
D03*
Y10289775D02*
D03*
Y10169775D02*
D03*
Y10049775D02*
D03*
Y9929775D02*
D03*
X6970363Y9809803D02*
D03*
X6920592Y9700611D02*
D03*
X6819816Y9635465D02*
D03*
X6700194Y9625943D02*
D03*
X6580194D02*
D03*
X6460194D02*
D03*
X6340194D02*
D03*
X6220308Y9620715D02*
D03*
X6183017Y9506657D02*
D03*
Y9386657D02*
D03*
Y9266657D02*
D03*
Y9146657D02*
D03*
Y9026657D02*
D03*
Y8906657D02*
D03*
Y8786657D02*
D03*
Y8666657D02*
D03*
Y8546657D02*
D03*
X6177792Y8426770D02*
D03*
X6114453Y8324848D02*
D03*
X6003056Y8280229D02*
D03*
X5883057Y8279743D02*
D03*
X5807097Y8186845D02*
D03*
Y8066845D02*
D03*
X5922688Y8034617D02*
D03*
X5647956Y7923479D02*
D03*
X5607835Y8036573D02*
D03*
X5607663Y8156573D02*
D03*
X5607648Y8276573D02*
D03*
X5646141Y8390232D02*
D03*
X5740624Y8464211D02*
D03*
X5859687Y8479177D02*
D03*
X5979687D02*
D03*
X5983583Y8599114D02*
D03*
Y8719114D02*
D03*
Y8839114D02*
D03*
Y8959114D02*
D03*
Y9079114D02*
D03*
Y9199114D02*
D03*
Y9319114D02*
D03*
Y9439114D02*
D03*
Y9559114D02*
D03*
X6008775Y9676440D02*
D03*
X6083930Y9769990D02*
D03*
X6192922Y9820198D02*
D03*
X6312810Y9825377D02*
D03*
X6432810D02*
D03*
X6552810D02*
D03*
X6672810D02*
D03*
X6773523Y9890623D02*
D03*
Y10010623D02*
D03*
Y10130623D02*
D03*
Y10250623D02*
D03*
Y10370623D02*
D03*
Y10490623D02*
D03*
Y10610623D02*
D03*
Y10730623D02*
D03*
Y10850623D02*
D03*
Y10970623D02*
D03*
Y11090623D02*
D03*
Y11210623D02*
D03*
Y11330623D02*
D03*
Y11450623D02*
D03*
X6582068Y9514481D02*
D03*
X6662293Y9425239D02*
D03*
X6699271Y9311079D02*
D03*
X6695228Y9191147D02*
D03*
X6583196Y9148150D02*
D03*
X6474575Y9199154D02*
D03*
X6474231Y9319154D02*
D03*
X6447177Y9082243D02*
D03*
Y8962243D02*
D03*
Y8842243D02*
D03*
Y8722243D02*
D03*
Y8602243D02*
D03*
Y8482243D02*
D03*
Y8362243D02*
D03*
Y8242243D02*
D03*
Y8122243D02*
D03*
Y8002243D02*
D03*
Y7882243D02*
D03*
X6247743Y8071485D02*
D03*
Y8191485D02*
D03*
Y8311485D02*
D03*
X6320159Y9492966D02*
D03*
X7213854Y9617786D02*
D03*
X7328711Y9583033D02*
D03*
X7407379Y9492417D02*
D03*
X7427617Y9374136D02*
D03*
Y9254136D02*
D03*
Y9134136D02*
D03*
Y9014136D02*
D03*
Y8894136D02*
D03*
Y8774136D02*
D03*
X7498485Y8677297D02*
D03*
X7618435Y8673808D02*
D03*
X7723981Y8616713D02*
D03*
X7773719Y8507506D02*
D03*
X7775537Y8387520D02*
D03*
Y8267520D02*
D03*
Y8147520D02*
D03*
Y8027520D02*
D03*
X7767226Y7907808D02*
D03*
X7576103Y8198406D02*
D03*
Y8318406D02*
D03*
Y8438406D02*
D03*
X7462775Y8477863D02*
D03*
X7343483Y8490873D02*
D03*
X7252355Y8568948D02*
D03*
X7228183Y8686489D02*
D03*
Y8806489D02*
D03*
Y8926489D02*
D03*
Y9046489D02*
D03*
Y9166489D02*
D03*
Y9286489D02*
D03*
X7226956Y9406482D02*
D03*
X7071984Y9148150D02*
D03*
X6980659Y9225994D02*
D03*
X6993519Y9345303D02*
D03*
X7004719Y9464779D02*
D03*
X7070409Y9565203D02*
D03*
X7168148Y8372340D02*
D03*
X7074835Y8296892D02*
D03*
X6978037Y8225968D02*
D03*
X6987951Y7986378D02*
D03*
X7052580Y7885269D02*
D03*
X7037957Y7766163D02*
D03*
X6951023Y7683443D02*
D03*
X6831406Y7673864D02*
D03*
X6733150Y7742752D02*
D03*
X6700318Y7858174D02*
D03*
X6748110Y7968246D02*
D03*
X6778603Y8204307D02*
D03*
X6782963Y8324228D02*
D03*
X6841390Y8429043D02*
D03*
X6949407Y8481315D02*
D03*
X6980659Y8597174D02*
D03*
X7014891Y8712188D02*
D03*
X7577537Y7667460D02*
D03*
Y7547460D02*
D03*
Y7427460D02*
D03*
X7553467Y7309899D02*
D03*
X7473474Y7220450D02*
D03*
X7358763Y7185219D02*
D03*
X7238763Y7185003D02*
D03*
X7118763D02*
D03*
X6999004Y7177400D02*
D03*
X6975497Y7059726D02*
D03*
X7016245Y6946855D02*
D03*
X7136230Y6945017D02*
D03*
X7256185Y6941721D02*
D03*
X7365790Y6892866D02*
D03*
X7438358Y6797295D02*
D03*
X7454752Y6678420D02*
D03*
X7412535Y6566091D02*
D03*
X7320866Y6488653D02*
D03*
X7203501Y6463643D02*
D03*
X7083501D02*
D03*
X6975497Y6411344D02*
D03*
Y6291344D02*
D03*
Y6171344D02*
D03*
Y6051344D02*
D03*
Y5931344D02*
D03*
Y5811344D02*
D03*
Y5691344D02*
D03*
Y5571344D02*
D03*
Y5451344D02*
D03*
Y5331344D02*
D03*
Y5211344D02*
D03*
Y5091344D02*
D03*
Y4971344D02*
D03*
Y4851344D02*
D03*
Y4731344D02*
D03*
Y4611344D02*
D03*
Y4491344D02*
D03*
Y4371344D02*
D03*
Y4251344D02*
D03*
X6776063Y4251671D02*
D03*
Y4371671D02*
D03*
Y4491671D02*
D03*
Y4611671D02*
D03*
Y4731672D02*
D03*
Y4851672D02*
D03*
Y4971672D02*
D03*
Y5091672D02*
D03*
Y5211672D02*
D03*
Y5331672D02*
D03*
Y5451672D02*
D03*
Y5571672D02*
D03*
Y5691672D02*
D03*
Y5811672D02*
D03*
Y5931672D02*
D03*
Y6051672D02*
D03*
Y6171672D02*
D03*
Y6291672D02*
D03*
Y6411672D02*
D03*
X6803039Y6528600D02*
D03*
X6881555Y6619348D02*
D03*
X6994110Y6660958D02*
D03*
X7114091Y6663077D02*
D03*
X7233984Y6668162D02*
D03*
X6906690Y6777844D02*
D03*
X6818309Y6859016D02*
D03*
X6778104Y6972080D02*
D03*
X6776063Y7092063D02*
D03*
X6788463Y7211420D02*
D03*
X6851191Y7313720D02*
D03*
X6955041Y7373845D02*
D03*
X7074573Y7384437D02*
D03*
X7194573D02*
D03*
X7314573D02*
D03*
X7378103Y7486241D02*
D03*
Y7606241D02*
D03*
Y7726241D02*
D03*
X7383536Y7846118D02*
D03*
X7891780Y3926840D02*
D03*
X4274820Y6456680D02*
D03*
X9819640Y9410700D02*
D03*
X5857240Y12070080D02*
D03*
%TF.MD5,5330c0758c28fa283793c1060e06dcf9*%
M02*
