%TF.GenerationSoftware,Altium Limited,Altium Designer,25.8.1 (18)*%
G04 Layer_Color=128*
%FSLAX45Y45*%
%MOMM*%
%TF.SameCoordinates,C1BB3922-C825-4BE3-8BC7-E8AFE5BE402A*%
%TF.FilePolarity,Positive*%
%TF.FileFunction,Drillmap*%
%TF.Part,Single*%
G01*
G75*
%TA.AperFunction,NonConductor*%
%ADD63C,0.12700*%
D63*
X3276600Y7279640D02*
X3352800D01*
X3314700Y7241540D02*
Y7317740D01*
X3984244Y6568404D02*
X4060444D01*
X4022344Y6530304D02*
Y6606504D01*
X3096280Y12151360D02*
X3416280D01*
X3256280Y11991360D02*
Y12311360D01*
X2715280Y3578860D02*
X3035280D01*
X2875280Y3418860D02*
Y3738860D01*
X10715280Y3578860D02*
X11035280D01*
X10875280Y3418860D02*
Y3738860D01*
X10464820Y12148820D02*
X10784820D01*
X10624820Y11988820D02*
Y12308820D01*
X7047320Y8100060D02*
X7217320D01*
X7132320Y8015060D02*
Y8185060D01*
X6539320Y8100060D02*
X6709320D01*
X6624320Y8015060D02*
Y8185060D01*
X6539320Y7592060D02*
X6709320D01*
X6624320Y7507060D02*
Y7677060D01*
X7047320Y7592060D02*
X7217320D01*
X7132320Y7507060D02*
Y7677060D01*
X3459480Y7457440D02*
X3535680D01*
X3497580Y7419340D02*
Y7495540D01*
X6433820Y10947400D02*
X6510020D01*
X6471920Y10909300D02*
Y10985500D01*
X6239764Y10774643D02*
X6315964D01*
X6277864Y10736543D02*
Y10812743D01*
X10373360Y8404860D02*
X10449560D01*
X10411460Y8366760D02*
Y8442960D01*
X10194544Y8237183D02*
X10270744D01*
X10232644Y8199083D02*
Y8275283D01*
X7382256Y5143536D02*
X7458456D01*
X7420356Y5105436D02*
Y5181636D01*
X7219696Y4980977D02*
X7295896D01*
X7257796Y4942877D02*
Y5019077D01*
X4167124Y6746204D02*
X4243324D01*
X4205224Y6708104D02*
Y6784304D01*
X8089900Y4432300D02*
X8166100D01*
X8128000Y4394200D02*
Y4470400D01*
X7927340Y4269740D02*
X8003540D01*
X7965440Y4231640D02*
Y4307840D01*
X9486900Y8948420D02*
X9563100D01*
X9525000Y8910320D02*
Y8986520D01*
X9665716Y9116097D02*
X9741916D01*
X9703816Y9077997D02*
Y9154197D01*
X5532120Y11485880D02*
X5608320D01*
X5570220Y11447780D02*
Y11523980D01*
X5726176Y11658637D02*
X5802376D01*
X5764276Y11620537D02*
Y11696737D01*
X6803320Y7846060D02*
X6953320D01*
X6878320Y7771060D02*
Y7921060D01*
X5466430Y7637183D02*
X5496429D01*
X5481429Y7622183D02*
Y7652183D01*
X5946429Y7637426D02*
X5976429D01*
X5961429Y7622426D02*
Y7652426D01*
X5459278Y7836617D02*
X5489278D01*
X5474278Y7821617D02*
Y7851617D01*
X3368993Y7730872D02*
X3398993D01*
X3383993Y7715872D02*
Y7745871D01*
X3963505Y8181788D02*
X3993505D01*
X3978505Y8166788D02*
Y8196788D01*
X4854693Y8005378D02*
X4884693D01*
X4869693Y7990378D02*
Y8020378D01*
X4430206Y8138638D02*
X4460206D01*
X4445206Y8123638D02*
Y8153638D01*
X4332714Y7688089D02*
X4362714D01*
X4347714Y7673089D02*
Y7703089D01*
X4502091Y8042552D02*
X4532091D01*
X4517091Y8027552D02*
Y8057552D01*
X4511937Y7802957D02*
X4541937D01*
X4526937Y7787957D02*
Y7817957D01*
X5346429Y7637183D02*
X5376429D01*
X5361429Y7622183D02*
Y7652183D01*
X3775140Y7581620D02*
X3805139D01*
X3790139Y7566620D02*
Y7596620D01*
X4866429Y7637183D02*
X4896429D01*
X4881429Y7622183D02*
Y7652183D01*
X3518244Y8131955D02*
X3548244D01*
X3533244Y8116955D02*
Y8146955D01*
X4772059Y8092394D02*
X4802059D01*
X4787059Y8077394D02*
Y8107394D01*
X5706430Y7637183D02*
X5736429D01*
X5721430Y7622183D02*
Y7652183D01*
X4315386Y8173516D02*
X4345386D01*
X4330386Y8158516D02*
Y8188515D01*
X4870077Y7886368D02*
X4900077D01*
X4885077Y7871368D02*
Y7901368D01*
X4979278Y7836617D02*
X5009278D01*
X4994278Y7821617D02*
Y7851617D01*
X3487771Y7747952D02*
X3517771D01*
X3502771Y7732952D02*
Y7762952D01*
X5106429Y7637183D02*
X5136429D01*
X5121429Y7622183D02*
Y7652183D01*
X5586430Y7637183D02*
X5616429D01*
X5601429Y7622183D02*
Y7652183D01*
X5819278Y7836617D02*
X5849278D01*
X5834278Y7821617D02*
Y7851617D01*
X4120389Y7587238D02*
X4150389D01*
X4135389Y7572238D02*
Y7602238D01*
X3890497Y7614676D02*
X3920497D01*
X3905497Y7599676D02*
Y7629676D01*
X4202763Y8132090D02*
X4232763D01*
X4217763Y8117090D02*
Y8147090D01*
X5099278Y7836617D02*
X5129278D01*
X5114278Y7821617D02*
Y7851617D01*
X5826430Y7637183D02*
X5856429D01*
X5841430Y7622183D02*
Y7652183D01*
X4750560Y7668396D02*
X4780560D01*
X4765560Y7653396D02*
Y7683396D01*
X3444014Y8037669D02*
X3474014D01*
X3459014Y8022669D02*
Y8052669D01*
X3744468Y8109228D02*
X3774468D01*
X3759468Y8094228D02*
Y8124228D01*
X4413755Y7599588D02*
X4443755D01*
X4428755Y7584588D02*
Y7614588D01*
X5339278Y7836617D02*
X5369278D01*
X5354278Y7821617D02*
Y7851617D01*
X5579278Y7836617D02*
X5609278D01*
X5594278Y7821617D02*
Y7851617D01*
X5219278Y7836617D02*
X5249278D01*
X5234278Y7821617D02*
Y7851617D01*
X4642458Y7616301D02*
X4672458D01*
X4657458Y7601301D02*
Y7631301D01*
X4134906Y8033118D02*
X4164906D01*
X4149906Y8018118D02*
Y8048118D01*
X5226429Y7637183D02*
X5256429D01*
X5241429Y7622183D02*
Y7652183D01*
X4652789Y8105605D02*
X4682789D01*
X4667789Y8090605D02*
Y8120605D01*
X3351188Y7961621D02*
X3381188D01*
X3366188Y7946621D02*
Y7976621D01*
X4236944Y7615783D02*
X4266944D01*
X4251944Y7600783D02*
Y7630783D01*
X4074833Y8136999D02*
X4104833D01*
X4089833Y8121999D02*
Y8151999D01*
X3195604Y7839567D02*
X3225604D01*
X3210604Y7824567D02*
Y7854567D01*
X4986429Y7637183D02*
X5016429D01*
X5001429Y7622183D02*
Y7652183D01*
X4530687Y7572627D02*
X4560687D01*
X4545687Y7557627D02*
Y7587627D01*
X4511937Y7922957D02*
X4541937D01*
X4526937Y7907957D02*
Y7937957D01*
X3635197Y8158825D02*
X3665197D01*
X3650197Y8143825D02*
Y8173825D01*
X3606815Y7732831D02*
X3636815D01*
X3621815Y7717831D02*
Y7747831D01*
X4009189Y7632344D02*
X4039189D01*
X4024189Y7617344D02*
Y7647344D01*
X3664242Y7627464D02*
X3694242D01*
X3679242Y7612464D02*
Y7642464D01*
X11085001Y11400001D02*
X11115001D01*
X11100001Y11385001D02*
Y11415001D01*
X10785001Y10800001D02*
X10815001D01*
X10800001Y10785001D02*
Y10815001D01*
X11085001Y10200001D02*
X11115001D01*
X11100001Y10185001D02*
Y10215001D01*
X10785001Y9600001D02*
X10815001D01*
X10800001Y9585001D02*
Y9615001D01*
X11085001Y9000001D02*
X11115001D01*
X11100001Y8985001D02*
Y9015001D01*
X10785001Y8400001D02*
X10815001D01*
X10800001Y8385001D02*
Y8415001D01*
X11085001Y7800001D02*
X11115001D01*
X11100001Y7785001D02*
Y7815001D01*
X10785001Y7200001D02*
X10815001D01*
X10800001Y7185001D02*
Y7215001D01*
X11085001Y6600001D02*
X11115001D01*
X11100001Y6585001D02*
Y6615001D01*
X10785001Y6000001D02*
X10815001D01*
X10800001Y5985001D02*
Y6015001D01*
X11085001Y5400001D02*
X11115001D01*
X11100001Y5385001D02*
Y5415001D01*
X10785001Y4800001D02*
X10815001D01*
X10800001Y4785001D02*
Y4815001D01*
X11085001Y4200000D02*
X11115001D01*
X11100001Y4185001D02*
Y4215000D01*
X10185001Y12000001D02*
X10215001D01*
X10200001Y11985001D02*
Y12015001D01*
X10485001Y11400001D02*
X10515001D01*
X10500001Y11385001D02*
Y11415001D01*
X10185001Y10800001D02*
X10215001D01*
X10200001Y10785001D02*
Y10815001D01*
X10485001Y10200001D02*
X10515001D01*
X10500001Y10185001D02*
Y10215001D01*
X10185001Y9600001D02*
X10215001D01*
X10200001Y9585001D02*
Y9615001D01*
X10485001Y9000001D02*
X10515001D01*
X10500001Y8985001D02*
Y9015001D01*
X10185001Y7200001D02*
X10215001D01*
X10200001Y7185001D02*
Y7215001D01*
X10485001Y6600001D02*
X10515001D01*
X10500001Y6585001D02*
Y6615001D01*
X10185001Y6000001D02*
X10215001D01*
X10200001Y5985001D02*
Y6015001D01*
X10485001Y5400001D02*
X10515001D01*
X10500001Y5385001D02*
Y5415001D01*
X10185001Y4800001D02*
X10215001D01*
X10200001Y4785001D02*
Y4815001D01*
X10485001Y4200000D02*
X10515001D01*
X10500001Y4185001D02*
Y4215000D01*
X10185001Y3600000D02*
X10215001D01*
X10200001Y3585000D02*
Y3615000D01*
X9585001Y8400001D02*
X9615001D01*
X9600001Y8385001D02*
Y8415001D01*
X9585001Y7200001D02*
X9615001D01*
X9600001Y7185001D02*
Y7215001D01*
X9885001Y6600001D02*
X9915001D01*
X9900001Y6585001D02*
Y6615001D01*
X9585001Y6000001D02*
X9615001D01*
X9600001Y5985001D02*
Y6015001D01*
X9885001Y5400001D02*
X9915001D01*
X9900001Y5385001D02*
Y5415001D01*
X9585001Y4800001D02*
X9615001D01*
X9600001Y4785001D02*
Y4815001D01*
X9885001Y4200000D02*
X9915001D01*
X9900001Y4185001D02*
Y4215000D01*
X9585001Y3600000D02*
X9615001D01*
X9600001Y3585000D02*
Y3615000D01*
X8985001Y12000001D02*
X9015001D01*
X9000001Y11985001D02*
Y12015001D01*
X9285001Y11400001D02*
X9315001D01*
X9300001Y11385001D02*
Y11415001D01*
X8985001Y10800001D02*
X9015001D01*
X9000001Y10785001D02*
Y10815001D01*
X9285001Y10200001D02*
X9315001D01*
X9300001Y10185001D02*
Y10215001D01*
X8985001Y9600001D02*
X9015001D01*
X9000001Y9585001D02*
Y9615001D01*
X8985001Y7200001D02*
X9015001D01*
X9000001Y7185001D02*
Y7215001D01*
X9285001Y6600001D02*
X9315001D01*
X9300001Y6585001D02*
Y6615001D01*
X8985001Y6000001D02*
X9015001D01*
X9000001Y5985001D02*
Y6015001D01*
X9285001Y5400001D02*
X9315001D01*
X9300001Y5385001D02*
Y5415001D01*
X8985001Y4800001D02*
X9015001D01*
X9000001Y4785001D02*
Y4815001D01*
X9285001Y4200000D02*
X9315001D01*
X9300001Y4185001D02*
Y4215000D01*
X8385001Y12000001D02*
X8415001D01*
X8400001Y11985001D02*
Y12015001D01*
X8685001Y11400001D02*
X8715001D01*
X8700001Y11385001D02*
Y11415001D01*
X8385001Y10800001D02*
X8415001D01*
X8400001Y10785001D02*
Y10815001D01*
X8685001Y10200001D02*
X8715001D01*
X8700001Y10185001D02*
Y10215001D01*
X8385001Y9600001D02*
X8415001D01*
X8400001Y9585001D02*
Y9615001D01*
X8685001Y9000001D02*
X8715001D01*
X8700001Y8985001D02*
Y9015001D01*
X8685001Y6600001D02*
X8715001D01*
X8700001Y6585001D02*
Y6615001D01*
X8385001Y6000001D02*
X8415001D01*
X8400001Y5985001D02*
Y6015001D01*
X8685001Y5400001D02*
X8715001D01*
X8700001Y5385001D02*
Y5415001D01*
X8385001Y4800001D02*
X8415001D01*
X8400001Y4785001D02*
Y4815001D01*
X7785001Y12000001D02*
X7815001D01*
X7800001Y11985001D02*
Y12015001D01*
X8085001Y11400001D02*
X8115001D01*
X8100001Y11385001D02*
Y11415001D01*
X7785001Y10800001D02*
X7815001D01*
X7800001Y10785001D02*
Y10815001D01*
X8085001Y10200001D02*
X8115001D01*
X8100001Y10185001D02*
Y10215001D01*
X7785001Y9600001D02*
X7815001D01*
X7800001Y9585001D02*
Y9615001D01*
X8085001Y9000001D02*
X8115001D01*
X8100001Y8985001D02*
Y9015001D01*
X8085001Y6600001D02*
X8115001D01*
X8100001Y6585001D02*
Y6615001D01*
X7785001Y6000001D02*
X7815001D01*
X7800001Y5985001D02*
Y6015001D01*
X8085001Y5400001D02*
X8115001D01*
X8100001Y5385001D02*
Y5415001D01*
X7785001Y4800001D02*
X7815001D01*
X7800001Y4785001D02*
Y4815001D01*
X7485001Y11400001D02*
X7515001D01*
X7500001Y11385001D02*
Y11415001D01*
X7485001Y10200001D02*
X7515001D01*
X7500001Y10185001D02*
Y10215001D01*
X7485001Y4200000D02*
X7515001D01*
X7500001Y4185001D02*
Y4215000D01*
X6285001Y11400001D02*
X6315001D01*
X6300001Y11385001D02*
Y11415001D01*
X6285001Y10200001D02*
X6315001D01*
X6300001Y10185001D02*
Y10215001D01*
X5985001Y7200001D02*
X6015001D01*
X6000001Y7185001D02*
Y7215001D01*
X6285001Y6600001D02*
X6315001D01*
X6300001Y6585001D02*
Y6615001D01*
X5985001Y6000001D02*
X6015001D01*
X6000001Y5985001D02*
Y6015001D01*
X6285001Y5400001D02*
X6315001D01*
X6300001Y5385001D02*
Y5415001D01*
X5985001Y4800001D02*
X6015001D01*
X6000001Y4785001D02*
Y4815001D01*
X6285001Y4200000D02*
X6315001D01*
X6300001Y4185001D02*
Y4215000D01*
X5385001Y10800001D02*
X5415001D01*
X5400001Y10785001D02*
Y10815001D01*
X5685001Y10200001D02*
X5715001D01*
X5700001Y10185001D02*
Y10215001D01*
X5385001Y9600001D02*
X5415001D01*
X5400001Y9585001D02*
Y9615001D01*
X5685001Y9000001D02*
X5715001D01*
X5700001Y8985001D02*
Y9015001D01*
X5385001Y7200001D02*
X5415001D01*
X5400001Y7185001D02*
Y7215001D01*
X5685001Y6600001D02*
X5715001D01*
X5700001Y6585001D02*
Y6615001D01*
X5385001Y6000001D02*
X5415001D01*
X5400001Y5985001D02*
Y6015001D01*
X5685001Y5400001D02*
X5715001D01*
X5700001Y5385001D02*
Y5415001D01*
X5385001Y4800001D02*
X5415001D01*
X5400001Y4785001D02*
Y4815001D01*
X5685001Y4200000D02*
X5715001D01*
X5700001Y4185001D02*
Y4215000D01*
X4785001Y10800001D02*
X4815001D01*
X4800001Y10785001D02*
Y10815001D01*
X5085000Y10200001D02*
X5115000D01*
X5100000Y10185001D02*
Y10215001D01*
X4785001Y9600001D02*
X4815001D01*
X4800001Y9585001D02*
Y9615001D01*
X5085000Y9000001D02*
X5115000D01*
X5100000Y8985001D02*
Y9015001D01*
X4785001Y8400001D02*
X4815001D01*
X4800001Y8385001D02*
Y8415001D01*
X4785001Y7200001D02*
X4815001D01*
X4800001Y7185001D02*
Y7215001D01*
X5085000Y6600001D02*
X5115000D01*
X5100000Y6585001D02*
Y6615001D01*
X4785001Y6000001D02*
X4815001D01*
X4800001Y5985001D02*
Y6015001D01*
X5085000Y5400001D02*
X5115000D01*
X5100000Y5385001D02*
Y5415001D01*
X4785001Y4800001D02*
X4815001D01*
X4800001Y4785001D02*
Y4815001D01*
X5085000Y4200000D02*
X5115000D01*
X5100000Y4185001D02*
Y4215000D01*
X4485000Y11400001D02*
X4515000D01*
X4500000Y11385001D02*
Y11415001D01*
X4185001Y10800001D02*
X4215000D01*
X4200000Y10785001D02*
Y10815001D01*
X4485000Y10200001D02*
X4515000D01*
X4500000Y10185001D02*
Y10215001D01*
X4185001Y9600001D02*
X4215000D01*
X4200000Y9585001D02*
Y9615001D01*
X4485000Y9000001D02*
X4515000D01*
X4500000Y8985001D02*
Y9015001D01*
X4185001Y7200001D02*
X4215000D01*
X4200000Y7185001D02*
Y7215001D01*
X4185001Y3600000D02*
X4215000D01*
X4200000Y3585000D02*
Y3615000D01*
X3885000Y11400001D02*
X3915000D01*
X3900000Y11385001D02*
Y11415001D01*
X3585000Y10800001D02*
X3615000D01*
X3600000Y10785001D02*
Y10815001D01*
X3885000Y10200001D02*
X3915000D01*
X3900000Y10185001D02*
Y10215001D01*
X3585000Y9600001D02*
X3615000D01*
X3600000Y9585001D02*
Y9615001D01*
X3885000Y9000001D02*
X3915000D01*
X3900000Y8985001D02*
Y9015001D01*
X3585000Y6000001D02*
X3615000D01*
X3600000Y5985001D02*
Y6015001D01*
X3885000Y5400001D02*
X3915000D01*
X3900000Y5385001D02*
Y5415001D01*
X3585000Y4800001D02*
X3615000D01*
X3600000Y4785001D02*
Y4815001D01*
X3885000Y4200000D02*
X3915000D01*
X3900000Y4185001D02*
Y4215000D01*
X3585000Y3600000D02*
X3615000D01*
X3600000Y3585000D02*
Y3615000D01*
X3285000Y11400001D02*
X3315000D01*
X3300000Y11385001D02*
Y11415001D01*
X2985000Y10800001D02*
X3015000D01*
X3000000Y10785001D02*
Y10815001D01*
X3285000Y10200001D02*
X3315000D01*
X3300000Y10185001D02*
Y10215001D01*
X2985000Y9600001D02*
X3015000D01*
X3000000Y9585001D02*
Y9615001D01*
X3285000Y9000001D02*
X3315000D01*
X3300000Y8985001D02*
Y9015001D01*
X2985000Y8400001D02*
X3015000D01*
X3000000Y8385001D02*
Y8415001D01*
X2985000Y7200001D02*
X3015000D01*
X3000000Y7185001D02*
Y7215001D01*
X3285000Y6600001D02*
X3315000D01*
X3300000Y6585001D02*
Y6615001D01*
X2985000Y6000001D02*
X3015000D01*
X3000000Y5985001D02*
Y6015001D01*
X3285000Y5400001D02*
X3315000D01*
X3300000Y5385001D02*
Y5415001D01*
X2985000Y4800001D02*
X3015000D01*
X3000000Y4785001D02*
Y4815001D01*
X3285000Y4200000D02*
X3315000D01*
X3300000Y4185001D02*
Y4215000D01*
X8355937Y8256677D02*
X8385936D01*
X8370937Y8241677D02*
Y8271677D01*
X8283885Y8160715D02*
X8313885D01*
X8298885Y8145715D02*
Y8175715D01*
X8267283Y8041869D02*
X8297283D01*
X8282283Y8026869D02*
Y8056869D01*
X8267283Y7921869D02*
X8297283D01*
X8282283Y7906869D02*
Y7936869D01*
X8267283Y7801869D02*
X8297283D01*
X8282283Y7786869D02*
Y7816869D01*
X8267283Y7681869D02*
X8297283D01*
X8282283Y7666869D02*
Y7696869D01*
X8242447Y7564467D02*
X8272447D01*
X8257447Y7549468D02*
Y7579467D01*
X8123077Y7552187D02*
X8153077D01*
X8138077Y7537187D02*
Y7567187D01*
X8003077Y7552187D02*
X8033077D01*
X8018077Y7537187D02*
Y7567187D01*
X7883077Y7552187D02*
X7913077D01*
X7898077Y7537187D02*
Y7567187D01*
X7766343Y7579991D02*
X7796343D01*
X7781343Y7564991D02*
Y7594991D01*
X7760538Y7699850D02*
X7790538D01*
X7775538Y7684851D02*
Y7714850D01*
X7756881Y7819795D02*
X7786881D01*
X7771881Y7804795D02*
Y7834795D01*
X7677376Y7391370D02*
X7707376D01*
X7692376Y7376370D02*
Y7406369D01*
X7791443Y7354105D02*
X7821443D01*
X7806443Y7339105D02*
Y7369105D01*
X7911435Y7352752D02*
X7941435D01*
X7926435Y7337752D02*
Y7367752D01*
X8031435Y7352752D02*
X8061435D01*
X8046435Y7337752D02*
Y7367752D01*
X8151435Y7352752D02*
X8181435D01*
X8166435Y7337752D02*
Y7367752D01*
X8271137Y7361212D02*
X8301137D01*
X8286137Y7346212D02*
Y7376212D01*
X8377316Y7417122D02*
X8407316D01*
X8392316Y7402122D02*
Y7432122D01*
X8447345Y7514569D02*
X8477345D01*
X8462345Y7499569D02*
Y7529569D01*
X8510364Y8104776D02*
X8540364D01*
X8525364Y8089776D02*
Y8119776D01*
X8531443Y7986642D02*
X8561443D01*
X8546443Y7971642D02*
Y8001642D01*
X8531443Y7866642D02*
X8561443D01*
X8546443Y7851642D02*
Y7881642D01*
X8531443Y7746642D02*
X8561443D01*
X8546443Y7731642D02*
Y7761642D01*
X8536938Y7626768D02*
X8566938D01*
X8551938Y7611768D02*
Y7641768D01*
X8590969Y7519620D02*
X8620969D01*
X8605969Y7504620D02*
Y7534620D01*
X8689976Y7451814D02*
X8719976D01*
X8704976Y7436814D02*
Y7466814D01*
X8809458Y7440668D02*
X8839458D01*
X8824458Y7425668D02*
Y7455668D01*
X8919058Y7489534D02*
X8949058D01*
X8934058Y7474534D02*
Y7504534D01*
X8991655Y7585083D02*
X9021655D01*
X9006655Y7570083D02*
Y7600083D01*
X9010277Y7703629D02*
X9040277D01*
X9025277Y7688629D02*
Y7718629D01*
X9015820Y7943501D02*
X9045820D01*
X9030820Y7928501D02*
Y7958501D01*
X9060445Y7832107D02*
X9090445D01*
X9075445Y7817107D02*
Y7847107D01*
X9157284Y7761239D02*
X9187284D01*
X9172284Y7746239D02*
Y7776239D01*
X9276521Y7747732D02*
X9306521D01*
X9291521Y7732732D02*
Y7762732D01*
X9396521Y7747732D02*
X9426521D01*
X9411521Y7732732D02*
Y7762732D01*
X9516521Y7747732D02*
X9546521D01*
X9531521Y7732732D02*
Y7762732D01*
X9636521Y7747732D02*
X9666521D01*
X9651521Y7732732D02*
Y7762732D01*
X9756522Y7747732D02*
X9786521D01*
X9771521Y7732732D02*
Y7762732D01*
X9876522Y7747732D02*
X9906521D01*
X9891521Y7732732D02*
Y7762732D01*
X9996522Y7747732D02*
X10026521D01*
X10011522Y7732732D02*
Y7762732D01*
X10116522Y7747732D02*
X10146521D01*
X10131522Y7732732D02*
Y7762732D01*
X10236522Y7747732D02*
X10266522D01*
X10251522Y7732732D02*
Y7762732D01*
X10355278Y7730499D02*
X10385278D01*
X10370278Y7715499D02*
Y7745499D01*
X10515796Y7848932D02*
X10545796D01*
X10530796Y7833932D02*
Y7863932D01*
X10348092Y7961621D02*
X10378092D01*
X10363092Y7946621D02*
Y7976621D01*
X10228965Y7947166D02*
X10258965D01*
X10243965Y7932167D02*
Y7962166D01*
X10108965Y7947166D02*
X10138965D01*
X10123965Y7932167D02*
Y7962166D01*
X9988965Y7947166D02*
X10018965D01*
X10003965Y7932167D02*
Y7962166D01*
X9868965Y7947166D02*
X9898965D01*
X9883965Y7932167D02*
Y7962166D01*
X9748965Y7947166D02*
X9778965D01*
X9763965Y7932167D02*
Y7962166D01*
X9628965Y7947166D02*
X9658965D01*
X9643965Y7932167D02*
Y7962166D01*
X9508965Y7947166D02*
X9538965D01*
X9523965Y7932167D02*
Y7962166D01*
X9388965Y7947166D02*
X9418965D01*
X9403965Y7932167D02*
Y7962166D01*
X9268965Y7947166D02*
X9298965D01*
X9283965Y7932167D02*
Y7962166D01*
X9209335Y8051302D02*
X9239335D01*
X9224335Y8036302D02*
Y8066302D01*
X9153264Y8157397D02*
X9183264D01*
X9168264Y8142397D02*
Y8172397D01*
X9047633Y8214335D02*
X9077633D01*
X9062633Y8199335D02*
Y8229335D01*
X8928285Y8201836D02*
X8958285D01*
X8943285Y8186836D02*
Y8216836D01*
X8838067Y8122711D02*
X8868067D01*
X8853067Y8107711D02*
Y8137711D01*
X8731250Y7676035D02*
X8761250D01*
X8746250Y7661035D02*
Y7691035D01*
X8730878Y7796035D02*
X8760878D01*
X8745878Y7781035D02*
Y7811035D01*
X8730878Y7916035D02*
X8760878D01*
X8745878Y7901035D02*
Y7931035D01*
X8730878Y8036035D02*
X8760878D01*
X8745878Y8021035D02*
Y8051035D01*
X8716334Y8155150D02*
X8746334D01*
X8731334Y8140150D02*
Y8170150D01*
X8646742Y8252910D02*
X8676742D01*
X8661742Y8237910D02*
Y8267910D01*
X8537939Y8303525D02*
X8567939D01*
X8552939Y8288525D02*
Y8318525D01*
X6240456Y7637183D02*
X6270456D01*
X6255456Y7622183D02*
Y7652183D01*
X6120512Y7640839D02*
X6150512D01*
X6135512Y7625839D02*
Y7655839D01*
X6357297Y7664537D02*
X6387297D01*
X6372297Y7649537D02*
Y7679537D01*
X6426795Y7762364D02*
X6456795D01*
X6441795Y7747364D02*
Y7777364D01*
X5727887Y7850074D02*
X5757887D01*
X5742887Y7835074D02*
Y7865074D01*
X6957957Y11489776D02*
X6987957D01*
X6972957Y11474776D02*
Y11504776D01*
X6957957Y11369776D02*
X6987957D01*
X6972957Y11354776D02*
Y11384776D01*
X6957957Y11249776D02*
X6987957D01*
X6972957Y11234776D02*
Y11264776D01*
X6957957Y11129776D02*
X6987957D01*
X6972957Y11114776D02*
Y11144776D01*
X6957957Y11009776D02*
X6987957D01*
X6972957Y10994776D02*
Y11024776D01*
X6957957Y10889776D02*
X6987957D01*
X6972957Y10874776D02*
Y10904775D01*
X6957957Y10769776D02*
X6987957D01*
X6972957Y10754776D02*
Y10784775D01*
X6957957Y10649775D02*
X6987957D01*
X6972957Y10634776D02*
Y10664775D01*
X6957957Y10529775D02*
X6987957D01*
X6972957Y10514776D02*
Y10544775D01*
X6957957Y10409775D02*
X6987957D01*
X6972957Y10394776D02*
Y10424775D01*
X6957957Y10289775D02*
X6987957D01*
X6972957Y10274775D02*
Y10304775D01*
X6957957Y10169775D02*
X6987957D01*
X6972957Y10154775D02*
Y10184775D01*
X6957957Y10049775D02*
X6987957D01*
X6972957Y10034775D02*
Y10064775D01*
X6957957Y9929775D02*
X6987957D01*
X6972957Y9914775D02*
Y9944775D01*
X6955363Y9809803D02*
X6985363D01*
X6970363Y9794803D02*
Y9824803D01*
X6905592Y9700611D02*
X6935592D01*
X6920592Y9685611D02*
Y9715611D01*
X6804816Y9635465D02*
X6834816D01*
X6819816Y9620465D02*
Y9650465D01*
X6685194Y9625943D02*
X6715194D01*
X6700194Y9610943D02*
Y9640943D01*
X6565194Y9625943D02*
X6595194D01*
X6580194Y9610943D02*
Y9640943D01*
X6445194Y9625943D02*
X6475194D01*
X6460194Y9610943D02*
Y9640943D01*
X6325194Y9625943D02*
X6355194D01*
X6340194Y9610943D02*
Y9640943D01*
X6205308Y9620715D02*
X6235308D01*
X6220308Y9605715D02*
Y9635715D01*
X6168017Y9506657D02*
X6198017D01*
X6183017Y9491657D02*
Y9521657D01*
X6168017Y9386657D02*
X6198017D01*
X6183017Y9371657D02*
Y9401657D01*
X6168017Y9266657D02*
X6198017D01*
X6183017Y9251657D02*
Y9281657D01*
X6168017Y9146657D02*
X6198017D01*
X6183017Y9131657D02*
Y9161657D01*
X6168017Y9026657D02*
X6198017D01*
X6183017Y9011657D02*
Y9041657D01*
X6168017Y8906657D02*
X6198017D01*
X6183017Y8891657D02*
Y8921657D01*
X6168017Y8786657D02*
X6198017D01*
X6183017Y8771657D02*
Y8801657D01*
X6168017Y8666657D02*
X6198017D01*
X6183017Y8651657D02*
Y8681656D01*
X6168017Y8546657D02*
X6198017D01*
X6183017Y8531657D02*
Y8561656D01*
X6162792Y8426770D02*
X6192792D01*
X6177792Y8411770D02*
Y8441770D01*
X6099453Y8324848D02*
X6129453D01*
X6114453Y8309848D02*
Y8339848D01*
X5988056Y8280229D02*
X6018056D01*
X6003056Y8265229D02*
Y8295229D01*
X5868057Y8279743D02*
X5898057D01*
X5883057Y8264743D02*
Y8294743D01*
X5792097Y8186845D02*
X5822097D01*
X5807097Y8171845D02*
Y8201845D01*
X5792097Y8066845D02*
X5822097D01*
X5807097Y8051845D02*
Y8081845D01*
X5907688Y8034617D02*
X5937688D01*
X5922688Y8019617D02*
Y8049617D01*
X5632956Y7923479D02*
X5662956D01*
X5647956Y7908479D02*
Y7938479D01*
X5592835Y8036573D02*
X5622835D01*
X5607835Y8021573D02*
Y8051573D01*
X5592663Y8156573D02*
X5622663D01*
X5607663Y8141574D02*
Y8171573D01*
X5592648Y8276573D02*
X5622648D01*
X5607648Y8261574D02*
Y8291573D01*
X5631141Y8390232D02*
X5661141D01*
X5646141Y8375232D02*
Y8405232D01*
X5725624Y8464211D02*
X5755624D01*
X5740624Y8449211D02*
Y8479211D01*
X5844687Y8479177D02*
X5874687D01*
X5859687Y8464177D02*
Y8494177D01*
X5964687Y8479177D02*
X5994687D01*
X5979687Y8464177D02*
Y8494177D01*
X5968583Y8599114D02*
X5998583D01*
X5983583Y8584114D02*
Y8614114D01*
X5968583Y8719114D02*
X5998583D01*
X5983583Y8704114D02*
Y8734114D01*
X5968583Y8839114D02*
X5998583D01*
X5983583Y8824114D02*
Y8854114D01*
X5968583Y8959114D02*
X5998583D01*
X5983583Y8944114D02*
Y8974114D01*
X5968583Y9079114D02*
X5998583D01*
X5983583Y9064114D02*
Y9094114D01*
X5968583Y9199114D02*
X5998583D01*
X5983583Y9184114D02*
Y9214114D01*
X5968583Y9319114D02*
X5998583D01*
X5983583Y9304114D02*
Y9334114D01*
X5968583Y9439114D02*
X5998583D01*
X5983583Y9424114D02*
Y9454114D01*
X5968583Y9559114D02*
X5998583D01*
X5983583Y9544114D02*
Y9574114D01*
X5993775Y9676440D02*
X6023775D01*
X6008775Y9661440D02*
Y9691440D01*
X6068930Y9769990D02*
X6098930D01*
X6083930Y9754990D02*
Y9784990D01*
X6177922Y9820198D02*
X6207922D01*
X6192922Y9805198D02*
Y9835197D01*
X6297810Y9825377D02*
X6327810D01*
X6312810Y9810377D02*
Y9840377D01*
X6417810Y9825377D02*
X6447810D01*
X6432810Y9810377D02*
Y9840377D01*
X6537810Y9825377D02*
X6567810D01*
X6552810Y9810377D02*
Y9840377D01*
X6657810Y9825377D02*
X6687810D01*
X6672810Y9810377D02*
Y9840377D01*
X6758523Y9890623D02*
X6788523D01*
X6773523Y9875623D02*
Y9905623D01*
X6758523Y10010623D02*
X6788523D01*
X6773523Y9995623D02*
Y10025623D01*
X6758523Y10130623D02*
X6788523D01*
X6773523Y10115623D02*
Y10145623D01*
X6758523Y10250623D02*
X6788523D01*
X6773523Y10235623D02*
Y10265623D01*
X6758523Y10370623D02*
X6788523D01*
X6773523Y10355623D02*
Y10385623D01*
X6758523Y10490623D02*
X6788523D01*
X6773523Y10475623D02*
Y10505623D01*
X6758523Y10610623D02*
X6788523D01*
X6773523Y10595623D02*
Y10625623D01*
X6758523Y10730623D02*
X6788523D01*
X6773523Y10715623D02*
Y10745623D01*
X6758523Y10850623D02*
X6788523D01*
X6773523Y10835623D02*
Y10865623D01*
X6758523Y10970623D02*
X6788523D01*
X6773523Y10955623D02*
Y10985623D01*
X6758523Y11090623D02*
X6788523D01*
X6773523Y11075623D02*
Y11105623D01*
X6758523Y11210623D02*
X6788523D01*
X6773523Y11195623D02*
Y11225623D01*
X6758523Y11330623D02*
X6788523D01*
X6773523Y11315623D02*
Y11345623D01*
X6758523Y11450623D02*
X6788523D01*
X6773523Y11435623D02*
Y11465623D01*
X6567068Y9514481D02*
X6597068D01*
X6582068Y9499481D02*
Y9529481D01*
X6647293Y9425239D02*
X6677293D01*
X6662293Y9410239D02*
Y9440239D01*
X6684271Y9311079D02*
X6714271D01*
X6699271Y9296079D02*
Y9326079D01*
X6680228Y9191147D02*
X6710228D01*
X6695228Y9176147D02*
Y9206147D01*
X6568196Y9148150D02*
X6598196D01*
X6583196Y9133150D02*
Y9163150D01*
X6459575Y9199154D02*
X6489575D01*
X6474575Y9184154D02*
Y9214154D01*
X6459231Y9319154D02*
X6489231D01*
X6474231Y9304154D02*
Y9334154D01*
X6432177Y9082243D02*
X6462177D01*
X6447177Y9067243D02*
Y9097243D01*
X6432177Y8962243D02*
X6462177D01*
X6447177Y8947243D02*
Y8977243D01*
X6432177Y8842243D02*
X6462177D01*
X6447177Y8827243D02*
Y8857243D01*
X6432177Y8722243D02*
X6462177D01*
X6447177Y8707243D02*
Y8737243D01*
X6432177Y8602243D02*
X6462177D01*
X6447177Y8587243D02*
Y8617243D01*
X6432177Y8482243D02*
X6462177D01*
X6447177Y8467243D02*
Y8497243D01*
X6432177Y8362243D02*
X6462177D01*
X6447177Y8347243D02*
Y8377243D01*
X6432177Y8242243D02*
X6462177D01*
X6447177Y8227243D02*
Y8257243D01*
X6432177Y8122243D02*
X6462177D01*
X6447177Y8107243D02*
Y8137243D01*
X6432177Y8002243D02*
X6462177D01*
X6447177Y7987243D02*
Y8017243D01*
X6432177Y7882243D02*
X6462177D01*
X6447177Y7867243D02*
Y7897243D01*
X6232743Y8071485D02*
X6262743D01*
X6247743Y8056485D02*
Y8086485D01*
X6232743Y8191485D02*
X6262743D01*
X6247743Y8176485D02*
Y8206485D01*
X6232743Y8311485D02*
X6262743D01*
X6247743Y8296485D02*
Y8326485D01*
X6305159Y9492966D02*
X6335159D01*
X6320159Y9477966D02*
Y9507966D01*
X7198854Y9617786D02*
X7228854D01*
X7213854Y9602786D02*
Y9632786D01*
X7313711Y9583033D02*
X7343711D01*
X7328711Y9568033D02*
Y9598033D01*
X7392379Y9492417D02*
X7422379D01*
X7407379Y9477417D02*
Y9507417D01*
X7412617Y9374136D02*
X7442617D01*
X7427617Y9359136D02*
Y9389136D01*
X7412617Y9254136D02*
X7442617D01*
X7427617Y9239136D02*
Y9269136D01*
X7412617Y9134136D02*
X7442617D01*
X7427617Y9119136D02*
Y9149136D01*
X7412617Y9014136D02*
X7442617D01*
X7427617Y8999136D02*
Y9029136D01*
X7412617Y8894136D02*
X7442617D01*
X7427617Y8879136D02*
Y8909136D01*
X7412617Y8774136D02*
X7442617D01*
X7427617Y8759136D02*
Y8789136D01*
X7483485Y8677297D02*
X7513485D01*
X7498485Y8662297D02*
Y8692297D01*
X7603435Y8673808D02*
X7633435D01*
X7618435Y8658808D02*
Y8688808D01*
X7708981Y8616713D02*
X7738981D01*
X7723981Y8601713D02*
Y8631713D01*
X7758719Y8507506D02*
X7788719D01*
X7773719Y8492506D02*
Y8522506D01*
X7760537Y8387520D02*
X7790537D01*
X7775537Y8372520D02*
Y8402520D01*
X7760537Y8267520D02*
X7790537D01*
X7775537Y8252520D02*
Y8282520D01*
X7760537Y8147520D02*
X7790537D01*
X7775537Y8132520D02*
Y8162520D01*
X7760537Y8027520D02*
X7790537D01*
X7775537Y8012520D02*
Y8042520D01*
X7752226Y7907808D02*
X7782226D01*
X7767226Y7892808D02*
Y7922808D01*
X7561103Y8198406D02*
X7591103D01*
X7576103Y8183406D02*
Y8213406D01*
X7561103Y8318406D02*
X7591103D01*
X7576103Y8303406D02*
Y8333406D01*
X7561103Y8438406D02*
X7591103D01*
X7576103Y8423406D02*
Y8453406D01*
X7447775Y8477863D02*
X7477775D01*
X7462775Y8462863D02*
Y8492863D01*
X7328483Y8490873D02*
X7358483D01*
X7343483Y8475873D02*
Y8505873D01*
X7237355Y8568948D02*
X7267355D01*
X7252355Y8553948D02*
Y8583948D01*
X7213183Y8686489D02*
X7243183D01*
X7228183Y8671489D02*
Y8701489D01*
X7213183Y8806489D02*
X7243183D01*
X7228183Y8791489D02*
Y8821489D01*
X7213183Y8926489D02*
X7243183D01*
X7228183Y8911489D02*
Y8941489D01*
X7213183Y9046489D02*
X7243183D01*
X7228183Y9031489D02*
Y9061489D01*
X7213183Y9166489D02*
X7243183D01*
X7228183Y9151489D02*
Y9181489D01*
X7213183Y9286489D02*
X7243183D01*
X7228183Y9271489D02*
Y9301489D01*
X7211956Y9406482D02*
X7241956D01*
X7226956Y9391482D02*
Y9421482D01*
X7056984Y9148150D02*
X7086984D01*
X7071984Y9133150D02*
Y9163150D01*
X6965659Y9225994D02*
X6995659D01*
X6980659Y9210994D02*
Y9240994D01*
X6978519Y9345303D02*
X7008519D01*
X6993519Y9330303D02*
Y9360303D01*
X6989719Y9464779D02*
X7019718D01*
X7004719Y9449779D02*
Y9479779D01*
X7055409Y9565203D02*
X7085409D01*
X7070409Y9550203D02*
Y9580203D01*
X7153149Y8372340D02*
X7183148D01*
X7168148Y8357340D02*
Y8387340D01*
X7059835Y8296892D02*
X7089835D01*
X7074835Y8281892D02*
Y8311892D01*
X6963037Y8225968D02*
X6993037D01*
X6978037Y8210968D02*
Y8240968D01*
X6972951Y7986378D02*
X7002951D01*
X6987951Y7971378D02*
Y8001378D01*
X7037580Y7885269D02*
X7067580D01*
X7052580Y7870269D02*
Y7900269D01*
X7022957Y7766163D02*
X7052957D01*
X7037957Y7751163D02*
Y7781163D01*
X6936023Y7683443D02*
X6966023D01*
X6951023Y7668443D02*
Y7698443D01*
X6816406Y7673864D02*
X6846406D01*
X6831406Y7658864D02*
Y7688864D01*
X6718150Y7742752D02*
X6748150D01*
X6733150Y7727752D02*
Y7757752D01*
X6685318Y7858174D02*
X6715318D01*
X6700318Y7843174D02*
Y7873173D01*
X6733110Y7968246D02*
X6763110D01*
X6748110Y7953246D02*
Y7983246D01*
X6763603Y8204307D02*
X6793603D01*
X6778603Y8189307D02*
Y8219307D01*
X6767963Y8324228D02*
X6797963D01*
X6782963Y8309228D02*
Y8339228D01*
X6826390Y8429043D02*
X6856390D01*
X6841390Y8414043D02*
Y8444043D01*
X6934407Y8481315D02*
X6964407D01*
X6949407Y8466315D02*
Y8496315D01*
X6965659Y8597174D02*
X6995659D01*
X6980659Y8582174D02*
Y8612174D01*
X6999891Y8712188D02*
X7029891D01*
X7014891Y8697188D02*
Y8727188D01*
X7562537Y7667460D02*
X7592537D01*
X7577537Y7652460D02*
Y7682460D01*
X7562537Y7547460D02*
X7592537D01*
X7577537Y7532460D02*
Y7562460D01*
X7562537Y7427460D02*
X7592537D01*
X7577537Y7412460D02*
Y7442460D01*
X7538468Y7309899D02*
X7568467D01*
X7553467Y7294899D02*
Y7324898D01*
X7458474Y7220450D02*
X7488474D01*
X7473474Y7205450D02*
Y7235450D01*
X7343763Y7185219D02*
X7373762D01*
X7358763Y7170219D02*
Y7200219D01*
X7223763Y7185003D02*
X7253763D01*
X7238763Y7170003D02*
Y7200003D01*
X7103763Y7185003D02*
X7133763D01*
X7118763Y7170003D02*
Y7200003D01*
X6984004Y7177400D02*
X7014004D01*
X6999004Y7162400D02*
Y7192400D01*
X6960497Y7059726D02*
X6990497D01*
X6975497Y7044726D02*
Y7074725D01*
X7001245Y6946855D02*
X7031245D01*
X7016245Y6931855D02*
Y6961855D01*
X7121230Y6945017D02*
X7151230D01*
X7136230Y6930017D02*
Y6960017D01*
X7241185Y6941721D02*
X7271185D01*
X7256185Y6926721D02*
Y6956721D01*
X7350790Y6892866D02*
X7380790D01*
X7365790Y6877866D02*
Y6907866D01*
X7423358Y6797295D02*
X7453358D01*
X7438358Y6782295D02*
Y6812295D01*
X7439752Y6678420D02*
X7469752D01*
X7454752Y6663420D02*
Y6693420D01*
X7397535Y6566091D02*
X7427535D01*
X7412535Y6551091D02*
Y6581091D01*
X7305866Y6488653D02*
X7335866D01*
X7320866Y6473653D02*
Y6503653D01*
X7188501Y6463643D02*
X7218501D01*
X7203501Y6448643D02*
Y6478643D01*
X7068501Y6463643D02*
X7098501D01*
X7083501Y6448643D02*
Y6478643D01*
X6960497Y6411344D02*
X6990497D01*
X6975497Y6396344D02*
Y6426344D01*
X6960497Y6291344D02*
X6990497D01*
X6975497Y6276344D02*
Y6306344D01*
X6960497Y6171344D02*
X6990497D01*
X6975497Y6156344D02*
Y6186344D01*
X6960497Y6051344D02*
X6990497D01*
X6975497Y6036344D02*
Y6066344D01*
X6960497Y5931344D02*
X6990497D01*
X6975497Y5916344D02*
Y5946344D01*
X6960497Y5811344D02*
X6990497D01*
X6975497Y5796344D02*
Y5826344D01*
X6960497Y5691344D02*
X6990497D01*
X6975497Y5676344D02*
Y5706344D01*
X6960497Y5571344D02*
X6990497D01*
X6975497Y5556344D02*
Y5586344D01*
X6960497Y5451344D02*
X6990497D01*
X6975497Y5436344D02*
Y5466344D01*
X6960497Y5331344D02*
X6990497D01*
X6975497Y5316344D02*
Y5346344D01*
X6960497Y5211344D02*
X6990497D01*
X6975497Y5196344D02*
Y5226344D01*
X6960497Y5091344D02*
X6990497D01*
X6975497Y5076344D02*
Y5106344D01*
X6960497Y4971344D02*
X6990497D01*
X6975497Y4956344D02*
Y4986344D01*
X6960497Y4851344D02*
X6990497D01*
X6975497Y4836344D02*
Y4866344D01*
X6960497Y4731344D02*
X6990497D01*
X6975497Y4716344D02*
Y4746344D01*
X6960497Y4611344D02*
X6990497D01*
X6975497Y4596344D02*
Y4626344D01*
X6960497Y4491344D02*
X6990497D01*
X6975497Y4476344D02*
Y4506344D01*
X6960497Y4371344D02*
X6990497D01*
X6975497Y4356344D02*
Y4386344D01*
X6960497Y4251344D02*
X6990497D01*
X6975497Y4236344D02*
Y4266344D01*
X6761063Y4251671D02*
X6791063D01*
X6776063Y4236671D02*
Y4266671D01*
X6761063Y4371671D02*
X6791063D01*
X6776063Y4356671D02*
Y4386671D01*
X6761063Y4491671D02*
X6791063D01*
X6776063Y4476672D02*
Y4506671D01*
X6761063Y4611671D02*
X6791063D01*
X6776063Y4596672D02*
Y4626671D01*
X6761063Y4731672D02*
X6791063D01*
X6776063Y4716672D02*
Y4746671D01*
X6761063Y4851672D02*
X6791063D01*
X6776063Y4836672D02*
Y4866671D01*
X6761063Y4971672D02*
X6791063D01*
X6776063Y4956672D02*
Y4986672D01*
X6761063Y5091672D02*
X6791063D01*
X6776063Y5076672D02*
Y5106672D01*
X6761063Y5211672D02*
X6791063D01*
X6776063Y5196672D02*
Y5226672D01*
X6761063Y5331672D02*
X6791063D01*
X6776063Y5316672D02*
Y5346672D01*
X6761063Y5451672D02*
X6791063D01*
X6776063Y5436672D02*
Y5466672D01*
X6761063Y5571672D02*
X6791063D01*
X6776063Y5556672D02*
Y5586672D01*
X6761063Y5691672D02*
X6791063D01*
X6776063Y5676672D02*
Y5706672D01*
X6761063Y5811672D02*
X6791063D01*
X6776063Y5796672D02*
Y5826672D01*
X6761063Y5931672D02*
X6791063D01*
X6776063Y5916672D02*
Y5946672D01*
X6761063Y6051672D02*
X6791063D01*
X6776063Y6036672D02*
Y6066672D01*
X6761063Y6171672D02*
X6791063D01*
X6776063Y6156672D02*
Y6186672D01*
X6761063Y6291672D02*
X6791063D01*
X6776063Y6276672D02*
Y6306672D01*
X6761063Y6411672D02*
X6791063D01*
X6776063Y6396672D02*
Y6426672D01*
X6788039Y6528600D02*
X6818039D01*
X6803039Y6513600D02*
Y6543600D01*
X6866555Y6619348D02*
X6896555D01*
X6881555Y6604348D02*
Y6634348D01*
X6979110Y6660958D02*
X7009110D01*
X6994110Y6645958D02*
Y6675958D01*
X7099091Y6663077D02*
X7129091D01*
X7114091Y6648077D02*
Y6678077D01*
X7218984Y6668162D02*
X7248984D01*
X7233984Y6653162D02*
Y6683162D01*
X6891690Y6777844D02*
X6921690D01*
X6906690Y6762844D02*
Y6792844D01*
X6803309Y6859016D02*
X6833309D01*
X6818309Y6844016D02*
Y6874016D01*
X6763104Y6972080D02*
X6793104D01*
X6778104Y6957080D02*
Y6987080D01*
X6761063Y7092063D02*
X6791063D01*
X6776063Y7077063D02*
Y7107062D01*
X6773463Y7211420D02*
X6803463D01*
X6788463Y7196420D02*
Y7226420D01*
X6836191Y7313720D02*
X6866191D01*
X6851191Y7298720D02*
Y7328720D01*
X6940041Y7373845D02*
X6970041D01*
X6955041Y7358845D02*
Y7388845D01*
X7059573Y7384437D02*
X7089573D01*
X7074573Y7369437D02*
Y7399437D01*
X7179573Y7384437D02*
X7209573D01*
X7194573Y7369437D02*
Y7399437D01*
X7299573Y7384437D02*
X7329573D01*
X7314573Y7369437D02*
Y7399437D01*
X7363103Y7486241D02*
X7393103D01*
X7378103Y7471241D02*
Y7501241D01*
X7363103Y7606241D02*
X7393103D01*
X7378103Y7591241D02*
Y7621241D01*
X7363103Y7726241D02*
X7393103D01*
X7378103Y7711241D02*
Y7741241D01*
X7368536Y7846118D02*
X7398536D01*
X7383536Y7831118D02*
Y7861118D01*
X7876780Y3926840D02*
X7906780D01*
X7891780Y3911840D02*
Y3941840D01*
X4259820Y6456680D02*
X4289820D01*
X4274820Y6441680D02*
Y6471680D01*
X9804640Y9410700D02*
X9834640D01*
X9819640Y9395700D02*
Y9425700D01*
X5842240Y12070080D02*
X5872240D01*
X5857240Y12055080D02*
Y12085080D01*
%TF.MD5,0c9e619d147146cdc86ae8b585d80c75*%
M02*
