%TF.GenerationSoftware,Altium Limited,Altium Designer,25.8.1 (18)*%
G04 Layer_Color=8421504*
%FSLAX45Y45*%
%MOMM*%
%TF.SameCoordinates,C1BB3922-C825-4BE3-8BC7-E8AFE5BE402A*%
%TF.FilePolarity,Positive*%
%TF.FileFunction,Paste,Top*%
%TF.Part,Single*%
G01*
G75*
%TA.AperFunction,SMDPad,CuDef*%
%ADD11R,0.96000X0.93500*%
%ADD12R,1.05872X1.01213*%
%ADD13R,1.01213X1.05872*%
%ADD14R,1.05000X2.20000*%
%ADD15R,1.00000X1.05000*%
%ADD16R,2.20000X1.05000*%
%ADD17R,1.05000X1.00000*%
%ADD18R,1.07000X0.61000*%
%ADD19R,0.61000X1.07000*%
D11*
X6840220Y9260461D02*
D03*
Y8608060D02*
D03*
X6586219Y9260460D02*
D03*
X7094220D02*
D03*
X7094220Y8608060D02*
D03*
X6586220D02*
D03*
D12*
X5967809Y8156060D02*
D03*
X6143151D02*
D03*
D13*
X7421880Y8366841D02*
D03*
Y8191500D02*
D03*
D14*
X7020740Y11756495D02*
D03*
X6725740D02*
D03*
X6728280Y3989065D02*
D03*
X7023280D02*
D03*
D15*
X6873240Y11908995D02*
D03*
X6875780Y3836565D02*
D03*
Y4141565D02*
D03*
X6873240Y11603995D02*
D03*
D16*
X3176165Y7993560D02*
D03*
Y7698560D02*
D03*
X10565235D02*
D03*
Y7993560D02*
D03*
D17*
X3023665Y7846060D02*
D03*
X10717735D02*
D03*
X10412735D02*
D03*
X3328665D02*
D03*
D18*
X6164580Y7835900D02*
D03*
X5959580D02*
D03*
Y7736900D02*
D03*
Y7934900D02*
D03*
X6164580D02*
D03*
Y7736900D02*
D03*
D19*
X7576820Y7984120D02*
D03*
Y7779120D02*
D03*
X7675820D02*
D03*
X7477820D02*
D03*
Y7984120D02*
D03*
X7675820D02*
D03*
%TF.MD5,ebb7330bfa03161464832687873f6d5b*%
M02*
