%TF.GenerationSoftware,Altium Limited,Altium Designer,25.8.1 (18)*%
G04 Layer_Color=8388736*
%FSLAX45Y45*%
%MOMM*%
%TF.SameCoordinates,C1BB3922-C825-4BE3-8BC7-E8AFE5BE402A*%
%TF.FilePolarity,Negative*%
%TF.FileFunction,Soldermask,Top*%
%TF.Part,Single*%
G01*
G75*
%TA.AperFunction,SMDPad,CuDef*%
%ADD12R,1.05872X1.01213*%
%ADD13R,1.01213X1.05872*%
%TA.AperFunction,NonConductor*%
%ADD33C,0.67000*%
%TA.AperFunction,SMDPad,CuDef*%
%ADD34R,1.16320X1.13820*%
%ADD35R,1.25320X2.40320*%
%ADD36R,1.20320X1.25320*%
%ADD37R,2.40320X1.25320*%
%ADD38R,1.25320X1.20320*%
%ADD39R,1.27320X0.81320*%
%ADD40R,0.81320X1.27320*%
%TA.AperFunction,ComponentPad*%
%ADD41C,1.72720*%
%TA.AperFunction,ViaPad*%
%ADD42O,0.20320X1.72720*%
%ADD43C,0.20320*%
%ADD44C,3.40320*%
%TA.AperFunction,ComponentPad*%
%ADD45C,2.75320*%
%ADD46C,2.45320*%
D12*
X5967809Y8156060D02*
D03*
X6143151D02*
D03*
D13*
X7421880Y8366841D02*
D03*
Y8191500D02*
D03*
D33*
X3484880Y7846060D02*
G03*
X3548380Y7909560I0J63500D01*
G01*
X3630930Y8060690D02*
G03*
X3548380Y7978140I0J-82550D01*
G01*
X3718560Y7973060D02*
G03*
X3630930Y8060690I-87630J0D01*
G01*
X3718560Y7762240D02*
G03*
X3799840Y7680960I81280J0D01*
G01*
D02*
G03*
X3886200Y7767320I0J86360D01*
G01*
X4053840Y7998383D02*
G03*
X3886142Y7994573I-83892J0D01*
G01*
X4053840Y7781688D02*
G03*
X4244274Y7777054I95267J-251D01*
G01*
X4427220Y7982270D02*
G03*
X4244324Y7979716I-91468J199D01*
G01*
X4427220Y7775986D02*
G03*
X4635514Y7778563I104166J-261D01*
G01*
X4709160Y8011160D02*
G03*
X4635500Y7937500I0J-73660D01*
G01*
X4785360Y7934960D02*
G03*
X4709160Y8011160I-76200J0D01*
G01*
X4785360Y7818120D02*
G03*
X4866580Y7736900I81220J0D01*
G01*
X9128761Y7965549D02*
G03*
X9246861Y7847449I118100J0D01*
G01*
X9021067Y8118963D02*
G03*
X8925561Y8023456I0J-95507D01*
G01*
X9128761Y8011269D02*
G03*
X9021067Y8118963I-107693J0D01*
G01*
X8646161Y7676821D02*
G03*
X8925560Y7677006I139700J-38D01*
G01*
X8646162Y8073807D02*
G03*
X8382000Y8070540I-132117J1247D01*
G01*
X8221981Y7452469D02*
G03*
X8382001Y7612489I0J160020D01*
G01*
X7675821Y7602389D02*
G03*
X7825741Y7452469I149920J0D01*
G01*
X7020961Y6563360D02*
G03*
X6875780Y6418179I0J-145181D01*
G01*
X7214822Y6563360D02*
G03*
X7357215Y6705753I0J142393D01*
G01*
D02*
G03*
X7217669Y6845300I-139547J0D01*
G01*
X6875780Y6998534D02*
G03*
X7029014Y6845300I153234J0D01*
G01*
X7024557Y7284720D02*
G03*
X6875780Y7135943I0J-148777D01*
G01*
X7352679Y7284720D02*
G03*
X7477820Y7409861I0J125141D01*
G01*
X6758940Y9725660D02*
G03*
X6873240Y9839960I0J114300D01*
G01*
X6243320Y9725660D02*
G03*
X6083300Y9565640I0J-160020D01*
G01*
X5991860Y8379460D02*
G03*
X6083300Y8470900I0J91440D01*
G01*
X5816600Y8379460D02*
G03*
X5707380Y8270240I0J-109220D01*
G01*
Y8046720D02*
G03*
X5819200Y7934900I111820J0D01*
G01*
X7010400Y8384540D02*
G03*
X7096760Y8470900I0J86360D01*
G01*
X6979920Y8384540D02*
G03*
X6878320Y8282940I0J-101600D01*
G01*
X7675820Y8486200D02*
G03*
X7584440Y8577580I-91380J0D01*
G01*
X7327900Y8658860D02*
G03*
X7409180Y8577580I81280J0D01*
G01*
X7327900Y9401775D02*
G03*
X7211349Y9518326I-116551J0D01*
G01*
D02*
G03*
X7094220Y9401197I0J-117130D01*
G01*
X6586219Y9326881D02*
G03*
X6464300Y9448800I-121919J0D01*
G01*
D02*
G03*
X6347460Y9331960I0J-116840D01*
G01*
X6281480Y7736900D02*
G03*
X6347460Y7802880I0J65980D01*
G01*
X3328665Y7846060D02*
X3484880D01*
X3548380Y7909560D02*
Y7978140D01*
X3718560Y7762240D02*
Y7973060D01*
X3886200Y7767320D02*
Y7991774D01*
X4053840Y7781688D02*
Y7998383D01*
X4244340Y7780035D02*
Y7978203D01*
X4427220Y7775986D02*
Y7982113D01*
X4635500Y7779978D02*
Y7937500D01*
X4785360Y7818120D02*
Y7934960D01*
X4866580Y7736900D02*
X5959580D01*
X9246861Y7847449D02*
X10393735D01*
X9128761Y7965549D02*
Y8011269D01*
X8925560Y7677006D02*
X8925561Y8023456D01*
X8646161Y7676821D02*
Y8073401D01*
X8382000Y8069509D02*
X8382001Y7612489D01*
X7825741Y7452469D02*
X8221981D01*
X7675821Y7602389D02*
Y7779120D01*
X6875780Y4142940D02*
Y6418179D01*
X7020961Y6563360D02*
X7214822D01*
X7029014Y6845300D02*
X7217669D01*
X6875780Y6998534D02*
Y7135943D01*
X7024557Y7284720D02*
X7352679D01*
X7477820Y7409861D02*
Y7779120D01*
X6873240Y9839960D02*
Y11602620D01*
X6243320Y9725660D02*
X6758940D01*
X6083300Y8470900D02*
Y9565640D01*
X5816600Y8379460D02*
X5991860D01*
X5707380Y8046720D02*
Y8270240D01*
X5819200Y7934900D02*
X5959580D01*
X7096760Y8470900D02*
Y8605520D01*
X6979920Y8384540D02*
X7010400D01*
X6878320Y7846060D02*
Y8282940D01*
X7675820Y7984120D02*
Y8486200D01*
X7409180Y8577580D02*
X7584440D01*
X7327900Y8658860D02*
Y9401775D01*
X7094220Y9260460D02*
Y9401197D01*
X6586219Y9260460D02*
Y9326881D01*
X6347460Y7802880D02*
Y9331960D01*
X6164580Y7736900D02*
X6281480D01*
D34*
X6840220Y9260461D02*
D03*
Y8608060D02*
D03*
X6586219Y9260460D02*
D03*
X7094220D02*
D03*
X7094220Y8608060D02*
D03*
X6586220D02*
D03*
D35*
X7020740Y11756495D02*
D03*
X6725740D02*
D03*
X6728280Y3989065D02*
D03*
X7023280D02*
D03*
D36*
X6873240Y11908995D02*
D03*
X6875780Y3836565D02*
D03*
Y4141565D02*
D03*
X6873240Y11603995D02*
D03*
D37*
X3176165Y7993560D02*
D03*
Y7698560D02*
D03*
X10565235D02*
D03*
Y7993560D02*
D03*
D38*
X3023665Y7846060D02*
D03*
X10717735D02*
D03*
X10412735D02*
D03*
X3328665D02*
D03*
D39*
X6164580Y7835900D02*
D03*
X5959580D02*
D03*
Y7736900D02*
D03*
Y7934900D02*
D03*
X6164580D02*
D03*
Y7736900D02*
D03*
D40*
X7576820Y7984120D02*
D03*
Y7779120D02*
D03*
X7675820D02*
D03*
X7477820D02*
D03*
Y7984120D02*
D03*
X7675820D02*
D03*
D41*
X3314700Y7279640D02*
D03*
X4022344Y6568404D02*
D03*
X3497580Y7457440D02*
D03*
X6471920Y10947400D02*
D03*
X6277864Y10774643D02*
D03*
X10411460Y8404860D02*
D03*
X10232644Y8237183D02*
D03*
X7420356Y5143536D02*
D03*
X7257796Y4980977D02*
D03*
X4205224Y6746204D02*
D03*
X8128000Y4432300D02*
D03*
X7965440Y4269740D02*
D03*
X9525000Y8948420D02*
D03*
X9703816Y9116097D02*
D03*
X5570220Y11485880D02*
D03*
X5764276Y11658637D02*
D03*
D42*
X3256280Y12151360D02*
D03*
D43*
X2875280Y3578860D02*
D03*
X10624820Y12148820D02*
D03*
D44*
X10875280Y3578860D02*
D03*
D45*
X7132320Y8100060D02*
D03*
X6624320D02*
D03*
Y7592060D02*
D03*
X7132320D02*
D03*
D46*
X6878320Y7846060D02*
D03*
%TF.MD5,2e35349863a37670e8029a9e893475df*%
M02*
