%TF.GenerationSoftware,Altium Limited,Altium Designer,25.8.1 (18)*%
G04 Layer_Color=65535*
%FSLAX45Y45*%
%MOMM*%
%TF.SameCoordinates,C1BB3922-C825-4BE3-8BC7-E8AFE5BE402A*%
%TF.FilePolarity,Positive*%
%TF.FileFunction,Legend,Top*%
%TF.Part,Single*%
G01*
G75*
%TA.AperFunction,NonConductor*%
%ADD29C,0.10000*%
%ADD30C,0.20000*%
%ADD31C,0.25400*%
D29*
X7762240Y7947660D02*
G03*
X7772240Y7947660I5000J0D01*
G01*
D02*
G03*
X7762240Y7947660I-5000J0D01*
G01*
X6128120Y7650480D02*
G03*
X6128120Y7640480I0J-5000D01*
G01*
D02*
G03*
X6128120Y7650480I0J5000D01*
G01*
X9679940Y6009640D02*
G03*
X9674860Y6014720I-5080J0D01*
G01*
X3118931Y7310173D02*
X4043897Y6385206D01*
X3278779Y7470021D02*
X4203745Y6545055D01*
X4043897Y6385206D02*
X4203745Y6545055D01*
X3118931Y7310173D02*
X3278779Y7470021D01*
X7416820Y7801620D02*
Y7961620D01*
X7736820Y7801620D02*
Y7961620D01*
X5982080Y7995900D02*
X6142080D01*
X5982080Y7675900D02*
X6142080D01*
X7062027Y5011509D02*
X7221875Y5171357D01*
X7986993Y4086543D02*
X8146841Y4246391D01*
X7221875Y5171357D02*
X8146841Y4246391D01*
X7062027Y5011509D02*
X7986993Y4086543D01*
X7224587Y5174069D02*
X7384435Y5333917D01*
X8149553Y4249103D02*
X8309401Y4408951D01*
X7384435Y5333917D02*
X8309401Y4408951D01*
X7224587Y5174069D02*
X8149553Y4249103D01*
X10268565Y8046802D02*
X10428413Y8206651D01*
X9343599Y8971769D02*
X9503447Y9131617D01*
X9343599Y8971769D02*
X10268565Y8046802D01*
X9503447Y9131617D02*
X10428413Y8206651D01*
X10447381Y8214479D02*
X10607229Y8374327D01*
X9522415Y9139445D02*
X9682263Y9299294D01*
X9522415Y9139445D02*
X10447381Y8214479D01*
X9682263Y9299294D02*
X10607229Y8374327D01*
X6313785Y10584262D02*
X6473633Y10744111D01*
X5388819Y11509229D02*
X5548667Y11669077D01*
X5388819Y11509229D02*
X6313785Y10584262D01*
X5548667Y11669077D02*
X6473633Y10744111D01*
X6507841Y10757019D02*
X6667689Y10916867D01*
X5582875Y11681985D02*
X5742723Y11841834D01*
X5582875Y11681985D02*
X6507841Y10757019D01*
X5742723Y11841834D02*
X6667689Y10916867D01*
X3301811Y7487973D02*
X3461659Y7647821D01*
X4226777Y6563006D02*
X4386625Y6722855D01*
X3461659Y7647821D02*
X4386625Y6722855D01*
X3301811Y7487973D02*
X4226777Y6563006D01*
X9555480Y10708640D02*
X10053320Y11262360D01*
X9530080Y11785600D02*
X10053320Y11262360D01*
X7716520Y11287760D02*
X10053320Y11262360D01*
X4193540Y11678920D02*
X4483100Y11135360D01*
X3822700Y11061700D02*
X4193540Y11678920D01*
X4186242Y9664699D02*
X4193540Y11678920D01*
X3215640Y4930140D02*
X3522980Y4650740D01*
X3215640Y4930140D02*
X3624580Y5247640D01*
X3215640Y4930140D02*
X5153660Y4940300D01*
X9679940Y4246880D02*
X10010140Y4765040D01*
X9339580Y4777740D02*
X9679940Y4246880D01*
Y6009640D01*
D30*
X10323935Y7983220D02*
G03*
X10323935Y7963220I0J-10000D01*
G01*
D02*
G03*
X10323935Y7983220I0J10000D01*
G01*
X7012940Y4230365D02*
G03*
X6992940Y4230365I-10000J0D01*
G01*
D02*
G03*
X7012940Y4230365I10000J0D01*
G01*
X3417465Y7708900D02*
G03*
X3417465Y7728900I0J10000D01*
G01*
D02*
G03*
X3417465Y7708900I0J-10000D01*
G01*
X6736080Y11515195D02*
G03*
X6756080Y11515195I10000J0D01*
G01*
D02*
G03*
X6736080Y11515195I-10000J0D01*
G01*
X6513220Y8561260D02*
Y8654760D01*
X6446720Y8689760D02*
X7233720D01*
Y9178761D01*
X6446720D02*
X7233720D01*
X6446720Y8689760D02*
Y9178761D01*
X5914873Y8065453D02*
X6196086D01*
X5914873Y8246667D02*
X6196086D01*
X7331273Y8138564D02*
Y8419777D01*
X7512487Y8138564D02*
Y8419777D01*
D31*
X5396455Y11974262D02*
X5504183Y12081990D01*
X5558047Y12028126D01*
Y11992216D01*
X5522138Y11956307D01*
X5486228D01*
X5432364Y12010171D01*
X5468274Y11974262D02*
Y11902443D01*
X5576002Y11794715D02*
X5504183Y11866533D01*
X5647821D01*
X5665775Y11884488D01*
Y11920398D01*
X5629866Y11956307D01*
X5593957D01*
X4704047Y5410200D02*
X4602480D01*
X4704047Y5511767D01*
Y5537159D01*
X4678655Y5562551D01*
X4627872D01*
X4602480Y5537159D01*
X4754831Y5562551D02*
X4856398D01*
Y5537159D01*
X4754831Y5435592D01*
Y5410200D01*
X4907181Y5537159D02*
X4932573Y5562551D01*
X4983357D01*
X5008749Y5537159D01*
Y5435592D01*
X4983357Y5410200D01*
X4932573D01*
X4907181Y5435592D01*
Y5537159D01*
X3680460Y10269220D02*
X3731243D01*
X3705852D01*
Y10421571D01*
X3680460Y10396179D01*
X3807419D02*
X3832811Y10421571D01*
X3883594D01*
X3908986Y10396179D01*
Y10370787D01*
X3883594Y10345395D01*
X3908986Y10320003D01*
Y10294612D01*
X3883594Y10269220D01*
X3832811D01*
X3807419Y10294612D01*
Y10320003D01*
X3832811Y10345395D01*
X3807419Y10370787D01*
Y10396179D01*
X3832811Y10345395D02*
X3883594D01*
X3959770Y10396179D02*
X3985161Y10421571D01*
X4035945D01*
X4061337Y10396179D01*
Y10294612D01*
X4035945Y10269220D01*
X3985161D01*
X3959770Y10294612D01*
Y10396179D01*
X9710420Y10370812D02*
X9735812Y10345420D01*
X9786595D01*
X9811987Y10370812D01*
Y10472379D01*
X9786595Y10497771D01*
X9735812D01*
X9710420Y10472379D01*
Y10446987D01*
X9735812Y10421595D01*
X9811987D01*
X9862771Y10472379D02*
X9888163Y10497771D01*
X9938946D01*
X9964338Y10472379D01*
Y10370812D01*
X9938946Y10345420D01*
X9888163D01*
X9862771Y10370812D01*
Y10472379D01*
X9050020Y6012139D02*
X9075412Y6037531D01*
X9126195D01*
X9151587Y6012139D01*
Y5910572D01*
X9126195Y5885180D01*
X9075412D01*
X9050020Y5910572D01*
Y6012139D01*
X7769922Y7292315D02*
X7820705D01*
X7795314D01*
Y7139965D01*
X7769922D01*
X7820705D01*
X7998448Y7266923D02*
X7973056Y7292315D01*
X7922272D01*
X7896881Y7266923D01*
Y7165357D01*
X7922272Y7139965D01*
X7973056D01*
X7998448Y7165357D01*
X8049231Y7266923D02*
X8074623Y7292315D01*
X8125407D01*
X8150799Y7266923D01*
Y7241532D01*
X8125407Y7216140D01*
X8100015D01*
X8125407D01*
X8150799Y7190748D01*
Y7165357D01*
X8125407Y7139965D01*
X8074623D01*
X8049231Y7165357D01*
X5842062Y7477735D02*
X5892845D01*
X5867454D01*
Y7325385D01*
X5842062D01*
X5892845D01*
X6070588Y7452343D02*
X6045196Y7477735D01*
X5994412D01*
X5969021Y7452343D01*
Y7350777D01*
X5994412Y7325385D01*
X6045196D01*
X6070588Y7350777D01*
X6222939Y7477735D02*
X6172155Y7452343D01*
X6121371Y7401560D01*
Y7350777D01*
X6146763Y7325385D01*
X6197547D01*
X6222939Y7350777D01*
Y7376168D01*
X6197547Y7401560D01*
X6121371D01*
X10401362Y7561555D02*
X10452145D01*
X10426754D01*
Y7409205D01*
X10401362D01*
X10452145D01*
X10629888Y7536163D02*
X10604496Y7561555D01*
X10553712D01*
X10528321Y7536163D01*
Y7434597D01*
X10553712Y7409205D01*
X10604496D01*
X10629888Y7434597D01*
X10782239Y7561555D02*
X10680671D01*
Y7485380D01*
X10731455Y7510772D01*
X10756847D01*
X10782239Y7485380D01*
Y7434597D01*
X10756847Y7409205D01*
X10706063D01*
X10680671Y7434597D01*
X6593840Y12296091D02*
X6644623D01*
X6619232D01*
Y12143740D01*
X6593840D01*
X6644623D01*
X6822366Y12270699D02*
X6796974Y12296091D01*
X6746191D01*
X6720799Y12270699D01*
Y12169132D01*
X6746191Y12143740D01*
X6796974D01*
X6822366Y12169132D01*
X6949325Y12143740D02*
Y12296091D01*
X6873150Y12219915D01*
X6974717D01*
X2890520Y8379411D02*
X2941303D01*
X2915912D01*
Y8227060D01*
X2890520D01*
X2941303D01*
X3119046Y8354019D02*
X3093654Y8379411D01*
X3042871D01*
X3017479Y8354019D01*
Y8252452D01*
X3042871Y8227060D01*
X3093654D01*
X3119046Y8252452D01*
X3271397Y8227060D02*
X3169830D01*
X3271397Y8328627D01*
Y8354019D01*
X3246005Y8379411D01*
X3195221D01*
X3169830Y8354019D01*
X6738674Y3655035D02*
X6789457D01*
X6764065D01*
Y3502685D01*
X6738674D01*
X6789457D01*
X6967200Y3629643D02*
X6941808Y3655035D01*
X6891024D01*
X6865632Y3629643D01*
Y3528077D01*
X6891024Y3502685D01*
X6941808D01*
X6967200Y3528077D01*
X7017983Y3502685D02*
X7068767D01*
X7043375D01*
Y3655035D01*
X7017983Y3629643D01*
X10125582Y8915749D02*
X10233311Y9023478D01*
X10287175Y8969613D01*
Y8933704D01*
X10251266Y8897794D01*
X10215356D01*
X10161492Y8951658D01*
X10197401Y8915749D02*
Y8843930D01*
X10323084Y8897794D02*
X10358994D01*
X10394903Y8861885D01*
Y8825975D01*
X10376949Y8808021D01*
X10341039D01*
Y8772111D01*
X10323084Y8754157D01*
X10287175D01*
X10251266Y8790066D01*
Y8825976D01*
X10269220Y8843930D01*
X10305130D01*
Y8879840D01*
X10323084Y8897794D01*
X10305130Y8843930D02*
X10341039Y8808021D01*
X8055482Y4051649D02*
X8163211Y4159378D01*
X8217075Y4105513D01*
Y4069604D01*
X8181166Y4033694D01*
X8145256D01*
X8091392Y4087559D01*
X8127301Y4051649D02*
Y3979830D01*
X8270939Y4051649D02*
X8342758Y3979830D01*
X8324803Y3961875D01*
X8181166Y3961876D01*
X8163211Y3943921D01*
X9724262Y8275669D02*
X9831991Y8383398D01*
X9885855Y8329533D01*
Y8293624D01*
X9849946Y8257714D01*
X9814036D01*
X9760172Y8311579D01*
X9796081Y8275669D02*
Y8203850D01*
X10011538D02*
X9957674Y8221805D01*
X9885855D01*
X9849946Y8185896D01*
Y8149986D01*
X9885855Y8114077D01*
X9921764D01*
X9939719Y8132031D01*
Y8167941D01*
X9885855Y8221805D01*
X8228202Y4229449D02*
X8335931Y4337178D01*
X8389795Y4283313D01*
Y4247404D01*
X8353886Y4211494D01*
X8317976D01*
X8264112Y4265358D01*
X8300021Y4229449D02*
Y4157630D01*
X8515478D02*
X8443659Y4229449D01*
X8389795Y4175585D01*
X8443659Y4157630D01*
X8461614Y4139676D01*
Y4103766D01*
X8425704Y4067857D01*
X8389795D01*
X8353886Y4103766D01*
Y4139676D01*
X5204586Y11796073D02*
X5312315Y11903801D01*
X5366179Y11849937D01*
Y11814027D01*
X5330270Y11778118D01*
X5294360D01*
X5240496Y11831982D01*
X5276405Y11796073D02*
Y11724254D01*
X5366179Y11634480D02*
X5473907Y11742209D01*
X5366179D01*
X5437998Y11670390D01*
X3336162Y6805009D02*
X3443891Y6912738D01*
X3497755Y6858873D01*
Y6822964D01*
X3461846Y6787054D01*
X3425936D01*
X3372072Y6840918D01*
X3407981Y6805009D02*
Y6733190D01*
X3533664Y6787054D02*
X3569574D01*
X3605483Y6751145D01*
Y6715235D01*
X3587529Y6697281D01*
X3551619D01*
X3533664Y6715236D01*
X3551619Y6697281D01*
Y6661371D01*
X3533664Y6643417D01*
X3497755D01*
X3461846Y6679326D01*
Y6715236D01*
X3915457Y7289974D02*
X4023186Y7397703D01*
X4077050Y7343838D01*
Y7307929D01*
X4041140Y7272020D01*
X4005231D01*
X3951366Y7325884D01*
X3987276Y7289974D02*
Y7218156D01*
X4023186Y7182246D02*
X4059095Y7146337D01*
X4041140Y7164291D01*
X4148869Y7272020D01*
X4112959D01*
X7569233Y9060155D02*
X7670800D01*
X7620017D01*
Y8907805D01*
X7721584D02*
X7772367D01*
X7746976D01*
Y9060155D01*
X7721584Y9034763D01*
X5100382Y8089925D02*
Y8242275D01*
X5176557D01*
X5201949Y8216883D01*
Y8166100D01*
X5176557Y8140708D01*
X5100382D01*
X5151165D02*
X5201949Y8089925D01*
X5252732D02*
X5303516D01*
X5278124D01*
Y8242275D01*
X5252732Y8216883D01*
X5379691D02*
X5405083Y8242275D01*
X5455867D01*
X5481259Y8216883D01*
Y8115317D01*
X5455867Y8089925D01*
X5405083D01*
X5379691Y8115317D01*
Y8216883D01*
X7955321Y8039125D02*
Y8191475D01*
X8031497D01*
X8056888Y8166083D01*
Y8115300D01*
X8031497Y8089908D01*
X7955321D01*
X8006105D02*
X8056888Y8039125D01*
X8107672Y8064517D02*
X8133064Y8039125D01*
X8183847D01*
X8209239Y8064517D01*
Y8166083D01*
X8183847Y8191475D01*
X8133064D01*
X8107672Y8166083D01*
Y8140692D01*
X8133064Y8115300D01*
X8209239D01*
%TF.MD5,d7f52b4385e4925673ba25ac68cd2597*%
M02*
