%TF.GenerationSoftware,Altium Limited,Altium Designer,25.8.1 (18)*%
G04 Layer_Physical_Order=2*
G04 Layer_Color=16711680*
%FSLAX45Y45*%
%MOMM*%
%TF.SameCoordinates,C1BB3922-C825-4BE3-8BC7-E8AFE5BE402A*%
%TF.FilePolarity,Positive*%
%TF.FileFunction,Copper,L2,Bot,Signal*%
%TF.Part,Single*%
G01*
G75*
%TA.AperFunction,ComponentPad*%
%ADD21C,1.52400*%
%TA.AperFunction,ViaPad*%
%ADD22C,3.20000*%
%TA.AperFunction,ComponentPad*%
%ADD23C,2.55000*%
%ADD24C,2.25000*%
%TA.AperFunction,ViaPad*%
%ADD25C,0.70000*%
%TA.AperFunction,SMDPad,CuDef*%
%ADD26R,1.10000X1.45000*%
%ADD27R,1.35000X2.90000*%
%TA.AperFunction,Conductor*%
%ADD28C,0.70000*%
G36*
X11109227Y12539832D02*
X11145949Y12531535D01*
X11181274Y12518516D01*
X11214597Y12500998D01*
X11245348Y12479279D01*
X11273001Y12453733D01*
X11297083Y12424796D01*
X11317182Y12392962D01*
X11332954Y12358778D01*
X11344128Y12322827D01*
X11350515Y12285726D01*
X11351259Y12266917D01*
X11351259D01*
X11351260Y12266916D01*
Y12240260D01*
X11353517Y12234324D01*
X11352116Y12232922D01*
X11351358Y12231091D01*
X11351260Y12230100D01*
X11351259Y3491407D01*
X11351260Y3473332D01*
X11346542Y3437492D01*
X11337186Y3402574D01*
X11323353Y3369176D01*
X11305279Y3337870D01*
X11283272Y3309190D01*
X11257711Y3283629D01*
X11229032Y3261622D01*
X11197725Y3243547D01*
X11164328Y3229714D01*
X11129410Y3220358D01*
X11093570Y3215640D01*
X11075495Y3215640D01*
X2662276D01*
X2637237Y3215604D01*
X2588108Y3225313D01*
X2541822Y3244428D01*
X2500159Y3272213D01*
X2464723Y3307599D01*
X2436879Y3349223D01*
X2417698Y3395483D01*
X2407920Y3444597D01*
X2407920Y3469636D01*
X2407920Y12259515D01*
X2407945Y12278073D01*
X2412835Y12314866D01*
X2422481Y12350707D01*
X2436719Y12384983D01*
X2455306Y12417110D01*
X2477924Y12446538D01*
X2504186Y12472766D01*
X2533645Y12495344D01*
X2565797Y12513888D01*
X2600092Y12528080D01*
X2635946Y12537678D01*
X2672745Y12542519D01*
X2691303Y12542518D01*
X2691303Y12542519D01*
X11052928Y12542519D01*
X11071737Y12543265D01*
X11109227Y12539832D01*
D02*
G37*
%LPC*%
G36*
X9321800Y12355183D02*
X6080760D01*
X6057193Y12350495D01*
X6037214Y12337146D01*
X5934895Y12234827D01*
X5627241D01*
X5617520Y12230801D01*
X5617520Y12230801D01*
X5320686Y11933966D01*
X4800990Y11933966D01*
X4796909Y11932276D01*
X4792640Y11931139D01*
X4716050Y11872570D01*
X4715568Y11871739D01*
X4714680Y11871371D01*
X4712989Y11867290D01*
X4710774Y11863467D01*
X4703988Y11852420D01*
X4558360D01*
Y11656620D01*
X4710654D01*
Y11488420D01*
X4714680Y11478700D01*
X4714680Y11478699D01*
X5001700Y11191680D01*
X5011420Y11187653D01*
X5011421Y11187654D01*
X5740400D01*
X5750120Y11191680D01*
X6146360Y11587920D01*
X6150387Y11597640D01*
X6150386Y11597641D01*
Y12062460D01*
X6146360Y12072180D01*
X6146360Y12072181D01*
X6046396Y12172144D01*
X6106269Y12232017D01*
X9296291D01*
X9765677Y11762631D01*
Y9553986D01*
X9748521D01*
X9748520Y9553987D01*
X9738800Y9549960D01*
X9352719Y9163880D01*
X9348693Y9154160D01*
X9348693Y9154159D01*
X9348694Y8940800D01*
X9348693Y8940799D01*
X9352720Y8931079D01*
X9492420Y8791379D01*
X9502140Y8787353D01*
X9502141Y8787353D01*
X9672319Y8787354D01*
X9672320Y8787353D01*
X9682040Y8791380D01*
X10035100Y9144440D01*
X10039127Y9154160D01*
X10039126Y9154161D01*
Y9400540D01*
X10035100Y9410260D01*
X10035100Y9410261D01*
X9895400Y9549960D01*
X9888843Y9552676D01*
Y11788140D01*
X9884155Y11811707D01*
X9870806Y11831686D01*
X9365346Y12337146D01*
X9345367Y12350495D01*
X9321800Y12355183D01*
D02*
G37*
G36*
X6896475Y7983960D02*
X6860165D01*
X6825093Y7974562D01*
X6793647Y7956408D01*
X6767972Y7930733D01*
X6749818Y7899287D01*
X6740420Y7864215D01*
Y7827905D01*
X6749818Y7792833D01*
X6767972Y7761387D01*
X6793647Y7735712D01*
X6825093Y7717558D01*
X6860165Y7708160D01*
X6896475D01*
X6931547Y7717558D01*
X6962993Y7735712D01*
X6988668Y7761387D01*
X7006822Y7792833D01*
X7016220Y7827905D01*
Y7864215D01*
X7006822Y7899287D01*
X6988668Y7930733D01*
X6962993Y7956408D01*
X6931547Y7974562D01*
X6896475Y7983960D01*
D02*
G37*
G36*
X4356100Y6909847D02*
X4356099Y6909846D01*
X4134889D01*
X4130441Y6908004D01*
X4125875Y6906479D01*
X3816227Y6637573D01*
X3815996Y6637112D01*
X3815520Y6636914D01*
X3813678Y6632467D01*
X3811527Y6628160D01*
X3811691Y6627670D01*
X3811494Y6627194D01*
Y6436361D01*
X3811493Y6436360D01*
X3815519Y6426639D01*
X3815521Y6426639D01*
X4031420Y6210740D01*
X4041140Y6206713D01*
X4041141Y6206714D01*
X4208779D01*
X4213237Y6203735D01*
Y4231640D01*
X4217925Y4208073D01*
X4231274Y4188094D01*
X4967874Y3451494D01*
X4987853Y3438145D01*
X5011420Y3433457D01*
X7459980D01*
X7483547Y3438145D01*
X7503526Y3451494D01*
X7848135Y3796103D01*
X7875256Y3768983D01*
X7875342Y3768948D01*
X7875378Y3768862D01*
X7880175Y3766945D01*
X7884976Y3764957D01*
X7885062Y3764992D01*
X7885148Y3764958D01*
X8480449Y3772400D01*
X8482135Y3773124D01*
X8483956Y3772901D01*
X8486800Y3775125D01*
X8490118Y3776548D01*
X8490799Y3778252D01*
X8492244Y3779382D01*
X8535305Y3855566D01*
X8546160Y3860020D01*
X8550583Y3860020D01*
X8706960D01*
Y4055820D01*
X8552468D01*
X8546160Y4055820D01*
X8539727Y4065856D01*
X8537986Y4495856D01*
X8535943Y4500732D01*
X8533960Y4505520D01*
X8533921Y4505559D01*
X8533921Y4505560D01*
X8533920Y4505560D01*
X8466931Y4572550D01*
X8457210Y4576576D01*
X8457210Y4576576D01*
X7991830D01*
X7982109Y4572550D01*
X7982109Y4572549D01*
X7691560Y4282000D01*
X7687533Y4272280D01*
X7687534Y4272279D01*
Y3962401D01*
X7687533Y3962400D01*
X7691560Y3952680D01*
X7761044Y3883196D01*
X7434471Y3556623D01*
X5036929D01*
X4336403Y4257149D01*
Y6328643D01*
X4576640Y6568879D01*
X4580667Y6578599D01*
X4580666Y6578600D01*
Y6685280D01*
X4576640Y6695000D01*
X4576640Y6695001D01*
X4365820Y6905820D01*
X4356100Y6909847D01*
D02*
G37*
%LPD*%
G36*
X6136640Y12062460D02*
Y11597640D01*
X5740400Y11201400D01*
X5011420D01*
X4724400Y11488420D01*
Y11861650D01*
X4800990Y11920219D01*
X5326380Y11920220D01*
X5627241Y12221081D01*
X5978019D01*
X6136640Y12062460D01*
D02*
G37*
G36*
X10025380Y9400540D02*
Y9154160D01*
X9672320Y8801100D01*
X9502140Y8801100D01*
X9362440Y8940799D01*
X9362440Y9154160D01*
X9748520Y9540240D01*
X9885680D01*
X10025380Y9400540D01*
D02*
G37*
G36*
X4566920Y6685280D02*
Y6578599D01*
X4208780Y6220460D01*
X4041140D01*
X3825240Y6436360D01*
Y6627194D01*
X4134889Y6896100D01*
X4356100D01*
X4566920Y6685280D01*
D02*
G37*
G36*
X8524240Y4495800D02*
X8526780Y3868420D01*
X8480277Y3786146D01*
X7884976Y3778703D01*
X7701280Y3962400D01*
Y4272280D01*
X7991830Y4562830D01*
X8457210D01*
X8524240Y4495800D01*
D02*
G37*
D21*
X3314700Y7279640D02*
D03*
X4022344Y6568404D02*
D03*
X3497580Y7457440D02*
D03*
X6471920Y10947400D02*
D03*
X6277864Y10774643D02*
D03*
X10411460Y8404860D02*
D03*
X10232644Y8237183D02*
D03*
X7420356Y5143536D02*
D03*
X7257796Y4980977D02*
D03*
X4205224Y6746204D02*
D03*
X8128000Y4432300D02*
D03*
X7965440Y4269740D02*
D03*
X9525000Y8948420D02*
D03*
X9703816Y9116097D02*
D03*
X5570220Y11485880D02*
D03*
X5764276Y11658637D02*
D03*
D22*
X10875280Y3578860D02*
D03*
D23*
X7132320Y8100060D02*
D03*
X6624320D02*
D03*
Y7592060D02*
D03*
X7132320D02*
D03*
D24*
X6878320Y7846060D02*
D03*
D25*
X5481429Y7637183D02*
D03*
X5961429Y7637426D02*
D03*
X5474278Y7836617D02*
D03*
X3383993Y7730872D02*
D03*
X3978505Y8181788D02*
D03*
X4869693Y8005378D02*
D03*
X4445206Y8138638D02*
D03*
X4347714Y7688089D02*
D03*
X4517091Y8042552D02*
D03*
X4526937Y7802957D02*
D03*
X5361429Y7637183D02*
D03*
X3790139Y7581620D02*
D03*
X4881429Y7637183D02*
D03*
X3533244Y8131955D02*
D03*
X4787059Y8092394D02*
D03*
X5721430Y7637183D02*
D03*
X4330386Y8173516D02*
D03*
X4885077Y7886368D02*
D03*
X4994278Y7836617D02*
D03*
X3502771Y7747952D02*
D03*
X5121429Y7637183D02*
D03*
X5601429D02*
D03*
X5834278Y7836617D02*
D03*
X4135389Y7587238D02*
D03*
X3905497Y7614676D02*
D03*
X4217763Y8132090D02*
D03*
X5114278Y7836617D02*
D03*
X5841430Y7637183D02*
D03*
X4765560Y7668396D02*
D03*
X3459014Y8037669D02*
D03*
X3759468Y8109228D02*
D03*
X4428755Y7599588D02*
D03*
X5354278Y7836617D02*
D03*
X5594278D02*
D03*
X5234278D02*
D03*
X4657458Y7616301D02*
D03*
X4149906Y8033118D02*
D03*
X5241429Y7637183D02*
D03*
X4667789Y8105605D02*
D03*
X3366188Y7961621D02*
D03*
X4251944Y7615783D02*
D03*
X4089833Y8136999D02*
D03*
X3210604Y7839567D02*
D03*
X5001429Y7637183D02*
D03*
X4545687Y7572627D02*
D03*
X4526937Y7922957D02*
D03*
X3650197Y8158825D02*
D03*
X3621815Y7732831D02*
D03*
X4024189Y7632344D02*
D03*
X3679242Y7627464D02*
D03*
X11100001Y11400001D02*
D03*
X10800001Y10800001D02*
D03*
X11100001Y10200001D02*
D03*
X10800001Y9600001D02*
D03*
X11100001Y9000001D02*
D03*
X10800001Y8400001D02*
D03*
X11100001Y7800001D02*
D03*
X10800001Y7200001D02*
D03*
X11100001Y6600001D02*
D03*
X10800001Y6000001D02*
D03*
X11100001Y5400001D02*
D03*
X10800001Y4800001D02*
D03*
X11100001Y4200000D02*
D03*
X10200001Y12000001D02*
D03*
X10500001Y11400001D02*
D03*
X10200001Y10800001D02*
D03*
X10500001Y10200001D02*
D03*
X10200001Y9600001D02*
D03*
X10500001Y9000001D02*
D03*
X10200001Y7200001D02*
D03*
X10500001Y6600001D02*
D03*
X10200001Y6000001D02*
D03*
X10500001Y5400001D02*
D03*
X10200001Y4800001D02*
D03*
X10500001Y4200000D02*
D03*
X10200001Y3600000D02*
D03*
X9600001Y8400001D02*
D03*
Y7200001D02*
D03*
X9900001Y6600001D02*
D03*
X9600001Y6000001D02*
D03*
X9900001Y5400001D02*
D03*
X9600001Y4800001D02*
D03*
X9900001Y4200000D02*
D03*
X9600001Y3600000D02*
D03*
X9000001Y12000001D02*
D03*
X9300001Y11400001D02*
D03*
X9000001Y10800001D02*
D03*
X9300001Y10200001D02*
D03*
X9000001Y9600001D02*
D03*
Y7200001D02*
D03*
X9300001Y6600001D02*
D03*
X9000001Y6000001D02*
D03*
X9300001Y5400001D02*
D03*
X9000001Y4800001D02*
D03*
X9300001Y4200000D02*
D03*
X8400001Y12000001D02*
D03*
X8700001Y11400001D02*
D03*
X8400001Y10800001D02*
D03*
X8700001Y10200001D02*
D03*
X8400001Y9600001D02*
D03*
X8700001Y9000001D02*
D03*
Y6600001D02*
D03*
X8400001Y6000001D02*
D03*
X8700001Y5400001D02*
D03*
X8400001Y4800001D02*
D03*
X7800001Y12000001D02*
D03*
X8100001Y11400001D02*
D03*
X7800001Y10800001D02*
D03*
X8100001Y10200001D02*
D03*
X7800001Y9600001D02*
D03*
X8100001Y9000001D02*
D03*
Y6600001D02*
D03*
X7800001Y6000001D02*
D03*
X8100001Y5400001D02*
D03*
X7800001Y4800001D02*
D03*
X7500001Y11400001D02*
D03*
Y10200001D02*
D03*
Y4200000D02*
D03*
X6300001Y11400001D02*
D03*
Y10200001D02*
D03*
X6000001Y7200001D02*
D03*
X6300001Y6600001D02*
D03*
X6000001Y6000001D02*
D03*
X6300001Y5400001D02*
D03*
X6000001Y4800001D02*
D03*
X6300001Y4200000D02*
D03*
X5400001Y10800001D02*
D03*
X5700001Y10200001D02*
D03*
X5400001Y9600001D02*
D03*
X5700001Y9000001D02*
D03*
X5400001Y7200001D02*
D03*
X5700001Y6600001D02*
D03*
X5400001Y6000001D02*
D03*
X5700001Y5400001D02*
D03*
X5400001Y4800001D02*
D03*
X5700001Y4200000D02*
D03*
X4800001Y10800001D02*
D03*
X5100000Y10200001D02*
D03*
X4800001Y9600001D02*
D03*
X5100000Y9000001D02*
D03*
X4800001Y8400001D02*
D03*
Y7200001D02*
D03*
X5100000Y6600001D02*
D03*
X4800001Y6000001D02*
D03*
X5100000Y5400001D02*
D03*
X4800001Y4800001D02*
D03*
X5100000Y4200000D02*
D03*
X4500000Y11400001D02*
D03*
X4200000Y10800001D02*
D03*
X4500000Y10200001D02*
D03*
X4200000Y9600001D02*
D03*
X4500000Y9000001D02*
D03*
X4200000Y7200001D02*
D03*
Y3600000D02*
D03*
X3900000Y11400001D02*
D03*
X3600000Y10800001D02*
D03*
X3900000Y10200001D02*
D03*
X3600000Y9600001D02*
D03*
X3900000Y9000001D02*
D03*
X3600000Y6000001D02*
D03*
X3900000Y5400001D02*
D03*
X3600000Y4800001D02*
D03*
X3900000Y4200000D02*
D03*
X3600000Y3600000D02*
D03*
X3300000Y11400001D02*
D03*
X3000000Y10800001D02*
D03*
X3300000Y10200001D02*
D03*
X3000000Y9600001D02*
D03*
X3300000Y9000001D02*
D03*
X3000000Y8400001D02*
D03*
Y7200001D02*
D03*
X3300000Y6600001D02*
D03*
X3000000Y6000001D02*
D03*
X3300000Y5400001D02*
D03*
X3000000Y4800001D02*
D03*
X3300000Y4200000D02*
D03*
X8370937Y8256677D02*
D03*
X8298885Y8160715D02*
D03*
X8282283Y8041869D02*
D03*
Y7921869D02*
D03*
X8282283Y7801869D02*
D03*
X8282283Y7681869D02*
D03*
X8257447Y7564467D02*
D03*
X8138077Y7552187D02*
D03*
X8018077D02*
D03*
X7898077D02*
D03*
X7781343Y7579991D02*
D03*
X7775538Y7699850D02*
D03*
X7771881Y7819795D02*
D03*
X7692376Y7391370D02*
D03*
X7806443Y7354105D02*
D03*
X7926435Y7352752D02*
D03*
X8046435D02*
D03*
X8166435D02*
D03*
X8286137Y7361212D02*
D03*
X8392316Y7417122D02*
D03*
X8462345Y7514569D02*
D03*
X8525364Y8104776D02*
D03*
X8546443Y7986642D02*
D03*
Y7866642D02*
D03*
Y7746642D02*
D03*
X8551938Y7626768D02*
D03*
X8605969Y7519620D02*
D03*
X8704976Y7451814D02*
D03*
X8824458Y7440668D02*
D03*
X8934058Y7489534D02*
D03*
X9006655Y7585083D02*
D03*
X9025277Y7703629D02*
D03*
X9030820Y7943501D02*
D03*
X9075445Y7832107D02*
D03*
X9172284Y7761239D02*
D03*
X9291521Y7747732D02*
D03*
X9411521D02*
D03*
X9531521D02*
D03*
X9651521D02*
D03*
X9771521D02*
D03*
X9891521D02*
D03*
X10011522D02*
D03*
X10131522D02*
D03*
X10251522D02*
D03*
X10370278Y7730499D02*
D03*
X10530796Y7848932D02*
D03*
X10363092Y7961621D02*
D03*
X10243965Y7947166D02*
D03*
X10123965D02*
D03*
X10003965D02*
D03*
X9883965D02*
D03*
X9763965D02*
D03*
X9643965D02*
D03*
X9523965D02*
D03*
X9403965D02*
D03*
X9283965D02*
D03*
X9224335Y8051302D02*
D03*
X9168264Y8157397D02*
D03*
X9062633Y8214335D02*
D03*
X8943285Y8201836D02*
D03*
X8853067Y8122711D02*
D03*
X8746250Y7676035D02*
D03*
X8745878Y7796035D02*
D03*
Y7916035D02*
D03*
Y8036035D02*
D03*
X8731334Y8155150D02*
D03*
X8661742Y8252910D02*
D03*
X8552939Y8303525D02*
D03*
X6255456Y7637183D02*
D03*
X6135512Y7640839D02*
D03*
X6372297Y7664537D02*
D03*
X6441795Y7762364D02*
D03*
X5742887Y7850074D02*
D03*
X6972957Y11489776D02*
D03*
Y11369776D02*
D03*
Y11249776D02*
D03*
Y11129776D02*
D03*
Y11009776D02*
D03*
Y10889776D02*
D03*
Y10769776D02*
D03*
Y10649775D02*
D03*
Y10529775D02*
D03*
Y10409775D02*
D03*
Y10289775D02*
D03*
Y10169775D02*
D03*
Y10049775D02*
D03*
Y9929775D02*
D03*
X6970363Y9809803D02*
D03*
X6920592Y9700611D02*
D03*
X6819816Y9635465D02*
D03*
X6700194Y9625943D02*
D03*
X6580194D02*
D03*
X6460194D02*
D03*
X6340194D02*
D03*
X6220308Y9620715D02*
D03*
X6183017Y9506657D02*
D03*
Y9386657D02*
D03*
Y9266657D02*
D03*
Y9146657D02*
D03*
Y9026657D02*
D03*
Y8906657D02*
D03*
Y8786657D02*
D03*
Y8666657D02*
D03*
Y8546657D02*
D03*
X6177792Y8426770D02*
D03*
X6114453Y8324848D02*
D03*
X6003056Y8280229D02*
D03*
X5883057Y8279743D02*
D03*
X5807097Y8186845D02*
D03*
Y8066845D02*
D03*
X5922688Y8034617D02*
D03*
X5647956Y7923479D02*
D03*
X5607835Y8036573D02*
D03*
X5607663Y8156573D02*
D03*
X5607648Y8276573D02*
D03*
X5646141Y8390232D02*
D03*
X5740624Y8464211D02*
D03*
X5859687Y8479177D02*
D03*
X5979687D02*
D03*
X5983583Y8599114D02*
D03*
Y8719114D02*
D03*
Y8839114D02*
D03*
Y8959114D02*
D03*
Y9079114D02*
D03*
Y9199114D02*
D03*
Y9319114D02*
D03*
Y9439114D02*
D03*
Y9559114D02*
D03*
X6008775Y9676440D02*
D03*
X6083930Y9769990D02*
D03*
X6192922Y9820198D02*
D03*
X6312810Y9825377D02*
D03*
X6432810D02*
D03*
X6552810D02*
D03*
X6672810D02*
D03*
X6773523Y9890623D02*
D03*
Y10010623D02*
D03*
Y10130623D02*
D03*
Y10250623D02*
D03*
Y10370623D02*
D03*
Y10490623D02*
D03*
Y10610623D02*
D03*
Y10730623D02*
D03*
Y10850623D02*
D03*
Y10970623D02*
D03*
Y11090623D02*
D03*
Y11210623D02*
D03*
Y11330623D02*
D03*
Y11450623D02*
D03*
X6582068Y9514481D02*
D03*
X6662293Y9425239D02*
D03*
X6699271Y9311079D02*
D03*
X6695228Y9191147D02*
D03*
X6583196Y9148150D02*
D03*
X6474575Y9199154D02*
D03*
X6474231Y9319154D02*
D03*
X6447177Y9082243D02*
D03*
Y8962243D02*
D03*
Y8842243D02*
D03*
Y8722243D02*
D03*
Y8602243D02*
D03*
Y8482243D02*
D03*
Y8362243D02*
D03*
Y8242243D02*
D03*
Y8122243D02*
D03*
Y8002243D02*
D03*
Y7882243D02*
D03*
X6247743Y8071485D02*
D03*
Y8191485D02*
D03*
Y8311485D02*
D03*
X6320159Y9492966D02*
D03*
X7213854Y9617786D02*
D03*
X7328711Y9583033D02*
D03*
X7407379Y9492417D02*
D03*
X7427617Y9374136D02*
D03*
Y9254136D02*
D03*
Y9134136D02*
D03*
Y9014136D02*
D03*
Y8894136D02*
D03*
Y8774136D02*
D03*
X7498485Y8677297D02*
D03*
X7618435Y8673808D02*
D03*
X7723981Y8616713D02*
D03*
X7773719Y8507506D02*
D03*
X7775537Y8387520D02*
D03*
Y8267520D02*
D03*
Y8147520D02*
D03*
Y8027520D02*
D03*
X7767226Y7907808D02*
D03*
X7576103Y8198406D02*
D03*
Y8318406D02*
D03*
Y8438406D02*
D03*
X7462775Y8477863D02*
D03*
X7343483Y8490873D02*
D03*
X7252355Y8568948D02*
D03*
X7228183Y8686489D02*
D03*
Y8806489D02*
D03*
Y8926489D02*
D03*
Y9046489D02*
D03*
Y9166489D02*
D03*
Y9286489D02*
D03*
X7226956Y9406482D02*
D03*
X7071984Y9148150D02*
D03*
X6980659Y9225994D02*
D03*
X6993519Y9345303D02*
D03*
X7004719Y9464779D02*
D03*
X7070409Y9565203D02*
D03*
X7168148Y8372340D02*
D03*
X7074835Y8296892D02*
D03*
X6978037Y8225968D02*
D03*
X6987951Y7986378D02*
D03*
X7052580Y7885269D02*
D03*
X7037957Y7766163D02*
D03*
X6951023Y7683443D02*
D03*
X6831406Y7673864D02*
D03*
X6733150Y7742752D02*
D03*
X6700318Y7858174D02*
D03*
X6748110Y7968246D02*
D03*
X6778603Y8204307D02*
D03*
X6782963Y8324228D02*
D03*
X6841390Y8429043D02*
D03*
X6949407Y8481315D02*
D03*
X6980659Y8597174D02*
D03*
X7014891Y8712188D02*
D03*
X7577537Y7667460D02*
D03*
Y7547460D02*
D03*
Y7427460D02*
D03*
X7553467Y7309899D02*
D03*
X7473474Y7220450D02*
D03*
X7358763Y7185219D02*
D03*
X7238763Y7185003D02*
D03*
X7118763D02*
D03*
X6999004Y7177400D02*
D03*
X6975497Y7059726D02*
D03*
X7016245Y6946855D02*
D03*
X7136230Y6945017D02*
D03*
X7256185Y6941721D02*
D03*
X7365790Y6892866D02*
D03*
X7438358Y6797295D02*
D03*
X7454752Y6678420D02*
D03*
X7412535Y6566091D02*
D03*
X7320866Y6488653D02*
D03*
X7203501Y6463643D02*
D03*
X7083501D02*
D03*
X6975497Y6411344D02*
D03*
Y6291344D02*
D03*
Y6171344D02*
D03*
Y6051344D02*
D03*
Y5931344D02*
D03*
Y5811344D02*
D03*
Y5691344D02*
D03*
Y5571344D02*
D03*
Y5451344D02*
D03*
Y5331344D02*
D03*
Y5211344D02*
D03*
Y5091344D02*
D03*
Y4971344D02*
D03*
Y4851344D02*
D03*
Y4731344D02*
D03*
Y4611344D02*
D03*
Y4491344D02*
D03*
Y4371344D02*
D03*
Y4251344D02*
D03*
X6776063Y4251671D02*
D03*
Y4371671D02*
D03*
Y4491671D02*
D03*
Y4611671D02*
D03*
Y4731672D02*
D03*
Y4851672D02*
D03*
Y4971672D02*
D03*
Y5091672D02*
D03*
Y5211672D02*
D03*
Y5331672D02*
D03*
Y5451672D02*
D03*
Y5571672D02*
D03*
Y5691672D02*
D03*
Y5811672D02*
D03*
Y5931672D02*
D03*
Y6051672D02*
D03*
Y6171672D02*
D03*
Y6291672D02*
D03*
Y6411672D02*
D03*
X6803039Y6528600D02*
D03*
X6881555Y6619348D02*
D03*
X6994110Y6660958D02*
D03*
X7114091Y6663077D02*
D03*
X7233984Y6668162D02*
D03*
X6906690Y6777844D02*
D03*
X6818309Y6859016D02*
D03*
X6778104Y6972080D02*
D03*
X6776063Y7092063D02*
D03*
X6788463Y7211420D02*
D03*
X6851191Y7313720D02*
D03*
X6955041Y7373845D02*
D03*
X7074573Y7384437D02*
D03*
X7194573D02*
D03*
X7314573D02*
D03*
X7378103Y7486241D02*
D03*
Y7606241D02*
D03*
Y7726241D02*
D03*
X7383536Y7846118D02*
D03*
X7891780Y3926840D02*
D03*
X4274820Y6456680D02*
D03*
X9819640Y9410700D02*
D03*
X5857240Y12070080D02*
D03*
D26*
X8826560Y3957920D02*
D03*
X4438760Y11754520D02*
D03*
X8426560Y3957920D02*
D03*
X4638760Y11754520D02*
D03*
X4838760D02*
D03*
X8626560Y3957920D02*
D03*
D27*
X9116060Y3360420D02*
D03*
X8137060D02*
D03*
X4149260Y12352020D02*
D03*
X5128260D02*
D03*
D28*
X7891780Y3924300D02*
Y3926840D01*
X4274820Y6456680D02*
Y6497320D01*
X7459980Y3495040D02*
X7891780Y3926840D01*
X4274820Y4231640D02*
X5011420Y3495040D01*
X4274820Y4231640D02*
Y6456680D01*
X5011420Y3495040D02*
X7459980D01*
X9827260Y9410700D02*
Y11788140D01*
X9321800Y12293600D02*
X9827260Y11788140D01*
X5857240Y12070080D02*
X6080760Y12293600D01*
X9321800D01*
%TF.MD5,dfb7579eef653102fdfe68c646493fee*%
M02*
