%TF.GenerationSoftware,Altium Limited,Altium Designer,25.8.1 (18)*%
G04 Layer_Color=0*
%FSLAX45Y45*%
%MOMM*%
%TF.SameCoordinates,C1BB3922-C825-4BE3-8BC7-E8AFE5BE402A*%
%TF.FilePolarity,Positive*%
%TF.FileFunction,Plated,1,2,PTH,Drill*%
%TF.Part,Single*%
G01*
G75*
%TA.AperFunction,ComponentDrill*%
%ADD50C,0.76200*%
%TA.AperFunction,OtherDrill,Pad Free-2 (32.563mm,121.514mm)*%
%ADD51C,3.20000*%
%TA.AperFunction,OtherDrill,Pad Free-2 (28.753mm,35.789mm)*%
%ADD52C,3.20000*%
%TA.AperFunction,OtherDrill,Pad Free-2 (108.753mm,35.789mm)*%
%ADD53C,3.20000*%
%TA.AperFunction,OtherDrill,Pad Free-2 (106.248mm,121.488mm)*%
%ADD54C,3.20000*%
%TA.AperFunction,ComponentDrill*%
%ADD55C,1.70000*%
%ADD56C,1.50000*%
%TA.AperFunction,ViaDrill,NotFilled*%
%ADD57C,0.30000*%
D50*
X3314700Y7279640D02*
D03*
X4022344Y6568404D02*
D03*
X3497580Y7457440D02*
D03*
X6471920Y10947400D02*
D03*
X6277864Y10774643D02*
D03*
X10411460Y8404860D02*
D03*
X10232644Y8237183D02*
D03*
X7420356Y5143536D02*
D03*
X7257796Y4980977D02*
D03*
X4205224Y6746204D02*
D03*
X8128000Y4432300D02*
D03*
X7965440Y4269740D02*
D03*
X9525000Y8948420D02*
D03*
X9703816Y9116097D02*
D03*
X5570220Y11485880D02*
D03*
X5764276Y11658637D02*
D03*
D51*
X3256280Y12151360D02*
D03*
D52*
X2875280Y3578860D02*
D03*
D53*
X10875280D02*
D03*
D54*
X10624820Y12148820D02*
D03*
D55*
X7132320Y8100060D02*
D03*
X6624320D02*
D03*
Y7592060D02*
D03*
X7132320D02*
D03*
D56*
X6878320Y7846060D02*
D03*
D57*
X5481429Y7637183D02*
D03*
X5961429Y7637426D02*
D03*
X5474278Y7836617D02*
D03*
X3383993Y7730872D02*
D03*
X3978505Y8181788D02*
D03*
X4869693Y8005378D02*
D03*
X4445206Y8138638D02*
D03*
X4347714Y7688089D02*
D03*
X4517091Y8042552D02*
D03*
X4526937Y7802957D02*
D03*
X5361429Y7637183D02*
D03*
X3790139Y7581620D02*
D03*
X4881429Y7637183D02*
D03*
X3533244Y8131955D02*
D03*
X4787059Y8092394D02*
D03*
X5721430Y7637183D02*
D03*
X4330386Y8173516D02*
D03*
X4885077Y7886368D02*
D03*
X4994278Y7836617D02*
D03*
X3502771Y7747952D02*
D03*
X5121429Y7637183D02*
D03*
X5601429D02*
D03*
X5834278Y7836617D02*
D03*
X4135389Y7587238D02*
D03*
X3905497Y7614676D02*
D03*
X4217763Y8132090D02*
D03*
X5114278Y7836617D02*
D03*
X5841430Y7637183D02*
D03*
X4765560Y7668396D02*
D03*
X3459014Y8037669D02*
D03*
X3759468Y8109228D02*
D03*
X4428755Y7599588D02*
D03*
X5354278Y7836617D02*
D03*
X5594278D02*
D03*
X5234278D02*
D03*
X4657458Y7616301D02*
D03*
X4149906Y8033118D02*
D03*
X5241429Y7637183D02*
D03*
X4667789Y8105605D02*
D03*
X3366188Y7961621D02*
D03*
X4251944Y7615783D02*
D03*
X4089833Y8136999D02*
D03*
X3210604Y7839567D02*
D03*
X5001429Y7637183D02*
D03*
X4545687Y7572627D02*
D03*
X4526937Y7922957D02*
D03*
X3650197Y8158825D02*
D03*
X3621815Y7732831D02*
D03*
X4024189Y7632344D02*
D03*
X3679242Y7627464D02*
D03*
X11100001Y11400001D02*
D03*
X10800001Y10800001D02*
D03*
X11100001Y10200001D02*
D03*
X10800001Y9600001D02*
D03*
X11100001Y9000001D02*
D03*
X10800001Y8400001D02*
D03*
X11100001Y7800001D02*
D03*
X10800001Y7200001D02*
D03*
X11100001Y6600001D02*
D03*
X10800001Y6000001D02*
D03*
X11100001Y5400001D02*
D03*
X10800001Y4800001D02*
D03*
X11100001Y4200000D02*
D03*
X10200001Y12000001D02*
D03*
X10500001Y11400001D02*
D03*
X10200001Y10800001D02*
D03*
X10500001Y10200001D02*
D03*
X10200001Y9600001D02*
D03*
X10500001Y9000001D02*
D03*
X10200001Y7200001D02*
D03*
X10500001Y6600001D02*
D03*
X10200001Y6000001D02*
D03*
X10500001Y5400001D02*
D03*
X10200001Y4800001D02*
D03*
X10500001Y4200000D02*
D03*
X10200001Y3600000D02*
D03*
X9600001Y8400001D02*
D03*
Y7200001D02*
D03*
X9900001Y6600001D02*
D03*
X9600001Y6000001D02*
D03*
X9900001Y5400001D02*
D03*
X9600001Y4800001D02*
D03*
X9900001Y4200000D02*
D03*
X9600001Y3600000D02*
D03*
X9000001Y12000001D02*
D03*
X9300001Y11400001D02*
D03*
X9000001Y10800001D02*
D03*
X9300001Y10200001D02*
D03*
X9000001Y9600001D02*
D03*
Y7200001D02*
D03*
X9300001Y6600001D02*
D03*
X9000001Y6000001D02*
D03*
X9300001Y5400001D02*
D03*
X9000001Y4800001D02*
D03*
X9300001Y4200000D02*
D03*
X8400001Y12000001D02*
D03*
X8700001Y11400001D02*
D03*
X8400001Y10800001D02*
D03*
X8700001Y10200001D02*
D03*
X8400001Y9600001D02*
D03*
X8700001Y9000001D02*
D03*
Y6600001D02*
D03*
X8400001Y6000001D02*
D03*
X8700001Y5400001D02*
D03*
X8400001Y4800001D02*
D03*
X7800001Y12000001D02*
D03*
X8100001Y11400001D02*
D03*
X7800001Y10800001D02*
D03*
X8100001Y10200001D02*
D03*
X7800001Y9600001D02*
D03*
X8100001Y9000001D02*
D03*
Y6600001D02*
D03*
X7800001Y6000001D02*
D03*
X8100001Y5400001D02*
D03*
X7800001Y4800001D02*
D03*
X7500001Y11400001D02*
D03*
Y10200001D02*
D03*
Y4200000D02*
D03*
X6300001Y11400001D02*
D03*
Y10200001D02*
D03*
X6000001Y7200001D02*
D03*
X6300001Y6600001D02*
D03*
X6000001Y6000001D02*
D03*
X6300001Y5400001D02*
D03*
X6000001Y4800001D02*
D03*
X6300001Y4200000D02*
D03*
X5400001Y10800001D02*
D03*
X5700001Y10200001D02*
D03*
X5400001Y9600001D02*
D03*
X5700001Y9000001D02*
D03*
X5400001Y7200001D02*
D03*
X5700001Y6600001D02*
D03*
X5400001Y6000001D02*
D03*
X5700001Y5400001D02*
D03*
X5400001Y4800001D02*
D03*
X5700001Y4200000D02*
D03*
X4800001Y10800001D02*
D03*
X5100000Y10200001D02*
D03*
X4800001Y9600001D02*
D03*
X5100000Y9000001D02*
D03*
X4800001Y8400001D02*
D03*
Y7200001D02*
D03*
X5100000Y6600001D02*
D03*
X4800001Y6000001D02*
D03*
X5100000Y5400001D02*
D03*
X4800001Y4800001D02*
D03*
X5100000Y4200000D02*
D03*
X4500000Y11400001D02*
D03*
X4200000Y10800001D02*
D03*
X4500000Y10200001D02*
D03*
X4200000Y9600001D02*
D03*
X4500000Y9000001D02*
D03*
X4200000Y7200001D02*
D03*
Y3600000D02*
D03*
X3900000Y11400001D02*
D03*
X3600000Y10800001D02*
D03*
X3900000Y10200001D02*
D03*
X3600000Y9600001D02*
D03*
X3900000Y9000001D02*
D03*
X3600000Y6000001D02*
D03*
X3900000Y5400001D02*
D03*
X3600000Y4800001D02*
D03*
X3900000Y4200000D02*
D03*
X3600000Y3600000D02*
D03*
X3300000Y11400001D02*
D03*
X3000000Y10800001D02*
D03*
X3300000Y10200001D02*
D03*
X3000000Y9600001D02*
D03*
X3300000Y9000001D02*
D03*
X3000000Y8400001D02*
D03*
Y7200001D02*
D03*
X3300000Y6600001D02*
D03*
X3000000Y6000001D02*
D03*
X3300000Y5400001D02*
D03*
X3000000Y4800001D02*
D03*
X3300000Y4200000D02*
D03*
X8370937Y8256677D02*
D03*
X8298885Y8160715D02*
D03*
X8282283Y8041869D02*
D03*
Y7921869D02*
D03*
X8282283Y7801869D02*
D03*
X8282283Y7681869D02*
D03*
X8257447Y7564467D02*
D03*
X8138077Y7552187D02*
D03*
X8018077D02*
D03*
X7898077D02*
D03*
X7781343Y7579991D02*
D03*
X7775538Y7699850D02*
D03*
X7771881Y7819795D02*
D03*
X7692376Y7391370D02*
D03*
X7806443Y7354105D02*
D03*
X7926435Y7352752D02*
D03*
X8046435D02*
D03*
X8166435D02*
D03*
X8286137Y7361212D02*
D03*
X8392316Y7417122D02*
D03*
X8462345Y7514569D02*
D03*
X8525364Y8104776D02*
D03*
X8546443Y7986642D02*
D03*
Y7866642D02*
D03*
Y7746642D02*
D03*
X8551938Y7626768D02*
D03*
X8605969Y7519620D02*
D03*
X8704976Y7451814D02*
D03*
X8824458Y7440668D02*
D03*
X8934058Y7489534D02*
D03*
X9006655Y7585083D02*
D03*
X9025277Y7703629D02*
D03*
X9030820Y7943501D02*
D03*
X9075445Y7832107D02*
D03*
X9172284Y7761239D02*
D03*
X9291521Y7747732D02*
D03*
X9411521D02*
D03*
X9531521D02*
D03*
X9651521D02*
D03*
X9771521D02*
D03*
X9891521D02*
D03*
X10011522D02*
D03*
X10131522D02*
D03*
X10251522D02*
D03*
X10370278Y7730499D02*
D03*
X10530796Y7848932D02*
D03*
X10363092Y7961621D02*
D03*
X10243965Y7947166D02*
D03*
X10123965D02*
D03*
X10003965D02*
D03*
X9883965D02*
D03*
X9763965D02*
D03*
X9643965D02*
D03*
X9523965D02*
D03*
X9403965D02*
D03*
X9283965D02*
D03*
X9224335Y8051302D02*
D03*
X9168264Y8157397D02*
D03*
X9062633Y8214335D02*
D03*
X8943285Y8201836D02*
D03*
X8853067Y8122711D02*
D03*
X8746250Y7676035D02*
D03*
X8745878Y7796035D02*
D03*
Y7916035D02*
D03*
Y8036035D02*
D03*
X8731334Y8155150D02*
D03*
X8661742Y8252910D02*
D03*
X8552939Y8303525D02*
D03*
X6255456Y7637183D02*
D03*
X6135512Y7640839D02*
D03*
X6372297Y7664537D02*
D03*
X6441795Y7762364D02*
D03*
X5742887Y7850074D02*
D03*
X6972957Y11489776D02*
D03*
Y11369776D02*
D03*
Y11249776D02*
D03*
Y11129776D02*
D03*
Y11009776D02*
D03*
Y10889776D02*
D03*
Y10769776D02*
D03*
Y10649775D02*
D03*
Y10529775D02*
D03*
Y10409775D02*
D03*
Y10289775D02*
D03*
Y10169775D02*
D03*
Y10049775D02*
D03*
Y9929775D02*
D03*
X6970363Y9809803D02*
D03*
X6920592Y9700611D02*
D03*
X6819816Y9635465D02*
D03*
X6700194Y9625943D02*
D03*
X6580194D02*
D03*
X6460194D02*
D03*
X6340194D02*
D03*
X6220308Y9620715D02*
D03*
X6183017Y9506657D02*
D03*
Y9386657D02*
D03*
Y9266657D02*
D03*
Y9146657D02*
D03*
Y9026657D02*
D03*
Y8906657D02*
D03*
Y8786657D02*
D03*
Y8666657D02*
D03*
Y8546657D02*
D03*
X6177792Y8426770D02*
D03*
X6114453Y8324848D02*
D03*
X6003056Y8280229D02*
D03*
X5883057Y8279743D02*
D03*
X5807097Y8186845D02*
D03*
Y8066845D02*
D03*
X5922688Y8034617D02*
D03*
X5647956Y7923479D02*
D03*
X5607835Y8036573D02*
D03*
X5607663Y8156573D02*
D03*
X5607648Y8276573D02*
D03*
X5646141Y8390232D02*
D03*
X5740624Y8464211D02*
D03*
X5859687Y8479177D02*
D03*
X5979687D02*
D03*
X5983583Y8599114D02*
D03*
Y8719114D02*
D03*
Y8839114D02*
D03*
Y8959114D02*
D03*
Y9079114D02*
D03*
Y9199114D02*
D03*
Y9319114D02*
D03*
Y9439114D02*
D03*
Y9559114D02*
D03*
X6008775Y9676440D02*
D03*
X6083930Y9769990D02*
D03*
X6192922Y9820198D02*
D03*
X6312810Y9825377D02*
D03*
X6432810D02*
D03*
X6552810D02*
D03*
X6672810D02*
D03*
X6773523Y9890623D02*
D03*
Y10010623D02*
D03*
Y10130623D02*
D03*
Y10250623D02*
D03*
Y10370623D02*
D03*
Y10490623D02*
D03*
Y10610623D02*
D03*
Y10730623D02*
D03*
Y10850623D02*
D03*
Y10970623D02*
D03*
Y11090623D02*
D03*
Y11210623D02*
D03*
Y11330623D02*
D03*
Y11450623D02*
D03*
X6582068Y9514481D02*
D03*
X6662293Y9425239D02*
D03*
X6699271Y9311079D02*
D03*
X6695228Y9191147D02*
D03*
X6583196Y9148150D02*
D03*
X6474575Y9199154D02*
D03*
X6474231Y9319154D02*
D03*
X6447177Y9082243D02*
D03*
Y8962243D02*
D03*
Y8842243D02*
D03*
Y8722243D02*
D03*
Y8602243D02*
D03*
Y8482243D02*
D03*
Y8362243D02*
D03*
Y8242243D02*
D03*
Y8122243D02*
D03*
Y8002243D02*
D03*
Y7882243D02*
D03*
X6247743Y8071485D02*
D03*
Y8191485D02*
D03*
Y8311485D02*
D03*
X6320159Y9492966D02*
D03*
X7213854Y9617786D02*
D03*
X7328711Y9583033D02*
D03*
X7407379Y9492417D02*
D03*
X7427617Y9374136D02*
D03*
Y9254136D02*
D03*
Y9134136D02*
D03*
Y9014136D02*
D03*
Y8894136D02*
D03*
Y8774136D02*
D03*
X7498485Y8677297D02*
D03*
X7618435Y8673808D02*
D03*
X7723981Y8616713D02*
D03*
X7773719Y8507506D02*
D03*
X7775537Y8387520D02*
D03*
Y8267520D02*
D03*
Y8147520D02*
D03*
Y8027520D02*
D03*
X7767226Y7907808D02*
D03*
X7576103Y8198406D02*
D03*
Y8318406D02*
D03*
Y8438406D02*
D03*
X7462775Y8477863D02*
D03*
X7343483Y8490873D02*
D03*
X7252355Y8568948D02*
D03*
X7228183Y8686489D02*
D03*
Y8806489D02*
D03*
Y8926489D02*
D03*
Y9046489D02*
D03*
Y9166489D02*
D03*
Y9286489D02*
D03*
X7226956Y9406482D02*
D03*
X7071984Y9148150D02*
D03*
X6980659Y9225994D02*
D03*
X6993519Y9345303D02*
D03*
X7004719Y9464779D02*
D03*
X7070409Y9565203D02*
D03*
X7168148Y8372340D02*
D03*
X7074835Y8296892D02*
D03*
X6978037Y8225968D02*
D03*
X6987951Y7986378D02*
D03*
X7052580Y7885269D02*
D03*
X7037957Y7766163D02*
D03*
X6951023Y7683443D02*
D03*
X6831406Y7673864D02*
D03*
X6733150Y7742752D02*
D03*
X6700318Y7858174D02*
D03*
X6748110Y7968246D02*
D03*
X6778603Y8204307D02*
D03*
X6782963Y8324228D02*
D03*
X6841390Y8429043D02*
D03*
X6949407Y8481315D02*
D03*
X6980659Y8597174D02*
D03*
X7014891Y8712188D02*
D03*
X7577537Y7667460D02*
D03*
Y7547460D02*
D03*
Y7427460D02*
D03*
X7553467Y7309899D02*
D03*
X7473474Y7220450D02*
D03*
X7358763Y7185219D02*
D03*
X7238763Y7185003D02*
D03*
X7118763D02*
D03*
X6999004Y7177400D02*
D03*
X6975497Y7059726D02*
D03*
X7016245Y6946855D02*
D03*
X7136230Y6945017D02*
D03*
X7256185Y6941721D02*
D03*
X7365790Y6892866D02*
D03*
X7438358Y6797295D02*
D03*
X7454752Y6678420D02*
D03*
X7412535Y6566091D02*
D03*
X7320866Y6488653D02*
D03*
X7203501Y6463643D02*
D03*
X7083501D02*
D03*
X6975497Y6411344D02*
D03*
Y6291344D02*
D03*
Y6171344D02*
D03*
Y6051344D02*
D03*
Y5931344D02*
D03*
Y5811344D02*
D03*
Y5691344D02*
D03*
Y5571344D02*
D03*
Y5451344D02*
D03*
Y5331344D02*
D03*
Y5211344D02*
D03*
Y5091344D02*
D03*
Y4971344D02*
D03*
Y4851344D02*
D03*
Y4731344D02*
D03*
Y4611344D02*
D03*
Y4491344D02*
D03*
Y4371344D02*
D03*
Y4251344D02*
D03*
X6776063Y4251671D02*
D03*
Y4371671D02*
D03*
Y4491671D02*
D03*
Y4611671D02*
D03*
Y4731672D02*
D03*
Y4851672D02*
D03*
Y4971672D02*
D03*
Y5091672D02*
D03*
Y5211672D02*
D03*
Y5331672D02*
D03*
Y5451672D02*
D03*
Y5571672D02*
D03*
Y5691672D02*
D03*
Y5811672D02*
D03*
Y5931672D02*
D03*
Y6051672D02*
D03*
Y6171672D02*
D03*
Y6291672D02*
D03*
Y6411672D02*
D03*
X6803039Y6528600D02*
D03*
X6881555Y6619348D02*
D03*
X6994110Y6660958D02*
D03*
X7114091Y6663077D02*
D03*
X7233984Y6668162D02*
D03*
X6906690Y6777844D02*
D03*
X6818309Y6859016D02*
D03*
X6778104Y6972080D02*
D03*
X6776063Y7092063D02*
D03*
X6788463Y7211420D02*
D03*
X6851191Y7313720D02*
D03*
X6955041Y7373845D02*
D03*
X7074573Y7384437D02*
D03*
X7194573D02*
D03*
X7314573D02*
D03*
X7378103Y7486241D02*
D03*
Y7606241D02*
D03*
Y7726241D02*
D03*
X7383536Y7846118D02*
D03*
X7891780Y3926840D02*
D03*
X4274820Y6456680D02*
D03*
X9819640Y9410700D02*
D03*
X5857240Y12070080D02*
D03*
%TF.MD5,5ac9fcbba56078c5c5cce5a57ef32300*%
M02*
