%TF.GenerationSoftware,Altium Limited,Altium Designer,25.8.1 (18)*%
G04 Layer_Color=32896*
%FSLAX45Y45*%
%MOMM*%
%TF.SameCoordinates,C1BB3922-C825-4BE3-8BC7-E8AFE5BE402A*%
%TF.FilePolarity,Positive*%
%TF.FileFunction,Legend,Bot*%
%TF.Part,Single*%
G01*
G75*
%TA.AperFunction,NonConductor*%
%ADD29C,0.10000*%
%ADD30C,0.20000*%
%ADD32C,0.30000*%
G36*
X4351292Y3284679D02*
X4329298D01*
Y3319670D01*
Y3322170D01*
Y3324502D01*
Y3326668D01*
X4329131Y3328501D01*
Y3330168D01*
X4328965Y3331667D01*
Y3333000D01*
X4328798Y3334000D01*
Y3335833D01*
X4328631Y3336999D01*
X4328465Y3337666D01*
Y3337832D01*
X4327632Y3340498D01*
X4326632Y3342831D01*
X4325466Y3344997D01*
X4324466Y3346663D01*
X4323466Y3347996D01*
X4322633Y3348996D01*
X4321966Y3349663D01*
X4321800Y3349829D01*
X4319967Y3351329D01*
X4317967Y3352495D01*
X4315968Y3353162D01*
X4314302Y3353828D01*
X4312636Y3354161D01*
X4311469Y3354328D01*
X4310303D01*
X4308470Y3354161D01*
X4306804Y3353995D01*
X4305471Y3353495D01*
X4304138Y3352995D01*
X4303138Y3352495D01*
X4302471Y3352162D01*
X4301972Y3351829D01*
X4301805Y3351662D01*
X4300639Y3350496D01*
X4299472Y3349329D01*
X4298639Y3347830D01*
X4297973Y3346663D01*
X4297473Y3345330D01*
X4297139Y3344331D01*
X4296806Y3343664D01*
Y3343498D01*
X4296473Y3342331D01*
X4296306Y3341165D01*
X4295973Y3337999D01*
X4295640Y3334666D01*
X4295473Y3331334D01*
X4295307Y3328168D01*
Y3326668D01*
Y3325502D01*
Y3324502D01*
Y3323669D01*
Y3323169D01*
Y3323003D01*
Y3284679D01*
X4273646D01*
Y3342498D01*
Y3345330D01*
X4273979Y3347830D01*
X4274312Y3350162D01*
X4274812Y3352495D01*
X4275478Y3354495D01*
X4276145Y3356328D01*
X4276811Y3358160D01*
X4277478Y3359660D01*
X4278144Y3360993D01*
X4278811Y3362159D01*
X4279477Y3363159D01*
X4280144Y3363826D01*
X4280644Y3364492D01*
X4280977Y3364992D01*
X4281144Y3365159D01*
X4281310Y3365325D01*
X4282976Y3366991D01*
X4284809Y3368324D01*
X4286642Y3369657D01*
X4288475Y3370657D01*
X4292141Y3372323D01*
X4295640Y3373323D01*
X4298639Y3373990D01*
X4299972Y3374156D01*
X4301138Y3374323D01*
X4301972Y3374490D01*
X4303305D01*
X4305804Y3374323D01*
X4308137Y3373990D01*
X4310469Y3373656D01*
X4312302Y3373157D01*
X4314135Y3372490D01*
X4315302Y3372157D01*
X4316135Y3371824D01*
X4316468Y3371657D01*
X4318801Y3370491D01*
X4321133Y3369158D01*
X4323299Y3367825D01*
X4325299Y3366492D01*
X4326965Y3365159D01*
X4328132Y3364159D01*
X4328965Y3363492D01*
X4329298Y3363326D01*
Y3406148D01*
X4351292D01*
Y3284679D01*
D02*
G37*
G36*
X3879580D02*
X3857585D01*
Y3319670D01*
Y3322170D01*
Y3324502D01*
Y3326668D01*
X3857419Y3328501D01*
Y3330168D01*
X3857252Y3331667D01*
Y3333000D01*
X3857086Y3334000D01*
Y3335833D01*
X3856919Y3336999D01*
X3856752Y3337666D01*
Y3337832D01*
X3855919Y3340498D01*
X3854919Y3342831D01*
X3853753Y3344997D01*
X3852753Y3346663D01*
X3851754Y3347996D01*
X3850920Y3348996D01*
X3850254Y3349663D01*
X3850087Y3349829D01*
X3848254Y3351329D01*
X3846255Y3352495D01*
X3844255Y3353162D01*
X3842589Y3353828D01*
X3840923Y3354161D01*
X3839757Y3354328D01*
X3838590D01*
X3836757Y3354161D01*
X3835091Y3353995D01*
X3833758Y3353495D01*
X3832425Y3352995D01*
X3831425Y3352495D01*
X3830759Y3352162D01*
X3830259Y3351829D01*
X3830092Y3351662D01*
X3828926Y3350496D01*
X3827760Y3349329D01*
X3826927Y3347830D01*
X3826260Y3346663D01*
X3825760Y3345330D01*
X3825427Y3344331D01*
X3825094Y3343664D01*
Y3343498D01*
X3824760Y3342331D01*
X3824594Y3341165D01*
X3824261Y3337999D01*
X3823927Y3334666D01*
X3823761Y3331334D01*
X3823594Y3328168D01*
Y3326668D01*
Y3325502D01*
Y3324502D01*
Y3323669D01*
Y3323169D01*
Y3323003D01*
Y3284679D01*
X3801933D01*
Y3342498D01*
Y3345330D01*
X3802266Y3347830D01*
X3802599Y3350162D01*
X3803099Y3352495D01*
X3803766Y3354495D01*
X3804432Y3356328D01*
X3805099Y3358160D01*
X3805765Y3359660D01*
X3806432Y3360993D01*
X3807098Y3362159D01*
X3807765Y3363159D01*
X3808431Y3363826D01*
X3808931Y3364492D01*
X3809264Y3364992D01*
X3809431Y3365159D01*
X3809598Y3365325D01*
X3811264Y3366991D01*
X3813097Y3368324D01*
X3814930Y3369657D01*
X3816762Y3370657D01*
X3820428Y3372323D01*
X3823927Y3373323D01*
X3826927Y3373990D01*
X3828260Y3374156D01*
X3829426Y3374323D01*
X3830259Y3374490D01*
X3831592D01*
X3834091Y3374323D01*
X3836424Y3373990D01*
X3838757Y3373656D01*
X3840590Y3373157D01*
X3842423Y3372490D01*
X3843589Y3372157D01*
X3844422Y3371824D01*
X3844755Y3371657D01*
X3847088Y3370491D01*
X3849421Y3369158D01*
X3851587Y3367825D01*
X3853586Y3366492D01*
X3855253Y3365159D01*
X3856419Y3364159D01*
X3857252Y3363492D01*
X3857585Y3363326D01*
Y3406148D01*
X3879580D01*
Y3284679D01*
D02*
G37*
G36*
X3746780Y3374323D02*
X3749780Y3373989D01*
X3752612Y3373323D01*
X3755445Y3372490D01*
X3757944Y3371490D01*
X3760444Y3370324D01*
X3762610Y3369157D01*
X3764609Y3367991D01*
X3766442Y3366825D01*
X3768108Y3365658D01*
X3769441Y3364492D01*
X3770608Y3363492D01*
X3771607Y3362659D01*
X3772274Y3361993D01*
X3772607Y3361659D01*
X3772774Y3361493D01*
X3774773Y3358993D01*
X3776606Y3356327D01*
X3778272Y3353662D01*
X3779605Y3350829D01*
X3780772Y3347996D01*
X3781771Y3345330D01*
X3782438Y3342664D01*
X3783104Y3339998D01*
X3783604Y3337666D01*
X3783938Y3335333D01*
X3784271Y3333333D01*
X3784437Y3331667D01*
X3784604Y3330334D01*
Y3329168D01*
Y3328501D01*
Y3328335D01*
X3784437Y3324669D01*
X3784104Y3321337D01*
X3783438Y3318004D01*
X3782605Y3314838D01*
X3781771Y3312006D01*
X3780772Y3309340D01*
X3779605Y3306840D01*
X3778439Y3304507D01*
X3777273Y3302508D01*
X3776106Y3300675D01*
X3775106Y3299175D01*
X3774273Y3297842D01*
X3773440Y3296843D01*
X3772774Y3296176D01*
X3772441Y3295676D01*
X3772274Y3295510D01*
X3769941Y3293177D01*
X3767442Y3291177D01*
X3764942Y3289511D01*
X3762443Y3288011D01*
X3759944Y3286678D01*
X3757611Y3285679D01*
X3755278Y3284846D01*
X3752946Y3284179D01*
X3750946Y3283679D01*
X3748947Y3283179D01*
X3747280Y3282846D01*
X3745781Y3282679D01*
X3744614D01*
X3743615Y3282513D01*
X3742948D01*
X3740115Y3282679D01*
X3737616Y3283013D01*
X3735283Y3283346D01*
X3733117Y3283846D01*
X3731451Y3284346D01*
X3730118Y3284846D01*
X3729285Y3285012D01*
X3728952Y3285179D01*
X3726452Y3286345D01*
X3724120Y3287678D01*
X3721953Y3289178D01*
X3719954Y3290511D01*
X3718288Y3291844D01*
X3717121Y3292844D01*
X3716288Y3293510D01*
X3715955Y3293843D01*
Y3284679D01*
X3693961D01*
Y3372323D01*
X3715955D01*
Y3362659D01*
X3718288Y3364658D01*
X3720454Y3366491D01*
X3722620Y3367991D01*
X3724619Y3369324D01*
X3726452Y3370157D01*
X3727785Y3370990D01*
X3728618Y3371323D01*
X3728952Y3371490D01*
X3731618Y3372490D01*
X3734117Y3373156D01*
X3736616Y3373823D01*
X3738782Y3374156D01*
X3740782Y3374323D01*
X3742282Y3374489D01*
X3743615D01*
X3746780Y3374323D01*
D02*
G37*
G36*
X3429862D02*
X3432861Y3373989D01*
X3435693Y3373323D01*
X3438526Y3372490D01*
X3441025Y3371490D01*
X3443525Y3370324D01*
X3445691Y3369157D01*
X3447690Y3367991D01*
X3449523Y3366825D01*
X3451189Y3365658D01*
X3452522Y3364492D01*
X3453689Y3363492D01*
X3454689Y3362659D01*
X3455355Y3361993D01*
X3455688Y3361659D01*
X3455855Y3361493D01*
X3457854Y3358993D01*
X3459687Y3356327D01*
X3461354Y3353661D01*
X3462686Y3350829D01*
X3463853Y3347996D01*
X3464853Y3345330D01*
X3465519Y3342664D01*
X3466186Y3339998D01*
X3466685Y3337665D01*
X3467019Y3335333D01*
X3467352Y3333333D01*
X3467519Y3331667D01*
X3467685Y3330334D01*
Y3329168D01*
Y3328501D01*
Y3328334D01*
X3467519Y3324669D01*
X3467185Y3321336D01*
X3466519Y3318004D01*
X3465686Y3314838D01*
X3464853Y3312005D01*
X3463853Y3309339D01*
X3462686Y3306840D01*
X3461520Y3304507D01*
X3460354Y3302508D01*
X3459187Y3300675D01*
X3458188Y3299175D01*
X3457355Y3297842D01*
X3456521Y3296843D01*
X3455855Y3296176D01*
X3455522Y3295676D01*
X3455355Y3295510D01*
X3453022Y3293177D01*
X3450523Y3291177D01*
X3448024Y3289511D01*
X3445524Y3288011D01*
X3443025Y3286678D01*
X3440692Y3285679D01*
X3438359Y3284846D01*
X3436027Y3284179D01*
X3434027Y3283679D01*
X3432028Y3283179D01*
X3430361Y3282846D01*
X3428862Y3282679D01*
X3427695D01*
X3426696Y3282513D01*
X3426029D01*
X3423197Y3282679D01*
X3420697Y3283013D01*
X3418365Y3283346D01*
X3416198Y3283846D01*
X3414532Y3284346D01*
X3413199Y3284846D01*
X3412366Y3285012D01*
X3412033Y3285179D01*
X3409533Y3286345D01*
X3407201Y3287678D01*
X3405035Y3289178D01*
X3403035Y3290511D01*
X3401369Y3291844D01*
X3400202Y3292844D01*
X3399369Y3293510D01*
X3399036Y3293843D01*
Y3284679D01*
X3377042D01*
Y3372323D01*
X3399036D01*
Y3362659D01*
X3401369Y3364658D01*
X3403535Y3366491D01*
X3405701Y3367991D01*
X3407701Y3369324D01*
X3409533Y3370157D01*
X3410866Y3370990D01*
X3411700Y3371323D01*
X3412033Y3371490D01*
X3414699Y3372490D01*
X3417198Y3373156D01*
X3419698Y3373823D01*
X3421864Y3374156D01*
X3423863Y3374323D01*
X3425363Y3374489D01*
X3426696D01*
X3429862Y3374323D01*
D02*
G37*
G36*
X3572492D02*
X3575324Y3373989D01*
X3577824Y3373490D01*
X3580156Y3372990D01*
X3581989Y3372323D01*
X3583489Y3371823D01*
X3584322Y3371490D01*
X3584655Y3371323D01*
X3587155Y3369990D01*
X3589487Y3368657D01*
X3591487Y3366991D01*
X3593320Y3365492D01*
X3594819Y3364159D01*
X3595986Y3362992D01*
X3596652Y3362326D01*
X3596985Y3361993D01*
Y3372323D01*
X3618980D01*
Y3284679D01*
X3596985D01*
Y3323502D01*
X3596819Y3327835D01*
X3596652Y3331667D01*
X3596319Y3334833D01*
X3595819Y3337332D01*
X3595486Y3339332D01*
X3595153Y3340665D01*
X3594986Y3341498D01*
X3594819Y3341831D01*
X3593986Y3343997D01*
X3592820Y3345830D01*
X3591820Y3347330D01*
X3590654Y3348663D01*
X3589654Y3349662D01*
X3588821Y3350495D01*
X3588321Y3350829D01*
X3588154Y3350995D01*
X3586488Y3352162D01*
X3584655Y3352995D01*
X3582989Y3353495D01*
X3581489Y3353995D01*
X3580156Y3354161D01*
X3579157Y3354328D01*
X3578157D01*
X3576324Y3354161D01*
X3574658Y3353995D01*
X3573325Y3353495D01*
X3571992Y3352995D01*
X3570992Y3352495D01*
X3570326Y3352162D01*
X3569826Y3351828D01*
X3569659Y3351662D01*
X3568493Y3350662D01*
X3567326Y3349329D01*
X3566493Y3348163D01*
X3565827Y3346830D01*
X3565160Y3345663D01*
X3564827Y3344664D01*
X3564494Y3343997D01*
Y3343830D01*
X3563827Y3341664D01*
X3563494Y3338998D01*
X3563161Y3336166D01*
X3562828Y3333333D01*
Y3330834D01*
X3562661Y3329667D01*
Y3328834D01*
Y3328001D01*
Y3327335D01*
Y3327001D01*
Y3326835D01*
Y3284679D01*
X3540667D01*
Y3324002D01*
X3540500Y3328334D01*
X3540333Y3332167D01*
X3540000Y3335166D01*
X3539500Y3337832D01*
X3539167Y3339665D01*
X3538834Y3341165D01*
X3538667Y3341831D01*
X3538500Y3342164D01*
X3537667Y3344164D01*
X3536501Y3345997D01*
X3535501Y3347496D01*
X3534335Y3348663D01*
X3533335Y3349662D01*
X3532502Y3350495D01*
X3532002Y3350829D01*
X3531835Y3350995D01*
X3530169Y3352162D01*
X3528336Y3352995D01*
X3526670Y3353495D01*
X3525004Y3353995D01*
X3523671Y3354161D01*
X3522671Y3354328D01*
X3521671D01*
X3519005Y3354161D01*
X3516839Y3353495D01*
X3514840Y3352662D01*
X3513340Y3351662D01*
X3512007Y3350662D01*
X3511174Y3349829D01*
X3510674Y3349162D01*
X3510508Y3348996D01*
X3509841Y3347829D01*
X3509175Y3346663D01*
X3508341Y3343664D01*
X3507675Y3340331D01*
X3507175Y3336999D01*
X3506842Y3333833D01*
Y3332500D01*
X3506675Y3331167D01*
Y3330167D01*
Y3329501D01*
Y3329001D01*
Y3328834D01*
Y3284679D01*
X3484681D01*
Y3335999D01*
Y3338832D01*
X3484847Y3341498D01*
X3485014Y3343830D01*
X3485181Y3346163D01*
X3485347Y3348163D01*
X3485681Y3349996D01*
X3486014Y3351662D01*
X3486180Y3353161D01*
X3486514Y3354494D01*
X3486847Y3355661D01*
X3487180Y3356494D01*
X3487347Y3357327D01*
X3487513Y3357994D01*
X3487680Y3358327D01*
X3487847Y3358660D01*
X3489180Y3361159D01*
X3490846Y3363326D01*
X3492512Y3365325D01*
X3494178Y3366991D01*
X3495678Y3368324D01*
X3497011Y3369157D01*
X3497844Y3369824D01*
X3498011Y3369990D01*
X3498177D01*
X3500843Y3371490D01*
X3503676Y3372656D01*
X3506342Y3373323D01*
X3509008Y3373989D01*
X3511174Y3374323D01*
X3513007Y3374489D01*
X3514507D01*
X3517839Y3374323D01*
X3520838Y3373823D01*
X3523671Y3373156D01*
X3526170Y3372490D01*
X3528336Y3371657D01*
X3529836Y3370990D01*
X3530836Y3370490D01*
X3531002Y3370324D01*
X3531169D01*
X3533835Y3368657D01*
X3536334Y3366825D01*
X3538667Y3364825D01*
X3540500Y3362992D01*
X3542000Y3361159D01*
X3542999Y3359826D01*
X3543832Y3358827D01*
X3543999Y3358660D01*
Y3358493D01*
X3545665Y3361326D01*
X3547331Y3363659D01*
X3549164Y3365658D01*
X3550831Y3367324D01*
X3552330Y3368657D01*
X3553497Y3369657D01*
X3554330Y3370157D01*
X3554663Y3370324D01*
X3557162Y3371657D01*
X3559828Y3372656D01*
X3562328Y3373490D01*
X3564494Y3373989D01*
X3566493Y3374323D01*
X3568159Y3374489D01*
X3569492D01*
X3572492Y3374323D01*
D02*
G37*
G36*
X4107022Y3284679D02*
X4085027D01*
Y3325002D01*
X4048037Y3284679D01*
X4020377D01*
X4062700Y3330667D01*
X4025542Y3372323D01*
X4052702D01*
X4085027Y3335999D01*
Y3406148D01*
X4107022D01*
Y3284679D01*
D02*
G37*
G36*
X4503420Y3318171D02*
X4462430D01*
Y3338665D01*
X4503420D01*
Y3318171D01*
D02*
G37*
G36*
X4254817Y3284679D02*
X4232823D01*
Y3406148D01*
X4254817D01*
Y3284679D01*
D02*
G37*
G36*
X3640974Y3374323D02*
X3642974Y3373989D01*
X3644973Y3373323D01*
X3646473Y3372823D01*
X3647972Y3372157D01*
X3648972Y3371490D01*
X3649639Y3371157D01*
X3649805Y3370990D01*
X3651638Y3369657D01*
X3653138Y3367991D01*
X3654471Y3366491D01*
X3655637Y3364825D01*
X3656637Y3363326D01*
X3657303Y3362159D01*
X3657637Y3361493D01*
X3657803Y3361159D01*
Y3372323D01*
X3676798D01*
Y3284679D01*
X3654804D01*
Y3320003D01*
X3654971Y3324169D01*
Y3327501D01*
X3654804Y3330501D01*
X3654637Y3333333D01*
X3654471Y3335833D01*
X3654137Y3337999D01*
X3653804Y3339998D01*
X3653471Y3341831D01*
X3653138Y3343331D01*
X3652971Y3344664D01*
X3652638Y3345830D01*
X3652305Y3346830D01*
X3651971Y3347496D01*
X3651805Y3348163D01*
X3651638Y3348496D01*
X3651471Y3348829D01*
X3650138Y3350995D01*
X3648639Y3352495D01*
X3647306Y3353661D01*
X3645973Y3354328D01*
X3644807Y3354828D01*
X3643807Y3354994D01*
X3643140Y3355161D01*
X3641974D01*
X3640974Y3354828D01*
X3638808Y3354161D01*
X3637975Y3353828D01*
X3637308Y3353495D01*
X3636809Y3353328D01*
X3636642Y3353161D01*
X3629810Y3372157D01*
X3631477Y3372990D01*
X3633143Y3373490D01*
X3634642Y3373989D01*
X3635975Y3374156D01*
X3637142Y3374323D01*
X3637975Y3374489D01*
X3638808D01*
X3640974Y3374323D01*
D02*
G37*
G36*
X4175004Y3374323D02*
X4178003Y3373990D01*
X4181003Y3373323D01*
X4183835Y3372657D01*
X4186501Y3371657D01*
X4189001Y3370657D01*
X4191333Y3369657D01*
X4193499Y3368491D01*
X4195332Y3367325D01*
X4197165Y3366325D01*
X4198665Y3365325D01*
X4199831Y3364326D01*
X4200831Y3363659D01*
X4201497Y3362993D01*
X4201997Y3362659D01*
X4202164Y3362493D01*
X4204830Y3359827D01*
X4207163Y3357161D01*
X4209162Y3354328D01*
X4210828Y3351329D01*
X4212328Y3348496D01*
X4213494Y3345664D01*
X4214494Y3342998D01*
X4215327Y3340332D01*
X4215827Y3337832D01*
X4216327Y3335500D01*
X4216660Y3333500D01*
X4216993Y3331834D01*
Y3330334D01*
X4217160Y3329168D01*
Y3328501D01*
Y3328335D01*
X4216993Y3324836D01*
X4216660Y3321503D01*
X4215994Y3318171D01*
X4214994Y3315171D01*
X4213994Y3312339D01*
X4212994Y3309673D01*
X4211661Y3307173D01*
X4210495Y3304841D01*
X4209329Y3302841D01*
X4207996Y3301008D01*
X4206996Y3299509D01*
X4205830Y3298176D01*
X4204996Y3297176D01*
X4204330Y3296510D01*
X4203997Y3296010D01*
X4203830Y3295843D01*
X4201331Y3293510D01*
X4198665Y3291511D01*
X4195832Y3289678D01*
X4193166Y3288178D01*
X4190500Y3286845D01*
X4187834Y3285846D01*
X4185168Y3284846D01*
X4182669Y3284179D01*
X4180503Y3283679D01*
X4178337Y3283180D01*
X4176504Y3282846D01*
X4174837Y3282680D01*
X4173504D01*
X4172505Y3282513D01*
X4171672D01*
X4167006Y3282846D01*
X4162674Y3283513D01*
X4158675Y3284346D01*
X4155176Y3285512D01*
X4153676Y3286012D01*
X4152343Y3286679D01*
X4151177Y3287179D01*
X4150177Y3287512D01*
X4149344Y3288012D01*
X4148844Y3288178D01*
X4148511Y3288512D01*
X4148344D01*
X4144512Y3291011D01*
X4141179Y3293677D01*
X4138347Y3296510D01*
X4135847Y3299176D01*
X4134015Y3301675D01*
X4132682Y3303508D01*
X4132182Y3304341D01*
X4131848Y3304841D01*
X4131515Y3305174D01*
Y3305341D01*
X4129349Y3309506D01*
X4127850Y3313505D01*
X4126683Y3317504D01*
X4126017Y3321003D01*
X4125683Y3322503D01*
X4125517Y3324002D01*
X4125350Y3325335D01*
Y3326335D01*
X4125184Y3327335D01*
Y3328001D01*
Y3328335D01*
Y3328501D01*
X4125517Y3333000D01*
X4126183Y3337332D01*
X4127183Y3341165D01*
X4128183Y3344497D01*
X4128849Y3345997D01*
X4129349Y3347330D01*
X4129849Y3348496D01*
X4130349Y3349496D01*
X4130849Y3350329D01*
X4131015Y3350829D01*
X4131349Y3351162D01*
Y3351329D01*
X4133848Y3355161D01*
X4136681Y3358494D01*
X4139513Y3361326D01*
X4142179Y3363826D01*
X4144679Y3365658D01*
X4146678Y3366991D01*
X4147511Y3367491D01*
X4148011Y3367825D01*
X4148344Y3368158D01*
X4148511D01*
X4152676Y3370324D01*
X4156675Y3371824D01*
X4160674Y3372990D01*
X4164174Y3373656D01*
X4165840Y3373990D01*
X4167339Y3374156D01*
X4168672Y3374323D01*
X4169672D01*
X4170672Y3374490D01*
X4171838D01*
X4175004Y3374323D01*
D02*
G37*
G36*
X4409444Y3405982D02*
X4411943Y3405815D01*
X4416442Y3404815D01*
X4420275Y3403316D01*
X4423774Y3401816D01*
X4425107Y3400983D01*
X4426440Y3400150D01*
X4427439Y3399317D01*
X4428439Y3398650D01*
X4429106Y3398150D01*
X4429606Y3397650D01*
X4429939Y3397484D01*
X4430105Y3397317D01*
X4431772Y3395651D01*
X4433105Y3393818D01*
X4434438Y3392152D01*
X4435437Y3390319D01*
X4437104Y3386820D01*
X4438270Y3383487D01*
X4438937Y3380488D01*
X4439103Y3379322D01*
X4439270Y3378155D01*
X4439436Y3377322D01*
Y3376656D01*
Y3376322D01*
Y3376156D01*
X4439270Y3372990D01*
X4438603Y3369824D01*
X4437770Y3366991D01*
X4436604Y3364326D01*
X4435604Y3362159D01*
X4434771Y3360493D01*
X4434438Y3359827D01*
X4434104Y3359327D01*
X4433938Y3359160D01*
Y3358994D01*
X4432771Y3357327D01*
X4431272Y3355494D01*
X4429439Y3353662D01*
X4427606Y3351662D01*
X4423440Y3347496D01*
X4419275Y3343664D01*
X4417109Y3341831D01*
X4415276Y3340165D01*
X4413443Y3338665D01*
X4411943Y3337332D01*
X4410610Y3336166D01*
X4409611Y3335333D01*
X4408944Y3334833D01*
X4408778Y3334666D01*
X4406945Y3333167D01*
X4405278Y3331667D01*
X4402446Y3329168D01*
X4400113Y3327168D01*
X4398447Y3325335D01*
X4397114Y3324002D01*
X4396281Y3323169D01*
X4395781Y3322503D01*
X4395614Y3322336D01*
X4394615Y3320837D01*
X4393948Y3319337D01*
X4393282Y3318004D01*
X4392948Y3316838D01*
X4392782Y3315838D01*
X4392615Y3315005D01*
Y3314505D01*
Y3314338D01*
X4392782Y3312672D01*
X4393282Y3311172D01*
X4393948Y3309839D01*
X4394615Y3308673D01*
X4395281Y3307840D01*
X4395948Y3307173D01*
X4396447Y3306674D01*
X4396614Y3306507D01*
X4398114Y3305341D01*
X4399780Y3304507D01*
X4401446Y3304008D01*
X4402946Y3303674D01*
X4404445Y3303341D01*
X4405445Y3303174D01*
X4406445D01*
X4408444Y3303341D01*
X4410444Y3303841D01*
X4412443Y3304674D01*
X4414276Y3305674D01*
X4415942Y3306840D01*
X4417609Y3308173D01*
X4420441Y3311006D01*
X4422774Y3313838D01*
X4423774Y3315171D01*
X4424607Y3316338D01*
X4425273Y3317338D01*
X4425773Y3318171D01*
X4425940Y3318671D01*
X4426106Y3318837D01*
X4444935Y3307340D01*
X4443602Y3305007D01*
X4442269Y3302675D01*
X4439603Y3298676D01*
X4436937Y3295343D01*
X4434438Y3292677D01*
X4432272Y3290511D01*
X4430439Y3289011D01*
X4429772Y3288512D01*
X4429272Y3288178D01*
X4429106Y3287845D01*
X4428939D01*
X4425273Y3285846D01*
X4421608Y3284346D01*
X4417942Y3283180D01*
X4414443Y3282513D01*
X4411444Y3282013D01*
X4410111Y3281847D01*
X4409111D01*
X4408111Y3281680D01*
X4406945D01*
X4403945Y3281847D01*
X4401113Y3282013D01*
X4398447Y3282513D01*
X4395948Y3283180D01*
X4393615Y3283846D01*
X4391449Y3284679D01*
X4389449Y3285512D01*
X4387616Y3286512D01*
X4386117Y3287345D01*
X4384617Y3288178D01*
X4383451Y3289011D01*
X4382451Y3289678D01*
X4381618Y3290344D01*
X4381118Y3290844D01*
X4380785Y3291011D01*
X4380618Y3291178D01*
X4378785Y3293010D01*
X4377286Y3295010D01*
X4375953Y3296843D01*
X4374786Y3299009D01*
X4373787Y3301008D01*
X4372953Y3303008D01*
X4371787Y3306674D01*
X4371287Y3308506D01*
X4370954Y3310006D01*
X4370787Y3311506D01*
X4370621Y3312839D01*
X4370454Y3313838D01*
Y3314505D01*
Y3315005D01*
Y3315171D01*
X4370621Y3318004D01*
X4370954Y3320503D01*
X4371454Y3322836D01*
X4371954Y3324836D01*
X4372454Y3326668D01*
X4372953Y3327835D01*
X4373287Y3328668D01*
X4373453Y3329001D01*
X4374620Y3331334D01*
X4376119Y3333667D01*
X4377786Y3335999D01*
X4379285Y3337999D01*
X4380785Y3339665D01*
X4381951Y3340998D01*
X4382784Y3341831D01*
X4383117Y3342165D01*
X4383784Y3342831D01*
X4384617Y3343498D01*
X4385617Y3344497D01*
X4386783Y3345497D01*
X4389283Y3347663D01*
X4391949Y3349996D01*
X4394615Y3352329D01*
X4395781Y3353162D01*
X4396781Y3354161D01*
X4397614Y3354828D01*
X4398280Y3355328D01*
X4398614Y3355661D01*
X4398780Y3355828D01*
X4401279Y3357994D01*
X4403446Y3359827D01*
X4405445Y3361493D01*
X4407111Y3363159D01*
X4408778Y3364492D01*
X4410111Y3365825D01*
X4411277Y3366825D01*
X4412277Y3367825D01*
X4413776Y3369324D01*
X4414609Y3370324D01*
X4415109Y3370824D01*
X4415276Y3370990D01*
X4415942Y3371990D01*
X4416442Y3372990D01*
X4416942Y3374823D01*
X4417109Y3375489D01*
X4417275Y3376156D01*
Y3376489D01*
Y3376656D01*
X4417109Y3377822D01*
X4416776Y3378822D01*
X4415942Y3380488D01*
X4415443Y3381155D01*
X4414943Y3381654D01*
X4414776Y3381821D01*
X4414609Y3381988D01*
X4413443Y3382821D01*
X4412277Y3383487D01*
X4411110Y3383821D01*
X4409944Y3384154D01*
X4408778Y3384320D01*
X4407944Y3384487D01*
X4407278D01*
X4405612Y3384320D01*
X4403945Y3383987D01*
X4402279Y3383321D01*
X4400613Y3382654D01*
X4397614Y3380655D01*
X4394948Y3378489D01*
X4392615Y3376156D01*
X4390949Y3374156D01*
X4390282Y3373490D01*
X4389782Y3372823D01*
X4389616Y3372490D01*
X4389449Y3372323D01*
X4372620Y3386986D01*
X4376119Y3390819D01*
X4379285Y3393985D01*
X4382284Y3396484D01*
X4384950Y3398483D01*
X4387116Y3400150D01*
X4388783Y3401149D01*
X4389283Y3401483D01*
X4389782Y3401816D01*
X4389949Y3401983D01*
X4390116D01*
X4393115Y3403316D01*
X4396114Y3404315D01*
X4398947Y3405148D01*
X4401446Y3405648D01*
X4403779Y3405982D01*
X4405445Y3406148D01*
X4406945D01*
X4409444Y3405982D01*
D02*
G37*
G36*
X3937732D02*
X3940231Y3405815D01*
X3944730Y3404815D01*
X3948562Y3403316D01*
X3952061Y3401816D01*
X3953394Y3400983D01*
X3954727Y3400150D01*
X3955727Y3399317D01*
X3956727Y3398650D01*
X3957393Y3398150D01*
X3957893Y3397650D01*
X3958226Y3397484D01*
X3958393Y3397317D01*
X3960059Y3395651D01*
X3961392Y3393818D01*
X3962725Y3392152D01*
X3963725Y3390319D01*
X3965391Y3386820D01*
X3966557Y3383487D01*
X3967224Y3380488D01*
X3967391Y3379322D01*
X3967557Y3378155D01*
X3967724Y3377322D01*
Y3376656D01*
Y3376322D01*
Y3376156D01*
X3967557Y3372990D01*
X3966891Y3369824D01*
X3966058Y3366991D01*
X3964891Y3364326D01*
X3963891Y3362159D01*
X3963058Y3360493D01*
X3962725Y3359827D01*
X3962392Y3359327D01*
X3962225Y3359160D01*
Y3358994D01*
X3961059Y3357327D01*
X3959559Y3355494D01*
X3957726Y3353662D01*
X3955894Y3351662D01*
X3951728Y3347496D01*
X3947562Y3343664D01*
X3945396Y3341831D01*
X3943563Y3340165D01*
X3941730Y3338665D01*
X3940231Y3337332D01*
X3938898Y3336166D01*
X3937898Y3335333D01*
X3937232Y3334833D01*
X3937065Y3334666D01*
X3935232Y3333167D01*
X3933566Y3331667D01*
X3930733Y3329168D01*
X3928401Y3327168D01*
X3926734Y3325335D01*
X3925401Y3324002D01*
X3924568Y3323169D01*
X3924068Y3322503D01*
X3923902Y3322336D01*
X3922902Y3320837D01*
X3922235Y3319337D01*
X3921569Y3318004D01*
X3921236Y3316838D01*
X3921069Y3315838D01*
X3920902Y3315005D01*
Y3314505D01*
Y3314338D01*
X3921069Y3312672D01*
X3921569Y3311172D01*
X3922235Y3309839D01*
X3922902Y3308673D01*
X3923568Y3307840D01*
X3924235Y3307173D01*
X3924735Y3306674D01*
X3924901Y3306507D01*
X3926401Y3305341D01*
X3928067Y3304507D01*
X3929734Y3304008D01*
X3931233Y3303674D01*
X3932733Y3303341D01*
X3933733Y3303174D01*
X3934732D01*
X3936732Y3303341D01*
X3938731Y3303841D01*
X3940731Y3304674D01*
X3942564Y3305674D01*
X3944230Y3306840D01*
X3945896Y3308173D01*
X3948729Y3311006D01*
X3951061Y3313838D01*
X3952061Y3315171D01*
X3952894Y3316338D01*
X3953561Y3317338D01*
X3954061Y3318171D01*
X3954227Y3318671D01*
X3954394Y3318837D01*
X3973222Y3307340D01*
X3971889Y3305007D01*
X3970556Y3302675D01*
X3967890Y3298676D01*
X3965224Y3295343D01*
X3962725Y3292677D01*
X3960559Y3290511D01*
X3958726Y3289011D01*
X3958060Y3288512D01*
X3957560Y3288178D01*
X3957393Y3287845D01*
X3957227D01*
X3953561Y3285846D01*
X3949895Y3284346D01*
X3946229Y3283180D01*
X3942730Y3282513D01*
X3939731Y3282013D01*
X3938398Y3281847D01*
X3937398D01*
X3936399Y3281680D01*
X3935232D01*
X3932233Y3281847D01*
X3929400Y3282013D01*
X3926734Y3282513D01*
X3924235Y3283180D01*
X3921902Y3283846D01*
X3919736Y3284679D01*
X3917737Y3285512D01*
X3915904Y3286512D01*
X3914404Y3287345D01*
X3912905Y3288178D01*
X3911738Y3289011D01*
X3910738Y3289678D01*
X3909905Y3290344D01*
X3909405Y3290844D01*
X3909072Y3291011D01*
X3908906Y3291178D01*
X3907073Y3293010D01*
X3905573Y3295010D01*
X3904240Y3296843D01*
X3903074Y3299009D01*
X3902074Y3301008D01*
X3901241Y3303008D01*
X3900074Y3306674D01*
X3899575Y3308506D01*
X3899241Y3310006D01*
X3899075Y3311506D01*
X3898908Y3312839D01*
X3898742Y3313838D01*
Y3314505D01*
Y3315005D01*
Y3315171D01*
X3898908Y3318004D01*
X3899241Y3320503D01*
X3899741Y3322836D01*
X3900241Y3324836D01*
X3900741Y3326668D01*
X3901241Y3327835D01*
X3901574Y3328668D01*
X3901741Y3329001D01*
X3902907Y3331334D01*
X3904407Y3333667D01*
X3906073Y3335999D01*
X3907573Y3337999D01*
X3909072Y3339665D01*
X3910239Y3340998D01*
X3911072Y3341831D01*
X3911405Y3342165D01*
X3912071Y3342831D01*
X3912905Y3343498D01*
X3913904Y3344497D01*
X3915071Y3345497D01*
X3917570Y3347663D01*
X3920236Y3349996D01*
X3922902Y3352329D01*
X3924068Y3353162D01*
X3925068Y3354161D01*
X3925901Y3354828D01*
X3926568Y3355328D01*
X3926901Y3355661D01*
X3927068Y3355828D01*
X3929567Y3357994D01*
X3931733Y3359827D01*
X3933733Y3361493D01*
X3935399Y3363159D01*
X3937065Y3364492D01*
X3938398Y3365825D01*
X3939564Y3366825D01*
X3940564Y3367825D01*
X3942064Y3369324D01*
X3942897Y3370324D01*
X3943397Y3370824D01*
X3943563Y3370990D01*
X3944230Y3371990D01*
X3944730Y3372990D01*
X3945230Y3374823D01*
X3945396Y3375489D01*
X3945563Y3376156D01*
Y3376489D01*
Y3376656D01*
X3945396Y3377822D01*
X3945063Y3378822D01*
X3944230Y3380488D01*
X3943730Y3381155D01*
X3943230Y3381654D01*
X3943063Y3381821D01*
X3942897Y3381988D01*
X3941730Y3382821D01*
X3940564Y3383487D01*
X3939398Y3383821D01*
X3938231Y3384154D01*
X3937065Y3384320D01*
X3936232Y3384487D01*
X3935565D01*
X3933899Y3384320D01*
X3932233Y3383987D01*
X3930567Y3383321D01*
X3928900Y3382654D01*
X3925901Y3380655D01*
X3923235Y3378489D01*
X3920902Y3376156D01*
X3919236Y3374156D01*
X3918570Y3373490D01*
X3918070Y3372823D01*
X3917903Y3372490D01*
X3917737Y3372323D01*
X3900908Y3386986D01*
X3904407Y3390819D01*
X3907573Y3393985D01*
X3910572Y3396484D01*
X3913238Y3398483D01*
X3915404Y3400150D01*
X3917070Y3401149D01*
X3917570Y3401483D01*
X3918070Y3401816D01*
X3918237Y3401983D01*
X3918403D01*
X3921402Y3403316D01*
X3924402Y3404315D01*
X3927234Y3405148D01*
X3929734Y3405648D01*
X3932066Y3405982D01*
X3933733Y3406148D01*
X3935232D01*
X3937732Y3405982D01*
D02*
G37*
G36*
X4322430Y3609860D02*
X4324429Y3609360D01*
X4326095Y3608694D01*
X4327428Y3608027D01*
X4328595Y3607194D01*
X4329595Y3606528D01*
X4330094Y3606028D01*
X4330261Y3605861D01*
X4331594Y3604195D01*
X4332594Y3602529D01*
X4333260Y3600862D01*
X4333760Y3599363D01*
X4334093Y3597863D01*
X4334260Y3596864D01*
Y3596197D01*
Y3595864D01*
X4334093Y3593698D01*
X4333594Y3591698D01*
X4332927Y3590032D01*
X4332261Y3588532D01*
X4331594Y3587366D01*
X4330928Y3586533D01*
X4330428Y3585866D01*
X4330261Y3585700D01*
X4328595Y3584367D01*
X4326929Y3583367D01*
X4325262Y3582534D01*
X4323763Y3582034D01*
X4322263Y3581701D01*
X4321263Y3581534D01*
X4320264D01*
X4318264Y3581701D01*
X4316265Y3582201D01*
X4314598Y3582867D01*
X4313265Y3583534D01*
X4312099Y3584200D01*
X4311099Y3584867D01*
X4310599Y3585366D01*
X4310433Y3585533D01*
X4309100Y3587199D01*
X4308100Y3588866D01*
X4307267Y3590532D01*
X4306767Y3592198D01*
X4306434Y3593531D01*
X4306267Y3594697D01*
Y3595364D01*
Y3595697D01*
X4306434Y3597863D01*
X4306934Y3599696D01*
X4307600Y3601362D01*
X4308267Y3602862D01*
X4309100Y3604028D01*
X4309766Y3605028D01*
X4310266Y3605528D01*
X4310433Y3605695D01*
X4312099Y3607194D01*
X4313765Y3608194D01*
X4315432Y3609027D01*
X4316931Y3609527D01*
X4318431Y3609860D01*
X4319431Y3610027D01*
X4320430D01*
X4322430Y3609860D01*
D02*
G37*
G36*
X4159805Y3576036D02*
X4162804Y3575702D01*
X4165637Y3575036D01*
X4168469Y3574203D01*
X4170969Y3573203D01*
X4173468Y3572037D01*
X4175634Y3570870D01*
X4177634Y3569704D01*
X4179466Y3568537D01*
X4181133Y3567371D01*
X4182466Y3566205D01*
X4183632Y3565205D01*
X4184632Y3564372D01*
X4185298Y3563705D01*
X4185631Y3563372D01*
X4185798Y3563205D01*
X4187798Y3560706D01*
X4189630Y3558040D01*
X4191297Y3555374D01*
X4192630Y3552542D01*
X4193796Y3549709D01*
X4194796Y3547043D01*
X4195462Y3544377D01*
X4196129Y3541711D01*
X4196629Y3539378D01*
X4196962Y3537046D01*
X4197295Y3535046D01*
X4197462Y3533380D01*
X4197628Y3532047D01*
Y3530880D01*
Y3530214D01*
Y3530047D01*
X4197462Y3526382D01*
X4197129Y3523049D01*
X4196462Y3519717D01*
X4195629Y3516551D01*
X4194796Y3513718D01*
X4193796Y3511052D01*
X4192630Y3508553D01*
X4191463Y3506220D01*
X4190297Y3504221D01*
X4189131Y3502388D01*
X4188131Y3500888D01*
X4187298Y3499555D01*
X4186465Y3498555D01*
X4185798Y3497889D01*
X4185465Y3497389D01*
X4185298Y3497222D01*
X4182965Y3494890D01*
X4180466Y3492890D01*
X4177967Y3491224D01*
X4175467Y3489724D01*
X4172968Y3488391D01*
X4170635Y3487392D01*
X4168303Y3486558D01*
X4165970Y3485892D01*
X4163970Y3485392D01*
X4161971Y3484892D01*
X4160305Y3484559D01*
X4158805Y3484392D01*
X4157639D01*
X4156639Y3484226D01*
X4155972D01*
X4153140Y3484392D01*
X4150640Y3484726D01*
X4148308Y3485059D01*
X4146142Y3485559D01*
X4144475Y3486059D01*
X4143142Y3486558D01*
X4142309Y3486725D01*
X4141976Y3486892D01*
X4139477Y3488058D01*
X4137144Y3489391D01*
X4134978Y3490891D01*
X4132978Y3492224D01*
X4131312Y3493557D01*
X4130146Y3494556D01*
X4129313Y3495223D01*
X4128979Y3495556D01*
Y3486392D01*
X4106985D01*
Y3574036D01*
X4128979D01*
Y3564372D01*
X4131312Y3566371D01*
X4133478Y3568204D01*
X4135644Y3569704D01*
X4137644Y3571037D01*
X4139477Y3571870D01*
X4140810Y3572703D01*
X4141643Y3573036D01*
X4141976Y3573203D01*
X4144642Y3574203D01*
X4147141Y3574869D01*
X4149641Y3575536D01*
X4151807Y3575869D01*
X4153806Y3576036D01*
X4155306Y3576202D01*
X4156639D01*
X4159805Y3576036D01*
D02*
G37*
G36*
X3935362D02*
X3938361Y3575702D01*
X3941194Y3575036D01*
X3944027Y3574203D01*
X3946526Y3573203D01*
X3949025Y3572037D01*
X3951191Y3570870D01*
X3953191Y3569704D01*
X3955024Y3568537D01*
X3956690Y3567371D01*
X3958023Y3566205D01*
X3959189Y3565205D01*
X3960189Y3564372D01*
X3960856Y3563705D01*
X3961189Y3563372D01*
X3961356Y3563205D01*
X3963355Y3560706D01*
X3965188Y3558040D01*
X3966854Y3555374D01*
X3968187Y3552542D01*
X3969354Y3549709D01*
X3970353Y3547043D01*
X3971020Y3544377D01*
X3971686Y3541711D01*
X3972186Y3539378D01*
X3972519Y3537046D01*
X3972853Y3535046D01*
X3973019Y3533380D01*
X3973186Y3532047D01*
Y3530880D01*
Y3530214D01*
Y3530047D01*
X3973019Y3526382D01*
X3972686Y3523049D01*
X3972019Y3519717D01*
X3971186Y3516551D01*
X3970353Y3513718D01*
X3969354Y3511052D01*
X3968187Y3508553D01*
X3967021Y3506220D01*
X3965854Y3504221D01*
X3964688Y3502388D01*
X3963688Y3500888D01*
X3962855Y3499555D01*
X3962022Y3498555D01*
X3961356Y3497889D01*
X3961022Y3497389D01*
X3960856Y3497222D01*
X3958523Y3494890D01*
X3956024Y3492890D01*
X3953524Y3491224D01*
X3951025Y3489724D01*
X3948526Y3488391D01*
X3946193Y3487392D01*
X3943860Y3486558D01*
X3941527Y3485892D01*
X3939528Y3485392D01*
X3937528Y3484892D01*
X3935862Y3484559D01*
X3934362Y3484392D01*
X3933196D01*
X3932196Y3484226D01*
X3931530D01*
X3928697Y3484392D01*
X3926198Y3484726D01*
X3923865Y3485059D01*
X3921699Y3485559D01*
X3920033Y3486059D01*
X3918700Y3486558D01*
X3917867Y3486725D01*
X3917533Y3486892D01*
X3915034Y3488058D01*
X3912701Y3489391D01*
X3910535Y3490891D01*
X3908536Y3492224D01*
X3906870Y3493557D01*
X3905703Y3494556D01*
X3904870Y3495223D01*
X3904537Y3495556D01*
Y3486392D01*
X3882542D01*
Y3574036D01*
X3904537D01*
Y3564372D01*
X3906870Y3566371D01*
X3909036Y3568204D01*
X3911202Y3569704D01*
X3913201Y3571037D01*
X3915034Y3571870D01*
X3916367Y3572703D01*
X3917200Y3573036D01*
X3917533Y3573203D01*
X3920199Y3574203D01*
X3922699Y3574869D01*
X3925198Y3575536D01*
X3927364Y3575869D01*
X3929364Y3576036D01*
X3930863Y3576202D01*
X3932196D01*
X3935362Y3576036D01*
D02*
G37*
G36*
X3361009Y3576035D02*
X3364009Y3575702D01*
X3366841Y3575036D01*
X3369674Y3574202D01*
X3372173Y3573203D01*
X3374672Y3572036D01*
X3376839Y3570870D01*
X3378838Y3569704D01*
X3380671Y3568537D01*
X3382337Y3567371D01*
X3383670Y3566204D01*
X3384837Y3565205D01*
X3385836Y3564372D01*
X3386503Y3563705D01*
X3386836Y3563372D01*
X3387003Y3563205D01*
X3389002Y3560706D01*
X3390835Y3558040D01*
X3392501Y3555374D01*
X3393834Y3552541D01*
X3395001Y3549709D01*
X3396000Y3547043D01*
X3396667Y3544377D01*
X3397333Y3541711D01*
X3397833Y3539378D01*
X3398166Y3537045D01*
X3398500Y3535046D01*
X3398666Y3533380D01*
X3398833Y3532047D01*
Y3530880D01*
Y3530214D01*
Y3530047D01*
X3398666Y3526381D01*
X3398333Y3523049D01*
X3397667Y3519716D01*
X3396833Y3516550D01*
X3396000Y3513718D01*
X3395001Y3511052D01*
X3393834Y3508553D01*
X3392668Y3506220D01*
X3391501Y3504220D01*
X3390335Y3502387D01*
X3389335Y3500888D01*
X3388502Y3499555D01*
X3387669Y3498555D01*
X3387003Y3497889D01*
X3386669Y3497389D01*
X3386503Y3497222D01*
X3384170Y3494889D01*
X3381671Y3492890D01*
X3379171Y3491224D01*
X3376672Y3489724D01*
X3374173Y3488391D01*
X3371840Y3487391D01*
X3369507Y3486558D01*
X3367174Y3485892D01*
X3365175Y3485392D01*
X3363175Y3484892D01*
X3361509Y3484559D01*
X3360010Y3484392D01*
X3358843D01*
X3357843Y3484225D01*
X3357177D01*
X3354344Y3484392D01*
X3351845Y3484725D01*
X3349512Y3485059D01*
X3347346Y3485558D01*
X3345680Y3486058D01*
X3344347Y3486558D01*
X3343514Y3486725D01*
X3343181Y3486891D01*
X3340681Y3488058D01*
X3338348Y3489391D01*
X3336182Y3490890D01*
X3334183Y3492223D01*
X3332517Y3493556D01*
X3331350Y3494556D01*
X3330517Y3495223D01*
X3330184Y3495556D01*
Y3486392D01*
X3308189D01*
Y3574036D01*
X3330184D01*
Y3564372D01*
X3332517Y3566371D01*
X3334683Y3568204D01*
X3336849Y3569704D01*
X3338848Y3571037D01*
X3340681Y3571870D01*
X3342014Y3572703D01*
X3342847Y3573036D01*
X3343181Y3573203D01*
X3345846Y3574202D01*
X3348346Y3574869D01*
X3350845Y3575535D01*
X3353011Y3575869D01*
X3355011Y3576035D01*
X3356510Y3576202D01*
X3357843D01*
X3361009Y3576035D01*
D02*
G37*
G36*
X3705088Y3486392D02*
X3683093D01*
Y3495556D01*
X3680761Y3493390D01*
X3678428Y3491724D01*
X3676262Y3490224D01*
X3674262Y3489058D01*
X3672596Y3488058D01*
X3671430Y3487391D01*
X3670597Y3487058D01*
X3670263Y3486891D01*
X3667764Y3486058D01*
X3665265Y3485392D01*
X3662932Y3484892D01*
X3660766Y3484559D01*
X3658933Y3484392D01*
X3657600Y3484225D01*
X3656267D01*
X3653101Y3484392D01*
X3650102Y3484725D01*
X3647269Y3485392D01*
X3644437Y3486225D01*
X3641937Y3487225D01*
X3639438Y3488391D01*
X3637272Y3489557D01*
X3635272Y3490724D01*
X3633440Y3491890D01*
X3631773Y3493057D01*
X3630274Y3494223D01*
X3629107Y3495223D01*
X3628108Y3496056D01*
X3627441Y3496722D01*
X3627108Y3497055D01*
X3626941Y3497222D01*
X3624775Y3499721D01*
X3622776Y3502387D01*
X3621109Y3505220D01*
X3619776Y3507886D01*
X3618443Y3510719D01*
X3617444Y3513385D01*
X3616610Y3516051D01*
X3615944Y3518550D01*
X3615444Y3520883D01*
X3615111Y3523215D01*
X3614778Y3525048D01*
X3614611Y3526715D01*
X3614444Y3528214D01*
Y3529214D01*
Y3529880D01*
Y3530047D01*
X3614611Y3533713D01*
X3614944Y3537212D01*
X3615611Y3540544D01*
X3616277Y3543710D01*
X3617277Y3546709D01*
X3618277Y3549375D01*
X3619276Y3551875D01*
X3620443Y3554208D01*
X3621609Y3556207D01*
X3622609Y3558040D01*
X3623609Y3559539D01*
X3624608Y3560872D01*
X3625275Y3561872D01*
X3625941Y3562539D01*
X3626275Y3563039D01*
X3626441Y3563205D01*
X3628774Y3565538D01*
X3631107Y3567537D01*
X3633606Y3569204D01*
X3636106Y3570703D01*
X3638438Y3572036D01*
X3640938Y3573036D01*
X3643270Y3573869D01*
X3645436Y3574536D01*
X3647603Y3575036D01*
X3649602Y3575535D01*
X3651268Y3575869D01*
X3652768Y3576035D01*
X3653934Y3576202D01*
X3655601D01*
X3658433Y3576035D01*
X3661266Y3575702D01*
X3663765Y3575202D01*
X3665931Y3574702D01*
X3667764Y3574202D01*
X3669264Y3573703D01*
X3670097Y3573369D01*
X3670430Y3573203D01*
X3672929Y3572036D01*
X3675262Y3570537D01*
X3677428Y3569037D01*
X3679261Y3567537D01*
X3680927Y3566204D01*
X3682094Y3565205D01*
X3682760Y3564538D01*
X3683093Y3564205D01*
Y3607860D01*
X3705088D01*
Y3486392D01*
D02*
G37*
G36*
X3813893Y3576036D02*
X3816726Y3575702D01*
X3819225Y3575202D01*
X3821558Y3574703D01*
X3823391Y3574036D01*
X3824890Y3573536D01*
X3825724Y3573203D01*
X3826057Y3573036D01*
X3828556Y3571703D01*
X3830889Y3570370D01*
X3832888Y3568704D01*
X3834721Y3567204D01*
X3836221Y3565871D01*
X3837387Y3564705D01*
X3838054Y3564039D01*
X3838387Y3563705D01*
Y3574036D01*
X3860381D01*
Y3486392D01*
X3838387D01*
Y3525215D01*
X3838220Y3529547D01*
X3838054Y3533380D01*
X3837721Y3536546D01*
X3837221Y3539045D01*
X3836887Y3541044D01*
X3836554Y3542377D01*
X3836388Y3543211D01*
X3836221Y3543544D01*
X3835388Y3545710D01*
X3834221Y3547543D01*
X3833222Y3549042D01*
X3832055Y3550375D01*
X3831056Y3551375D01*
X3830222Y3552208D01*
X3829723Y3552542D01*
X3829556Y3552708D01*
X3827890Y3553875D01*
X3826057Y3554708D01*
X3824391Y3555208D01*
X3822891Y3555707D01*
X3821558Y3555874D01*
X3820558Y3556041D01*
X3819559D01*
X3817726Y3555874D01*
X3816059Y3555707D01*
X3814726Y3555208D01*
X3813393Y3554708D01*
X3812394Y3554208D01*
X3811727Y3553875D01*
X3811227Y3553541D01*
X3811061Y3553375D01*
X3809894Y3552375D01*
X3808728Y3551042D01*
X3807895Y3549876D01*
X3807228Y3548543D01*
X3806562Y3547376D01*
X3806229Y3546376D01*
X3805895Y3545710D01*
Y3545543D01*
X3805229Y3543377D01*
X3804896Y3540711D01*
X3804562Y3537879D01*
X3804229Y3535046D01*
Y3532547D01*
X3804062Y3531380D01*
Y3530547D01*
Y3529714D01*
Y3529048D01*
Y3528714D01*
Y3528548D01*
Y3486392D01*
X3782068D01*
Y3525715D01*
X3781902Y3530047D01*
X3781735Y3533880D01*
X3781402Y3536879D01*
X3780902Y3539545D01*
X3780569Y3541378D01*
X3780235Y3542877D01*
X3780069Y3543544D01*
X3779902Y3543877D01*
X3779069Y3545877D01*
X3777903Y3547709D01*
X3776903Y3549209D01*
X3775736Y3550375D01*
X3774737Y3551375D01*
X3773904Y3552208D01*
X3773404Y3552542D01*
X3773237Y3552708D01*
X3771571Y3553875D01*
X3769738Y3554708D01*
X3768072Y3555208D01*
X3766405Y3555707D01*
X3765072Y3555874D01*
X3764073Y3556040D01*
X3763073D01*
X3760407Y3555874D01*
X3758241Y3555207D01*
X3756241Y3554374D01*
X3754742Y3553374D01*
X3753409Y3552375D01*
X3752576Y3551542D01*
X3752076Y3550875D01*
X3751909Y3550708D01*
X3751243Y3549542D01*
X3750576Y3548376D01*
X3749743Y3545376D01*
X3749077Y3542044D01*
X3748577Y3538711D01*
X3748243Y3535546D01*
Y3534213D01*
X3748077Y3532880D01*
Y3531880D01*
Y3531213D01*
Y3530714D01*
Y3530547D01*
Y3486392D01*
X3726082D01*
Y3537712D01*
Y3540544D01*
X3726249Y3543210D01*
X3726416Y3545543D01*
X3726582Y3547876D01*
X3726749Y3549875D01*
X3727082Y3551708D01*
X3727415Y3553374D01*
X3727582Y3554874D01*
X3727915Y3556207D01*
X3728249Y3557373D01*
X3728582Y3558206D01*
X3728748Y3559040D01*
X3728915Y3559706D01*
X3729082Y3560039D01*
X3729248Y3560373D01*
X3730581Y3562872D01*
X3732248Y3565038D01*
X3733914Y3567038D01*
X3735580Y3568704D01*
X3737080Y3570037D01*
X3738413Y3570870D01*
X3739246Y3571536D01*
X3739412Y3571703D01*
X3739579D01*
X3742245Y3573203D01*
X3745078Y3574369D01*
X3747744Y3575036D01*
X3750410Y3575702D01*
X3752576Y3576035D01*
X3754409Y3576202D01*
X3755908D01*
X3759241Y3576035D01*
X3762240Y3575535D01*
X3765072Y3574869D01*
X3767572Y3574203D01*
X3769738Y3573370D01*
X3771238Y3572703D01*
X3772237Y3572203D01*
X3772404Y3572037D01*
X3772571D01*
X3775237Y3570370D01*
X3777736Y3568537D01*
X3780069Y3566538D01*
X3781902Y3564705D01*
X3783401Y3562872D01*
X3784401Y3561539D01*
X3785234Y3560539D01*
X3785401Y3560373D01*
Y3560206D01*
X3787067Y3563039D01*
X3788733Y3565372D01*
X3790566Y3567371D01*
X3792232Y3569037D01*
X3793732Y3570370D01*
X3794898Y3571370D01*
X3795731Y3571870D01*
X3796065Y3572037D01*
X3798564Y3573370D01*
X3801230Y3574369D01*
X3803729Y3575202D01*
X3805895Y3575702D01*
X3807895Y3576036D01*
X3809561Y3576202D01*
X3810894D01*
X3813893Y3576036D01*
D02*
G37*
G36*
X3490310Y3486392D02*
X3468315D01*
Y3526715D01*
X3431325Y3486392D01*
X3403665D01*
X3445988Y3532380D01*
X3408830Y3574036D01*
X3435990D01*
X3468315Y3537712D01*
Y3607860D01*
X3490310D01*
Y3486392D01*
D02*
G37*
G36*
X4490720Y3519883D02*
X4449730D01*
Y3540378D01*
X4490720D01*
Y3519883D01*
D02*
G37*
G36*
X4265944Y3493057D02*
X4283773Y3454400D01*
X4261112D01*
X4206293Y3574036D01*
X4228954D01*
X4254114Y3519383D01*
X4276608Y3574036D01*
X4299269D01*
X4265944Y3493057D01*
D02*
G37*
G36*
X3558625Y3576035D02*
X3562124Y3575702D01*
X3565290Y3575036D01*
X3568456Y3574202D01*
X3571289Y3573036D01*
X3573955Y3572036D01*
X3576454Y3570703D01*
X3578620Y3569537D01*
X3580620Y3568371D01*
X3582453Y3567038D01*
X3583952Y3566038D01*
X3585285Y3565038D01*
X3586285Y3564038D01*
X3586951Y3563372D01*
X3587451Y3563039D01*
X3587618Y3562872D01*
X3589951Y3560373D01*
X3591784Y3557707D01*
X3593616Y3554874D01*
X3594949Y3552208D01*
X3596282Y3549375D01*
X3597282Y3546543D01*
X3598115Y3543877D01*
X3598782Y3541377D01*
X3599448Y3538878D01*
X3599781Y3536712D01*
X3600115Y3534713D01*
X3600281Y3533046D01*
Y3531713D01*
X3600448Y3530547D01*
Y3529880D01*
Y3529714D01*
X3600281Y3526048D01*
X3599948Y3522716D01*
X3599282Y3519383D01*
X3598448Y3516384D01*
X3597449Y3513385D01*
X3596449Y3510719D01*
X3595283Y3508219D01*
X3593950Y3506053D01*
X3592783Y3504054D01*
X3591617Y3502221D01*
X3590617Y3500721D01*
X3589617Y3499388D01*
X3588784Y3498388D01*
X3588118Y3497722D01*
X3587785Y3497222D01*
X3587618Y3497055D01*
X3585119Y3494723D01*
X3582453Y3492890D01*
X3579620Y3491057D01*
X3576787Y3489724D01*
X3574121Y3488391D01*
X3571289Y3487391D01*
X3568456Y3486558D01*
X3565957Y3485892D01*
X3563457Y3485225D01*
X3561125Y3484892D01*
X3559125Y3484559D01*
X3557459Y3484392D01*
X3555959D01*
X3554793Y3484225D01*
X3553960D01*
X3549128Y3484392D01*
X3544796Y3484892D01*
X3540797Y3485725D01*
X3537464Y3486558D01*
X3535964Y3487058D01*
X3534798Y3487391D01*
X3533632Y3487891D01*
X3532632Y3488224D01*
X3531966Y3488391D01*
X3531466Y3488724D01*
X3531132Y3488891D01*
X3530966D01*
X3527467Y3490890D01*
X3524301Y3493057D01*
X3521468Y3495556D01*
X3518969Y3497889D01*
X3516969Y3500055D01*
X3515470Y3501721D01*
X3514970Y3502387D01*
X3514637Y3502887D01*
X3514303Y3503221D01*
Y3503387D01*
X3532965Y3512218D01*
X3534631Y3510719D01*
X3536464Y3509386D01*
X3538131Y3508219D01*
X3539963Y3507220D01*
X3543463Y3505720D01*
X3546795Y3504720D01*
X3549794Y3504054D01*
X3550961Y3503887D01*
X3552127Y3503720D01*
X3552960Y3503554D01*
X3554126D01*
X3557792Y3503720D01*
X3561125Y3504387D01*
X3563957Y3505220D01*
X3566457Y3506386D01*
X3568456Y3507386D01*
X3569956Y3508219D01*
X3570789Y3508886D01*
X3571122Y3509052D01*
X3573288Y3511219D01*
X3575121Y3513718D01*
X3576454Y3516217D01*
X3577620Y3518550D01*
X3578287Y3520716D01*
X3578787Y3522549D01*
X3578953Y3523215D01*
X3579120Y3523715D01*
Y3523882D01*
Y3524049D01*
X3508472D01*
X3508305Y3528214D01*
X3508472Y3532213D01*
X3508805Y3535879D01*
X3509471Y3539378D01*
X3510304Y3542710D01*
X3511304Y3545710D01*
X3512470Y3548709D01*
X3513637Y3551208D01*
X3514803Y3553541D01*
X3515970Y3555707D01*
X3517136Y3557540D01*
X3518302Y3559206D01*
X3519302Y3560539D01*
X3520135Y3561539D01*
X3520802Y3562205D01*
X3521135Y3562705D01*
X3521302Y3562872D01*
X3523801Y3565205D01*
X3526467Y3567204D01*
X3529300Y3569037D01*
X3532132Y3570537D01*
X3534965Y3571870D01*
X3537631Y3573036D01*
X3540463Y3573869D01*
X3543129Y3574536D01*
X3545629Y3575036D01*
X3547795Y3575535D01*
X3549961Y3575869D01*
X3551627Y3576035D01*
X3553127Y3576202D01*
X3555126D01*
X3558625Y3576035D01*
D02*
G37*
G36*
X4420571Y3486392D02*
X4398244D01*
Y3536546D01*
X4396078D01*
X4369418Y3486392D01*
X4344757D01*
X4372750Y3538878D01*
X4368751Y3540545D01*
X4365419Y3542544D01*
X4362586Y3544544D01*
X4360087Y3546376D01*
X4358254Y3548209D01*
X4356921Y3549542D01*
X4356254Y3550542D01*
X4355921Y3550709D01*
Y3550875D01*
X4354088Y3554041D01*
X4352589Y3557207D01*
X4351589Y3560539D01*
X4350922Y3563539D01*
X4350589Y3566205D01*
X4350423Y3567371D01*
X4350256Y3568371D01*
Y3569204D01*
Y3569870D01*
Y3570204D01*
Y3570370D01*
X4350423Y3574369D01*
X4351089Y3578035D01*
X4351922Y3581367D01*
X4352755Y3584200D01*
X4353755Y3586366D01*
X4354588Y3588032D01*
X4354921Y3588699D01*
X4355255Y3589199D01*
X4355421Y3589365D01*
Y3589532D01*
X4357421Y3592365D01*
X4359587Y3594864D01*
X4361753Y3596864D01*
X4363919Y3598363D01*
X4365919Y3599696D01*
X4367418Y3600529D01*
X4368418Y3601029D01*
X4368585Y3601196D01*
X4368751D01*
X4370417Y3601862D01*
X4372417Y3602362D01*
X4374416Y3602862D01*
X4376583Y3603362D01*
X4381248Y3604028D01*
X4385914Y3604362D01*
X4388080Y3604528D01*
X4390079Y3604695D01*
X4391912D01*
X4393578Y3604861D01*
X4420571D01*
Y3486392D01*
D02*
G37*
G36*
X4331261D02*
X4309266D01*
Y3574036D01*
X4331261D01*
Y3486392D01*
D02*
G37*
G36*
X4047833Y3582700D02*
X4026839D01*
Y3486392D01*
X4004011D01*
Y3582700D01*
X3982350D01*
Y3604861D01*
X4047833D01*
Y3582700D01*
D02*
G37*
G36*
X3255203Y3576035D02*
X3257203Y3575702D01*
X3259202Y3575036D01*
X3260702Y3574536D01*
X3262201Y3573869D01*
X3263201Y3573203D01*
X3263867Y3572869D01*
X3264034Y3572703D01*
X3265867Y3571370D01*
X3267367Y3569704D01*
X3268700Y3568204D01*
X3269866Y3566538D01*
X3270866Y3565038D01*
X3271532Y3563872D01*
X3271865Y3563205D01*
X3272032Y3562872D01*
Y3574036D01*
X3291027D01*
Y3486392D01*
X3269033D01*
Y3521716D01*
X3269199Y3525881D01*
Y3529214D01*
X3269033Y3532213D01*
X3268866Y3535046D01*
X3268700Y3537545D01*
X3268366Y3539711D01*
X3268033Y3541711D01*
X3267700Y3543544D01*
X3267367Y3545043D01*
X3267200Y3546376D01*
X3266867Y3547543D01*
X3266533Y3548542D01*
X3266200Y3549209D01*
X3266034Y3549875D01*
X3265867Y3550209D01*
X3265700Y3550542D01*
X3264367Y3552708D01*
X3262868Y3554208D01*
X3261535Y3555374D01*
X3260202Y3556040D01*
X3259035Y3556540D01*
X3258036Y3556707D01*
X3257369Y3556874D01*
X3256203D01*
X3255203Y3556540D01*
X3253037Y3555874D01*
X3252204Y3555541D01*
X3251537Y3555207D01*
X3251037Y3555041D01*
X3250871Y3554874D01*
X3244039Y3573869D01*
X3245705Y3574702D01*
X3247372Y3575202D01*
X3248871Y3575702D01*
X3250204Y3575869D01*
X3251371Y3576035D01*
X3252204Y3576202D01*
X3253037D01*
X3255203Y3576035D01*
D02*
G37*
%LPC*%
G36*
X3740115Y3354328D02*
X3737116D01*
X3735283Y3353995D01*
X3731951Y3353161D01*
X3728952Y3351995D01*
X3726452Y3350829D01*
X3724453Y3349496D01*
X3722953Y3348329D01*
X3722120Y3347496D01*
X3721787Y3347330D01*
Y3347163D01*
X3719454Y3344330D01*
X3717788Y3341331D01*
X3716621Y3338165D01*
X3715788Y3335333D01*
X3715288Y3332667D01*
X3715122Y3331500D01*
Y3330501D01*
X3714955Y3329834D01*
Y3329168D01*
Y3328834D01*
Y3328668D01*
X3715288Y3324502D01*
X3715955Y3320836D01*
X3717121Y3317671D01*
X3718288Y3314838D01*
X3719621Y3312672D01*
X3720787Y3311172D01*
X3721454Y3310172D01*
X3721787Y3310006D01*
Y3309839D01*
X3723120Y3308506D01*
X3724453Y3307506D01*
X3727452Y3305674D01*
X3730285Y3304507D01*
X3732951Y3303507D01*
X3735450Y3303008D01*
X3737283Y3302841D01*
X3738116Y3302674D01*
X3739116D01*
X3740949Y3302841D01*
X3742781Y3303008D01*
X3745947Y3303841D01*
X3748780Y3305007D01*
X3751279Y3306340D01*
X3753279Y3307506D01*
X3754778Y3308673D01*
X3755611Y3309506D01*
X3755778Y3309839D01*
X3755945D01*
X3758277Y3312672D01*
X3759944Y3315838D01*
X3761110Y3319004D01*
X3761943Y3322003D01*
X3762443Y3324502D01*
X3762610Y3325668D01*
Y3326668D01*
X3762776Y3327335D01*
Y3328001D01*
Y3328334D01*
Y3328501D01*
X3762443Y3332500D01*
X3761777Y3336166D01*
X3760610Y3339332D01*
X3759444Y3341998D01*
X3758277Y3344164D01*
X3757111Y3345663D01*
X3756445Y3346663D01*
X3756111Y3346996D01*
X3754778Y3348329D01*
X3753445Y3349496D01*
X3750613Y3351162D01*
X3747780Y3352495D01*
X3745114Y3353495D01*
X3742615Y3353995D01*
X3740782Y3354161D01*
X3740115Y3354328D01*
D02*
G37*
G36*
X3423197D02*
X3420197D01*
X3418365Y3353995D01*
X3415032Y3353161D01*
X3412033Y3351995D01*
X3409533Y3350829D01*
X3407534Y3349496D01*
X3406034Y3348329D01*
X3405201Y3347496D01*
X3404868Y3347330D01*
Y3347163D01*
X3402535Y3344330D01*
X3400869Y3341331D01*
X3399703Y3338165D01*
X3398870Y3335333D01*
X3398370Y3332667D01*
X3398203Y3331500D01*
Y3330501D01*
X3398036Y3329834D01*
Y3329168D01*
Y3328834D01*
Y3328668D01*
X3398370Y3324502D01*
X3399036Y3320836D01*
X3400202Y3317671D01*
X3401369Y3314838D01*
X3402702Y3312672D01*
X3403868Y3311172D01*
X3404535Y3310172D01*
X3404868Y3310006D01*
Y3309839D01*
X3406201Y3308506D01*
X3407534Y3307506D01*
X3410533Y3305674D01*
X3413366Y3304507D01*
X3416032Y3303507D01*
X3418531Y3303008D01*
X3420364Y3302841D01*
X3421197Y3302674D01*
X3422197D01*
X3424030Y3302841D01*
X3425863Y3303008D01*
X3429028Y3303841D01*
X3431861Y3305007D01*
X3434360Y3306340D01*
X3436360Y3307506D01*
X3437860Y3308673D01*
X3438693Y3309506D01*
X3438859Y3309839D01*
X3439026D01*
X3441359Y3312672D01*
X3443025Y3315838D01*
X3444191Y3319004D01*
X3445024Y3322003D01*
X3445524Y3324502D01*
X3445691Y3325668D01*
Y3326668D01*
X3445857Y3327335D01*
Y3328001D01*
Y3328334D01*
Y3328501D01*
X3445524Y3332500D01*
X3444858Y3336166D01*
X3443691Y3339332D01*
X3442525Y3341998D01*
X3441359Y3344164D01*
X3440192Y3345663D01*
X3439526Y3346663D01*
X3439193Y3346996D01*
X3437860Y3348329D01*
X3436527Y3349496D01*
X3433694Y3351162D01*
X3430861Y3352495D01*
X3428195Y3353495D01*
X3425696Y3353995D01*
X3423863Y3354161D01*
X3423197Y3354328D01*
D02*
G37*
G36*
X4172505Y3353828D02*
X4169506D01*
X4167673Y3353495D01*
X4164340Y3352662D01*
X4161341Y3351495D01*
X4158842Y3350329D01*
X4156842Y3348996D01*
X4155342Y3347830D01*
X4154509Y3346997D01*
X4154176Y3346830D01*
Y3346663D01*
X4151843Y3343831D01*
X4150177Y3340832D01*
X4149011Y3337832D01*
X4148178Y3335000D01*
X4147678Y3332334D01*
X4147511Y3331334D01*
Y3330334D01*
X4147345Y3329501D01*
Y3329001D01*
Y3328668D01*
Y3328501D01*
X4147678Y3324502D01*
X4148511Y3320837D01*
X4149511Y3317671D01*
X4150844Y3315005D01*
X4152177Y3312839D01*
X4153176Y3311339D01*
X4154009Y3310339D01*
X4154176Y3310173D01*
X4154343Y3310006D01*
X4157009Y3307673D01*
X4159841Y3306007D01*
X4162841Y3304674D01*
X4165507Y3303841D01*
X4167839Y3303341D01*
X4169839Y3303174D01*
X4170505Y3303008D01*
X4171505D01*
X4175171Y3303341D01*
X4178503Y3304174D01*
X4181502Y3305174D01*
X4184002Y3306507D01*
X4186001Y3307840D01*
X4187501Y3308840D01*
X4188334Y3309673D01*
X4188667Y3310006D01*
X4190833Y3312839D01*
X4192500Y3315838D01*
X4193666Y3319004D01*
X4194499Y3321836D01*
X4194999Y3324502D01*
X4195166Y3325669D01*
Y3326668D01*
X4195332Y3327335D01*
Y3328001D01*
Y3328335D01*
Y3328501D01*
X4194999Y3332500D01*
X4194332Y3335999D01*
X4193166Y3339165D01*
X4191833Y3341665D01*
X4190667Y3343831D01*
X4189500Y3345330D01*
X4188834Y3346330D01*
X4188501Y3346663D01*
X4187168Y3347996D01*
X4185835Y3348996D01*
X4183002Y3350829D01*
X4180169Y3352162D01*
X4177503Y3352995D01*
X4175004Y3353495D01*
X4173171Y3353662D01*
X4172505Y3353828D01*
D02*
G37*
G36*
X4153140Y3556041D02*
X4150141D01*
X4148308Y3555707D01*
X4144975Y3554874D01*
X4141976Y3553708D01*
X4139477Y3552542D01*
X4137477Y3551209D01*
X4135978Y3550042D01*
X4135144Y3549209D01*
X4134811Y3549042D01*
Y3548876D01*
X4132478Y3546043D01*
X4130812Y3543044D01*
X4129646Y3539878D01*
X4128813Y3537046D01*
X4128313Y3534380D01*
X4128146Y3533213D01*
Y3532213D01*
X4127980Y3531547D01*
Y3530880D01*
Y3530547D01*
Y3530381D01*
X4128313Y3526215D01*
X4128979Y3522549D01*
X4130146Y3519383D01*
X4131312Y3516551D01*
X4132645Y3514385D01*
X4133811Y3512885D01*
X4134478Y3511885D01*
X4134811Y3511719D01*
Y3511552D01*
X4136144Y3510219D01*
X4137477Y3509219D01*
X4140476Y3507386D01*
X4143309Y3506220D01*
X4145975Y3505220D01*
X4148474Y3504720D01*
X4150307Y3504554D01*
X4151140Y3504387D01*
X4152140D01*
X4153973Y3504554D01*
X4155806Y3504720D01*
X4158972Y3505554D01*
X4161804Y3506720D01*
X4164304Y3508053D01*
X4166303Y3509219D01*
X4167803Y3510386D01*
X4168636Y3511219D01*
X4168802Y3511552D01*
X4168969D01*
X4171302Y3514385D01*
X4172968Y3517550D01*
X4174134Y3520716D01*
X4174968Y3523716D01*
X4175467Y3526215D01*
X4175634Y3527381D01*
Y3528381D01*
X4175801Y3529048D01*
Y3529714D01*
Y3530047D01*
Y3530214D01*
X4175467Y3534213D01*
X4174801Y3537879D01*
X4173635Y3541044D01*
X4172468Y3543710D01*
X4171302Y3545877D01*
X4170135Y3547376D01*
X4169469Y3548376D01*
X4169136Y3548709D01*
X4167803Y3550042D01*
X4166470Y3551209D01*
X4163637Y3552875D01*
X4160804Y3554208D01*
X4158138Y3555208D01*
X4155639Y3555707D01*
X4153806Y3555874D01*
X4153140Y3556041D01*
D02*
G37*
G36*
X3928697D02*
X3925698D01*
X3923865Y3555707D01*
X3920533Y3554874D01*
X3917533Y3553708D01*
X3915034Y3552542D01*
X3913035Y3551209D01*
X3911535Y3550042D01*
X3910702Y3549209D01*
X3910369Y3549042D01*
Y3548876D01*
X3908036Y3546043D01*
X3906370Y3543044D01*
X3905203Y3539878D01*
X3904370Y3537046D01*
X3903870Y3534380D01*
X3903704Y3533213D01*
Y3532213D01*
X3903537Y3531547D01*
Y3530880D01*
Y3530547D01*
Y3530381D01*
X3903870Y3526215D01*
X3904537Y3522549D01*
X3905703Y3519383D01*
X3906870Y3516551D01*
X3908202Y3514385D01*
X3909369Y3512885D01*
X3910035Y3511885D01*
X3910369Y3511719D01*
Y3511552D01*
X3911702Y3510219D01*
X3913035Y3509219D01*
X3916034Y3507386D01*
X3918866Y3506220D01*
X3921532Y3505220D01*
X3924032Y3504720D01*
X3925865Y3504554D01*
X3926698Y3504387D01*
X3927698D01*
X3929530Y3504554D01*
X3931363Y3504720D01*
X3934529Y3505554D01*
X3937362Y3506720D01*
X3939861Y3508053D01*
X3941861Y3509219D01*
X3943360Y3510386D01*
X3944193Y3511219D01*
X3944360Y3511552D01*
X3944527D01*
X3946859Y3514385D01*
X3948526Y3517550D01*
X3949692Y3520716D01*
X3950525Y3523716D01*
X3951025Y3526215D01*
X3951191Y3527381D01*
Y3528381D01*
X3951358Y3529048D01*
Y3529714D01*
Y3530047D01*
Y3530214D01*
X3951025Y3534213D01*
X3950358Y3537879D01*
X3949192Y3541044D01*
X3948026Y3543710D01*
X3946859Y3545877D01*
X3945693Y3547376D01*
X3945026Y3548376D01*
X3944693Y3548709D01*
X3943360Y3550042D01*
X3942027Y3551209D01*
X3939195Y3552875D01*
X3936362Y3554208D01*
X3933696Y3555208D01*
X3931197Y3555707D01*
X3929364Y3555874D01*
X3928697Y3556041D01*
D02*
G37*
G36*
X3354344Y3556040D02*
X3351345D01*
X3349512Y3555707D01*
X3346180Y3554874D01*
X3343181Y3553708D01*
X3340681Y3552541D01*
X3338682Y3551208D01*
X3337182Y3550042D01*
X3336349Y3549209D01*
X3336016Y3549042D01*
Y3548876D01*
X3333683Y3546043D01*
X3332017Y3543044D01*
X3330850Y3539878D01*
X3330017Y3537045D01*
X3329517Y3534379D01*
X3329351Y3533213D01*
Y3532213D01*
X3329184Y3531547D01*
Y3530880D01*
Y3530547D01*
Y3530380D01*
X3329517Y3526215D01*
X3330184Y3522549D01*
X3331350Y3519383D01*
X3332517Y3516550D01*
X3333850Y3514384D01*
X3335016Y3512885D01*
X3335682Y3511885D01*
X3336016Y3511718D01*
Y3511552D01*
X3337349Y3510219D01*
X3338682Y3509219D01*
X3341681Y3507386D01*
X3344514Y3506220D01*
X3347179Y3505220D01*
X3349679Y3504720D01*
X3351512Y3504554D01*
X3352345Y3504387D01*
X3353345D01*
X3355177Y3504554D01*
X3357010Y3504720D01*
X3360176Y3505553D01*
X3363009Y3506720D01*
X3365508Y3508053D01*
X3367508Y3509219D01*
X3369007Y3510385D01*
X3369840Y3511219D01*
X3370007Y3511552D01*
X3370174D01*
X3372506Y3514384D01*
X3374173Y3517550D01*
X3375339Y3520716D01*
X3376172Y3523715D01*
X3376672Y3526215D01*
X3376839Y3527381D01*
Y3528381D01*
X3377005Y3529047D01*
Y3529714D01*
Y3530047D01*
Y3530214D01*
X3376672Y3534213D01*
X3376005Y3537878D01*
X3374839Y3541044D01*
X3373673Y3543710D01*
X3372506Y3545876D01*
X3371340Y3547376D01*
X3370673Y3548376D01*
X3370340Y3548709D01*
X3369007Y3550042D01*
X3367674Y3551208D01*
X3364842Y3552875D01*
X3362009Y3554208D01*
X3359343Y3555207D01*
X3356844Y3555707D01*
X3355011Y3555874D01*
X3354344Y3556040D01*
D02*
G37*
G36*
X3661099D02*
X3658266D01*
X3656434Y3555707D01*
X3653101Y3554874D01*
X3650269Y3553708D01*
X3647769Y3552375D01*
X3645770Y3551042D01*
X3644270Y3549875D01*
X3643437Y3549042D01*
X3643104Y3548876D01*
Y3548709D01*
X3640771Y3545876D01*
X3639105Y3542877D01*
X3637938Y3539711D01*
X3637105Y3536712D01*
X3636605Y3534213D01*
X3636439Y3533046D01*
Y3532047D01*
X3636272Y3531380D01*
Y3530714D01*
Y3530380D01*
Y3530214D01*
X3636605Y3526215D01*
X3637438Y3522549D01*
X3638438Y3519383D01*
X3639771Y3516717D01*
X3641104Y3514551D01*
X3642104Y3512885D01*
X3642937Y3511885D01*
X3643104Y3511718D01*
X3643270Y3511552D01*
X3644603Y3510219D01*
X3645936Y3509219D01*
X3648769Y3507386D01*
X3651602Y3506220D01*
X3654268Y3505220D01*
X3656600Y3504720D01*
X3658433Y3504554D01*
X3659100Y3504387D01*
X3660099D01*
X3661932Y3504554D01*
X3663765Y3504720D01*
X3667098Y3505553D01*
X3670097Y3506720D01*
X3672596Y3508053D01*
X3674596Y3509219D01*
X3676095Y3510385D01*
X3676928Y3511219D01*
X3677095Y3511552D01*
X3677262D01*
X3679594Y3514384D01*
X3681261Y3517550D01*
X3682427Y3520716D01*
X3683260Y3523715D01*
X3683760Y3526381D01*
X3683927Y3527381D01*
Y3528381D01*
X3684093Y3529214D01*
Y3529880D01*
Y3530214D01*
Y3530380D01*
X3683760Y3534546D01*
X3683093Y3538045D01*
X3681927Y3541211D01*
X3680594Y3543877D01*
X3679428Y3546043D01*
X3678261Y3547543D01*
X3677595Y3548542D01*
X3677262Y3548876D01*
X3675929Y3550209D01*
X3674596Y3551208D01*
X3671763Y3553041D01*
X3668764Y3554374D01*
X3666098Y3555207D01*
X3663765Y3555707D01*
X3661766Y3555874D01*
X3661099Y3556040D01*
D02*
G37*
G36*
X3555459Y3557373D02*
X3553960D01*
X3550961Y3557207D01*
X3548128Y3556707D01*
X3545462Y3555874D01*
X3543296Y3555207D01*
X3541630Y3554374D01*
X3540297Y3553541D01*
X3539464Y3553041D01*
X3539130Y3552875D01*
X3536798Y3551042D01*
X3534965Y3549209D01*
X3533465Y3547209D01*
X3532299Y3545376D01*
X3531299Y3543710D01*
X3530799Y3542377D01*
X3530466Y3541544D01*
X3530299Y3541377D01*
Y3541211D01*
X3578120D01*
X3576787Y3543877D01*
X3575288Y3546210D01*
X3573955Y3548209D01*
X3572788Y3549709D01*
X3571622Y3550875D01*
X3570789Y3551542D01*
X3570289Y3552041D01*
X3570122Y3552208D01*
X3567456Y3553874D01*
X3564624Y3555207D01*
X3561958Y3556040D01*
X3559458Y3556707D01*
X3557292Y3557040D01*
X3555459Y3557373D01*
D02*
G37*
G36*
X4398244Y3582867D02*
X4388913D01*
X4386413Y3582700D01*
X4384247Y3582534D01*
X4382581Y3582201D01*
X4381248Y3582034D01*
X4380415Y3581701D01*
X4379915Y3581534D01*
X4379748D01*
X4377416Y3580368D01*
X4375749Y3579035D01*
X4375083Y3578368D01*
X4374583Y3577868D01*
X4374416Y3577535D01*
X4374250Y3577369D01*
X4373583Y3576202D01*
X4372917Y3575202D01*
X4372417Y3573036D01*
X4372250Y3572037D01*
X4372084Y3571370D01*
Y3570870D01*
Y3570704D01*
X4372250Y3568371D01*
X4372750Y3566371D01*
X4373417Y3564705D01*
X4374083Y3563539D01*
X4374916Y3562539D01*
X4375583Y3561706D01*
X4376083Y3561373D01*
X4376249Y3561206D01*
X4378082Y3560373D01*
X4380415Y3559706D01*
X4382748Y3559206D01*
X4385247Y3558873D01*
X4387580Y3558707D01*
X4389413Y3558540D01*
X4398244D01*
Y3582867D01*
D02*
G37*
%LPD*%
D29*
X4448760Y11647020D02*
G03*
X4458760Y11647020I5000J0D01*
G01*
D02*
G03*
X4448760Y11647020I-5000J0D01*
G01*
X8806560Y4065420D02*
G03*
X8816560Y4065420I5000J0D01*
G01*
D02*
G03*
X8806560Y4065420I-5000J0D01*
G01*
X4238760Y12507020D02*
X5038760D01*
X5136260Y12187020D02*
X5138760Y11747020D01*
X4918760D02*
X5138760D01*
X4138760Y12187020D02*
X4141260Y11747020D01*
X4358760D01*
X8906560Y3965420D02*
X9124060Y3965420D01*
X9126560Y3525420D01*
X8126560Y3965420D02*
X8346560Y3965420D01*
X8126560Y3965420D02*
X8129060Y3525420D01*
X8226560Y3205420D02*
X9026560D01*
X6778320Y8196060D02*
X6978320D01*
X6778320D02*
X6978320D01*
X6778320Y7496060D02*
X6978320D01*
X6778320D02*
X6978320D01*
X7228320Y7746060D02*
Y7946060D01*
Y7746060D02*
Y7946060D01*
X6528320Y7746060D02*
Y7946060D01*
Y7746060D02*
Y7946060D01*
D30*
X6438320Y7846060D02*
G03*
X6448320Y7846060I5000J0D01*
G01*
D02*
G03*
X6438320Y7846060I-5000J0D01*
G01*
D02*
G03*
X6448320Y7846060I5000J0D01*
G01*
D32*
X7859304Y3516684D02*
Y3402423D01*
X7866446Y3380999D01*
X7873587Y3373857D01*
X7887869Y3366716D01*
X7902152D01*
X7916435Y3373857D01*
X7923576Y3380999D01*
X7930717Y3402423D01*
Y3416705D01*
X7813600Y3480977D02*
Y3488119D01*
X7806458Y3502401D01*
X7799317Y3509543D01*
X7785034Y3516684D01*
X7756469D01*
X7742186Y3509543D01*
X7735045Y3502401D01*
X7727904Y3488119D01*
Y3473836D01*
X7735045Y3459553D01*
X7749328Y3438130D01*
X7820741Y3366716D01*
X7720763D01*
X3961764Y11959239D02*
Y11806891D01*
X3971286Y11778325D01*
X3980808Y11768803D01*
X3999851Y11759282D01*
X4018895D01*
X4037938Y11768803D01*
X4047460Y11778325D01*
X4056982Y11806891D01*
Y11825934D01*
X3910347Y11921152D02*
X3891303Y11930673D01*
X3862738Y11959239D01*
Y11759282D01*
X6387132Y7445659D02*
Y7293311D01*
X6396654Y7264745D01*
X6406176Y7255223D01*
X6425219Y7245702D01*
X6444263D01*
X6463306Y7255223D01*
X6472828Y7264745D01*
X6482350Y7293311D01*
Y7312354D01*
X6316671Y7445659D02*
X6211932D01*
X6269062Y7369485D01*
X6240497D01*
X6221453Y7359963D01*
X6211932Y7350441D01*
X6202410Y7321876D01*
Y7302832D01*
X6211932Y7274267D01*
X6230975Y7255223D01*
X6259541Y7245702D01*
X6288106D01*
X6316671Y7255223D01*
X6326193Y7264745D01*
X6335715Y7283789D01*
%TF.MD5,39a4dc8c733fa3c94f6a2778c1a90f52*%
M02*
